%TF.GenerationSoftware,KiCad,Pcbnew,7.0.5.1-1-g8f565ef7f0-dirty-deb11*%
%TF.CreationDate,2023-06-14T12:44:05+00:00*%
%TF.ProjectId,kite-nrf52840,6b697465-2d6e-4726-9635-323834302e6b,rev?*%
%TF.SameCoordinates,Original*%
%TF.FileFunction,Copper,L3,Inr*%
%TF.FilePolarity,Positive*%
%FSLAX46Y46*%
G04 Gerber Fmt 4.6, Leading zero omitted, Abs format (unit mm)*
G04 Created by KiCad (PCBNEW 7.0.5.1-1-g8f565ef7f0-dirty-deb11) date 2023-06-14 12:44:05*
%MOMM*%
%LPD*%
G01*
G04 APERTURE LIST*
G04 Aperture macros list*
%AMRoundRect*
0 Rectangle with rounded corners*
0 $1 Rounding radius*
0 $2 $3 $4 $5 $6 $7 $8 $9 X,Y pos of 4 corners*
0 Add a 4 corners polygon primitive as box body*
4,1,4,$2,$3,$4,$5,$6,$7,$8,$9,$2,$3,0*
0 Add four circle primitives for the rounded corners*
1,1,$1+$1,$2,$3*
1,1,$1+$1,$4,$5*
1,1,$1+$1,$6,$7*
1,1,$1+$1,$8,$9*
0 Add four rect primitives between the rounded corners*
20,1,$1+$1,$2,$3,$4,$5,0*
20,1,$1+$1,$4,$5,$6,$7,0*
20,1,$1+$1,$6,$7,$8,$9,0*
20,1,$1+$1,$8,$9,$2,$3,0*%
G04 Aperture macros list end*
%TA.AperFunction,ComponentPad*%
%ADD10O,1.550000X0.890000*%
%TD*%
%TA.AperFunction,ComponentPad*%
%ADD11O,0.950000X1.250000*%
%TD*%
%TA.AperFunction,ComponentPad*%
%ADD12R,1.700000X1.700000*%
%TD*%
%TA.AperFunction,ComponentPad*%
%ADD13O,1.700000X1.700000*%
%TD*%
%TA.AperFunction,ComponentPad*%
%ADD14C,3.800000*%
%TD*%
%TA.AperFunction,ComponentPad*%
%ADD15RoundRect,0.550000X0.550000X0.550000X-0.550000X0.550000X-0.550000X-0.550000X0.550000X-0.550000X0*%
%TD*%
%TA.AperFunction,ComponentPad*%
%ADD16C,1.800000*%
%TD*%
%TA.AperFunction,ViaPad*%
%ADD17C,0.600000*%
%TD*%
%TA.AperFunction,Conductor*%
%ADD18C,0.200000*%
%TD*%
%TA.AperFunction,Conductor*%
%ADD19C,0.400000*%
%TD*%
G04 APERTURE END LIST*
D10*
%TO.N,GND*%
%TO.C,J6*%
X73400000Y-65700000D03*
D11*
X76100000Y-66700000D03*
X76100000Y-71700000D03*
D10*
X73400000Y-72700000D03*
%TD*%
D12*
%TO.N,/P0.05A*%
%TO.C,J12*%
X74365000Y-90700000D03*
D13*
%TO.N,/P0.04A*%
X74365000Y-88160000D03*
%TO.N,/P0.28A\u002A*%
X74365000Y-85620000D03*
%TO.N,/P0.26*%
X74365000Y-83080000D03*
%TO.N,GND*%
X74365000Y-80540000D03*
%TO.N,/Power/PPMOD_VDD*%
X74365000Y-78000000D03*
%TO.N,/I/O/PMOD5_VDD_HV*%
X74365000Y-75460000D03*
%TD*%
D12*
%TO.N,Net-(J3-Pin_1)*%
%TO.C,J3*%
X79575000Y-72750000D03*
D13*
%TO.N,VBUS*%
X79575000Y-70210000D03*
%TO.N,VDD*%
X82115000Y-72750000D03*
%TO.N,VDD_HV*%
X82115000Y-70210000D03*
%TO.N,/Power/PPMOD_VDD*%
X84655000Y-72750000D03*
%TO.N,/I/O/PMOD5_VDD_HV*%
X84655000Y-70210000D03*
%TD*%
D12*
%TO.N,/P0.03A\u002A*%
%TO.C,J4*%
X91630000Y-85875000D03*
D13*
%TO.N,/P0.17*%
X89090000Y-85875000D03*
%TO.N,/P0.22*%
X86550000Y-85875000D03*
%TO.N,/P0.27*%
X84010000Y-85875000D03*
%TO.N,GND*%
X81470000Y-85875000D03*
%TO.N,VDD*%
X78930000Y-85875000D03*
%TO.N,/P1.14\u002A*%
X91630000Y-88415000D03*
%TO.N,/P1.13\u002A*%
X89090000Y-88415000D03*
%TO.N,/P1.11\u002A*%
X86550000Y-88415000D03*
%TO.N,/P1.12\u002A*%
X84010000Y-88415000D03*
%TO.N,GND*%
X81470000Y-88415000D03*
%TO.N,VDD*%
X78930000Y-88415000D03*
%TD*%
D12*
%TO.N,/P0.31A\u002A*%
%TO.C,J2*%
X137350000Y-85875000D03*
D13*
%TO.N,/P0.14*%
X134810000Y-85875000D03*
%TO.N,/P0.12*%
X132270000Y-85875000D03*
%TO.N,/P0.15*%
X129730000Y-85875000D03*
%TO.N,GND*%
X127190000Y-85875000D03*
%TO.N,VDD*%
X124650000Y-85875000D03*
%TO.N,/P1.02\u002A*%
X137350000Y-88415000D03*
%TO.N,/P1.05\u002A*%
X134810000Y-88415000D03*
%TO.N,/P0.25*%
X132270000Y-88415000D03*
%TO.N,/P1.01\u002A*%
X129730000Y-88415000D03*
%TO.N,GND*%
X127190000Y-88415000D03*
%TO.N,VDD*%
X124650000Y-88415000D03*
%TD*%
D12*
%TO.N,/P0.30A\u002A*%
%TO.C,J1*%
X126445000Y-69619000D03*
D13*
%TO.N,/P0.20*%
X126445000Y-72159000D03*
%TO.N,/P0.21*%
X126445000Y-74699000D03*
%TO.N,/P1.09*%
X126445000Y-77239000D03*
%TO.N,GND*%
X126445000Y-79779000D03*
%TO.N,/I/O/VDD_PMOD1*%
X126445000Y-82319000D03*
%TO.N,/P0.29A\u002A*%
X128985000Y-69619000D03*
%TO.N,/P0.11*%
X128985000Y-72159000D03*
%TO.N,/P0.23*%
X128985000Y-74699000D03*
%TO.N,/P0.19*%
X128985000Y-77239000D03*
%TO.N,GND*%
X128985000Y-79779000D03*
%TO.N,/I/O/VDD_PMOD1*%
X128985000Y-82319000D03*
%TD*%
D12*
%TO.N,GND*%
%TO.C,J7*%
X97225000Y-80540000D03*
D13*
%TO.N,unconnected-(J7-Pin_2-Pad2)*%
X97225000Y-83080000D03*
%TD*%
D12*
%TO.N,/P0.02A\u002A*%
%TO.C,J5*%
X114490000Y-85875000D03*
D13*
%TO.N,/P0.08*%
X111950000Y-85875000D03*
%TO.N,/P0.07*%
X109410000Y-85875000D03*
%TO.N,/P1.08*%
X106870000Y-85875000D03*
%TO.N,GND*%
X104330000Y-85875000D03*
%TO.N,VDD*%
X101790000Y-85875000D03*
%TO.N,/P1.03\u002A*%
X114490000Y-88415000D03*
%TO.N,/P1.15\u002A*%
X111950000Y-88415000D03*
%TO.N,/P1.06\u002A*%
X109410000Y-88415000D03*
%TO.N,/P1.10\u002A*%
X106870000Y-88415000D03*
%TO.N,GND*%
X104330000Y-88415000D03*
%TO.N,VDD*%
X101790000Y-88415000D03*
%TD*%
D14*
%TO.N,GND*%
%TO.C,H3*%
X120000000Y-89500000D03*
%TD*%
%TO.N,GND*%
%TO.C,H1*%
X134800000Y-65600000D03*
%TD*%
%TO.N,GND*%
%TO.C,H2*%
X97000000Y-89500000D03*
%TD*%
D12*
%TO.N,/NFC1*%
%TO.C,J11*%
X93725000Y-71500000D03*
D13*
%TO.N,/NFC2*%
X91185000Y-71500000D03*
%TD*%
D15*
%TO.N,/Power/PPMOD_VDD*%
%TO.C,BT1*%
X77250000Y-77400000D03*
D16*
%TO.N,GND*%
X97250000Y-77400000D03*
%TD*%
D17*
%TO.N,GND*%
X114800000Y-80800000D03*
X89600000Y-91500000D03*
X104300000Y-68550000D03*
X87000000Y-75300000D03*
X92500000Y-67700000D03*
X112750000Y-76700000D03*
X132200000Y-69500000D03*
X89500000Y-65500000D03*
X131200000Y-82900000D03*
X88800000Y-72600000D03*
X81000000Y-67500000D03*
X138500000Y-89400000D03*
X106900000Y-77500000D03*
X124600000Y-91500000D03*
X132800000Y-74700000D03*
X78500000Y-66100000D03*
X76600000Y-91200000D03*
X117300000Y-75950000D03*
X95600000Y-76700000D03*
X82300000Y-75300000D03*
X110700000Y-66850000D03*
X77800000Y-79700000D03*
X95200000Y-71900000D03*
X123900000Y-67400000D03*
X123500000Y-65475000D03*
X133000000Y-80000000D03*
X110900000Y-91500000D03*
X135300000Y-77400000D03*
X107300000Y-91500000D03*
X136400000Y-91500000D03*
X94300000Y-83200000D03*
X83500000Y-65500000D03*
X94700000Y-72900000D03*
X138400000Y-68800000D03*
X110250000Y-80300000D03*
X90540000Y-75550000D03*
X72700000Y-90500000D03*
X72800000Y-75500000D03*
X95500000Y-65500000D03*
X85900000Y-91500000D03*
X79800000Y-91300000D03*
X130100000Y-91500000D03*
X99000000Y-76300000D03*
X93800000Y-79600000D03*
X89500000Y-67500000D03*
X118000000Y-73550000D03*
X86500000Y-65500000D03*
X124000000Y-73200000D03*
X98000000Y-65500000D03*
X81000000Y-65500000D03*
X138400000Y-71700000D03*
X138400000Y-79800000D03*
X88100000Y-69500000D03*
X91800000Y-81800000D03*
X103550000Y-67150000D03*
X92500000Y-65500000D03*
X135600000Y-82300000D03*
X77400000Y-74500000D03*
X104000000Y-91500000D03*
X115300000Y-91500000D03*
X110700000Y-65550000D03*
X82700000Y-91400000D03*
X108050000Y-67150000D03*
X101400000Y-91400000D03*
X134800000Y-72300000D03*
X138400000Y-77100000D03*
X80290000Y-78270000D03*
X101200000Y-66824500D03*
X72600000Y-85700000D03*
X92900000Y-91300000D03*
X83500000Y-67500000D03*
X86000000Y-78800000D03*
X138500000Y-65700000D03*
X105700000Y-81200000D03*
X138400000Y-84100000D03*
X138400000Y-74500000D03*
X133600000Y-91500000D03*
X127400000Y-66100000D03*
X114300000Y-74000000D03*
X97700000Y-75700000D03*
X86500000Y-67500000D03*
X103100000Y-80500000D03*
%TO.N,/Microcontroller/SWDCLK*%
X114500000Y-67750000D03*
X121252920Y-77989300D03*
%TO.N,/Microcontroller/SWDIO*%
X114550000Y-66700000D03*
X120950000Y-79700000D03*
X117900000Y-69400000D03*
%TO.N,VBUS*%
X111950000Y-76600000D03*
%TO.N,/USB_D+*%
X77468416Y-69300000D03*
X108800000Y-72200000D03*
%TO.N,/USB_D-*%
X77468416Y-68450000D03*
X108800000Y-73400000D03*
%TO.N,/P1.09*%
X111035932Y-71608441D03*
%TO.N,/P0.23*%
X110350000Y-69800000D03*
%TO.N,/P0.21*%
X110950000Y-70400000D03*
%TO.N,/P0.19*%
X110400000Y-71000000D03*
%TO.N,/P0.22*%
X88600000Y-83900000D03*
X105800000Y-71000000D03*
%TO.N,/P0.25*%
X105800000Y-69800000D03*
%TO.N,/P0.27*%
X101020000Y-68300000D03*
%TO.N,/P0.06*%
X104300000Y-73400000D03*
%TO.N,/P0.26*%
X100100000Y-67200000D03*
%TO.N,/P0.24*%
X137650000Y-66799500D03*
X110355968Y-68599500D03*
%TO.N,/P0.20*%
X110950000Y-69200000D03*
%TO.N,/P0.17*%
X105800000Y-72200000D03*
%TO.N,/P0.15*%
X105800000Y-73400000D03*
%TO.N,/P0.14*%
X107300000Y-73400000D03*
%TO.N,/P0.16*%
X107300000Y-72200000D03*
%TO.N,/P1.11\u002A*%
X102750000Y-68550000D03*
%TO.N,/P0.02A\u002A*%
X100050000Y-80850000D03*
%TO.N,/P0.28A\u002A*%
X102800000Y-69800000D03*
%TO.N,/P0.29A\u002A*%
X116700000Y-73900000D03*
X104300000Y-69800000D03*
%TO.N,/P0.30A\u002A*%
X115200000Y-74000000D03*
X104300000Y-71000000D03*
%TO.N,/P0.31A\u002A*%
X104300000Y-72200000D03*
%TO.N,/P0.04A*%
X90700000Y-73600000D03*
X102800000Y-71000000D03*
%TO.N,/P0.05A*%
X102800000Y-72200000D03*
X91900000Y-73600000D03*
%TO.N,/P1.12\u002A*%
X100150000Y-69200000D03*
%TO.N,/P1.07\u002A*%
X131600000Y-66200000D03*
X110950500Y-68000000D03*
%TO.N,VDD*%
X116550000Y-79500000D03*
X119600000Y-69400000D03*
X117700000Y-88000000D03*
%TO.N,/Microcontroller/P0.18_~{RESET}*%
X120950000Y-74650000D03*
X118800000Y-69900000D03*
%TO.N,VDD_HV*%
X113000000Y-80300000D03*
%TO.N,/I/O/VDD_PMOD1*%
X120900000Y-85800000D03*
%TO.N,/Microcontroller/P1.00_SWO*%
X112850000Y-65900000D03*
X120950000Y-77200000D03*
%TD*%
D18*
%TO.N,/Microcontroller/SWDCLK*%
X114500000Y-67750000D02*
X114500000Y-69300000D01*
X121550000Y-76765686D02*
X121550000Y-77692220D01*
X121550000Y-77692220D02*
X121252920Y-77989300D01*
X119800000Y-75015685D02*
X121550000Y-76765686D01*
X115450000Y-70250000D02*
X117634314Y-70250000D01*
X117634314Y-70250000D02*
X119800000Y-72415686D01*
X119800000Y-72415686D02*
X119800000Y-75015685D01*
X114500000Y-69300000D02*
X115450000Y-70250000D01*
%TO.N,/Microcontroller/SWDIO*%
X121950000Y-76600000D02*
X120200000Y-74850000D01*
X121950000Y-78700000D02*
X121950000Y-76600000D01*
X120200000Y-74850000D02*
X120200000Y-72250000D01*
X120950000Y-79700000D02*
X121950000Y-78700000D01*
X120200000Y-72250000D02*
X117900000Y-69950000D01*
X117900000Y-69950000D02*
X117900000Y-69400000D01*
%TO.N,VBUS*%
X86800000Y-72592894D02*
X88507106Y-74300000D01*
X85800000Y-68200000D02*
X86800000Y-69200000D01*
X79575000Y-70210000D02*
X81585000Y-68200000D01*
X103200000Y-75200000D02*
X110550000Y-75200000D01*
X88507106Y-74300000D02*
X102300000Y-74300000D01*
X102300000Y-74300000D02*
X103200000Y-75200000D01*
X81585000Y-68200000D02*
X85800000Y-68200000D01*
X110550000Y-75200000D02*
X111950000Y-76600000D01*
X86800000Y-69200000D02*
X86800000Y-72592894D01*
%TO.N,/P0.02A\u002A*%
X103400000Y-84200000D02*
X100050000Y-80850000D01*
X103400000Y-84200000D02*
X112815000Y-84200000D01*
X114490000Y-85875000D02*
X112815000Y-84200000D01*
%TO.N,/P0.29A\u002A*%
X105100000Y-70600000D02*
X105100000Y-74000000D01*
X105100000Y-74000000D02*
X105500000Y-74400000D01*
X116100000Y-73300000D02*
X116700000Y-73900000D01*
X113700000Y-73300000D02*
X116100000Y-73300000D01*
X105500000Y-74400000D02*
X112600000Y-74400000D01*
X105100000Y-70600000D02*
X104300000Y-69800000D01*
X112600000Y-74400000D02*
X113700000Y-73300000D01*
%TO.N,/P0.30A\u002A*%
X114400000Y-74800000D02*
X115200000Y-74000000D01*
X103600000Y-71700000D02*
X103600000Y-74000000D01*
X104400000Y-74800000D02*
X114400000Y-74800000D01*
X103600000Y-74000000D02*
X104400000Y-74800000D01*
X104300000Y-71000000D02*
X103600000Y-71700000D01*
%TO.N,/P0.04A*%
X92200000Y-73000000D02*
X91300000Y-73000000D01*
X92700000Y-73500000D02*
X92200000Y-73000000D01*
X102800000Y-71000000D02*
X100300000Y-73500000D01*
X100300000Y-73500000D02*
X92700000Y-73500000D01*
X91300000Y-73000000D02*
X90700000Y-73600000D01*
%TO.N,/P0.05A*%
X92200000Y-73900000D02*
X101100000Y-73900000D01*
X91900000Y-73600000D02*
X92200000Y-73900000D01*
X101100000Y-73900000D02*
X102800000Y-72200000D01*
%TO.N,VDD*%
X121000000Y-71918628D02*
X119600000Y-70518628D01*
X116550000Y-79500000D02*
X119700000Y-79500000D01*
D19*
X101807000Y-88415000D02*
X99915000Y-88415000D01*
D18*
X119600000Y-70518628D02*
X119600000Y-69400000D01*
X121000000Y-73700000D02*
X121000000Y-71918628D01*
X119700000Y-79500000D02*
X120800000Y-80600000D01*
D19*
X118800000Y-86900000D02*
X116550000Y-84650000D01*
X81215000Y-90700000D02*
X78930000Y-88415000D01*
X101790000Y-85875000D02*
X101790000Y-88415000D01*
X78930000Y-75935000D02*
X82115000Y-72750000D01*
X122300000Y-86900000D02*
X123325000Y-85875000D01*
X103892000Y-90500000D02*
X101807000Y-88415000D01*
X117700000Y-88000000D02*
X115200000Y-90500000D01*
X124650000Y-88415000D02*
X124650000Y-85875000D01*
X78930000Y-85875000D02*
X78930000Y-88415000D01*
D18*
X122350000Y-79550000D02*
X122350000Y-75050000D01*
D19*
X116550000Y-84650000D02*
X116550000Y-79500000D01*
D18*
X122350000Y-75050000D02*
X121000000Y-73700000D01*
D19*
X81215000Y-90700000D02*
X91900000Y-90700000D01*
X118800000Y-86900000D02*
X122300000Y-86900000D01*
X99915000Y-88415000D02*
X98300000Y-86800000D01*
X78930000Y-75935000D02*
X78930000Y-85875000D01*
X98300000Y-86800000D02*
X95800000Y-86800000D01*
X95800000Y-86800000D02*
X91900000Y-90700000D01*
X115200000Y-90500000D02*
X103892000Y-90500000D01*
D18*
X120800000Y-80600000D02*
X121300000Y-80600000D01*
X121300000Y-80600000D02*
X122350000Y-79550000D01*
D19*
X118800000Y-86900000D02*
X117700000Y-88000000D01*
X123325000Y-85875000D02*
X124650000Y-85875000D01*
D18*
%TO.N,/Microcontroller/P0.18_~{RESET}*%
X118800000Y-70284314D02*
X118800000Y-69900000D01*
X120600000Y-72084314D02*
X118800000Y-70284314D01*
X120600000Y-74300000D02*
X120600000Y-72084314D01*
X120950000Y-74650000D02*
X120600000Y-74300000D01*
D19*
%TO.N,VDD_HV*%
X85500000Y-68700000D02*
X86300000Y-69500000D01*
X86300000Y-72800000D02*
X88300000Y-74800000D01*
X82115000Y-70210000D02*
X83625000Y-68700000D01*
X83625000Y-68700000D02*
X85500000Y-68700000D01*
X113000000Y-78650000D02*
X113000000Y-80300000D01*
X110050000Y-75700000D02*
X113000000Y-78650000D01*
X86300000Y-69500000D02*
X86300000Y-72800000D01*
X102000000Y-74800000D02*
X102900000Y-75700000D01*
X88300000Y-74800000D02*
X102000000Y-74800000D01*
X102900000Y-75700000D02*
X110050000Y-75700000D01*
%TO.N,/I/O/VDD_PMOD1*%
X125281000Y-82319000D02*
X126445000Y-82319000D01*
X126445000Y-82319000D02*
X128985000Y-82319000D01*
X121800000Y-85800000D02*
X125281000Y-82319000D01*
X120900000Y-85800000D02*
X121800000Y-85800000D01*
D18*
%TO.N,/Microcontroller/P1.00_SWO*%
X119400000Y-75650000D02*
X119400000Y-72581372D01*
X120950000Y-77200000D02*
X119400000Y-75650000D01*
X115284314Y-70650000D02*
X113750000Y-69115686D01*
X117468628Y-70650000D02*
X115284314Y-70650000D01*
X113750000Y-66800000D02*
X112850000Y-65900000D01*
X119400000Y-72581372D02*
X117468628Y-70650000D01*
X113750000Y-69115686D02*
X113750000Y-66800000D01*
%TD*%
%TA.AperFunction,Conductor*%
%TO.N,GND*%
G36*
X114736367Y-73619407D02*
G01*
X114772331Y-73668907D01*
X114772331Y-73730093D01*
X114768229Y-73740627D01*
X114714834Y-73857543D01*
X114694353Y-73999996D01*
X114694353Y-73999997D01*
X114694353Y-74000000D01*
X114695937Y-74011016D01*
X114697442Y-74021483D01*
X114687007Y-74081772D01*
X114669453Y-74105574D01*
X114304526Y-74470503D01*
X114250009Y-74498281D01*
X114234522Y-74499500D01*
X113164479Y-74499500D01*
X113106288Y-74480593D01*
X113070324Y-74431093D01*
X113070324Y-74369907D01*
X113094475Y-74330496D01*
X113795475Y-73629496D01*
X113849992Y-73601719D01*
X113865479Y-73600500D01*
X114678176Y-73600500D01*
X114736367Y-73619407D01*
G37*
%TD.AperFunction*%
%TA.AperFunction,Conductor*%
G36*
X72689629Y-65018907D02*
G01*
X72725593Y-65068407D01*
X72725593Y-65129593D01*
X72689629Y-65179092D01*
X72624960Y-65226077D01*
X72624959Y-65226078D01*
X72521079Y-65351645D01*
X72451692Y-65499102D01*
X72451691Y-65499104D01*
X72451520Y-65499999D01*
X72451521Y-65500000D01*
X72924333Y-65500000D01*
X72894760Y-65519760D01*
X72839505Y-65602455D01*
X72820102Y-65700000D01*
X72839505Y-65797545D01*
X72894760Y-65880240D01*
X72924333Y-65900000D01*
X72456791Y-65900000D01*
X72481748Y-65976812D01*
X72569064Y-66114399D01*
X72569070Y-66114406D01*
X72687865Y-66225963D01*
X72830670Y-66304471D01*
X72988516Y-66344999D01*
X72988519Y-66345000D01*
X73199999Y-66345000D01*
X73200000Y-66344999D01*
X73200000Y-65950000D01*
X73600000Y-65950000D01*
X73600000Y-66344999D01*
X73600001Y-66345000D01*
X73770576Y-66345000D01*
X73891675Y-66329702D01*
X73891681Y-66329700D01*
X74043198Y-66269710D01*
X74043209Y-66269704D01*
X74175039Y-66173922D01*
X74175040Y-66173921D01*
X74278920Y-66048354D01*
X74348307Y-65900897D01*
X74348308Y-65900895D01*
X74348480Y-65900000D01*
X73875667Y-65900000D01*
X73905240Y-65880240D01*
X73960495Y-65797545D01*
X73979898Y-65700000D01*
X73960495Y-65602455D01*
X73905240Y-65519760D01*
X73875667Y-65500000D01*
X74343209Y-65500000D01*
X74343208Y-65499999D01*
X74318251Y-65423187D01*
X74230935Y-65285600D01*
X74230929Y-65285593D01*
X74109080Y-65171168D01*
X74079603Y-65117550D01*
X74087272Y-65056847D01*
X74129157Y-65012245D01*
X74176850Y-65000000D01*
X98800000Y-65000000D01*
X112800000Y-65000000D01*
X114654529Y-65000000D01*
X114712720Y-65018907D01*
X114748684Y-65068407D01*
X114752179Y-65115295D01*
X114722050Y-65295847D01*
X114722050Y-65534152D01*
X114761273Y-65769204D01*
X114838652Y-65994600D01*
X114901053Y-66109906D01*
X114912120Y-66170082D01*
X114885703Y-66225271D01*
X114831892Y-66254392D01*
X114771241Y-66246322D01*
X114760467Y-66240312D01*
X114760061Y-66240051D01*
X114760054Y-66240048D01*
X114760053Y-66240047D01*
X114760050Y-66240046D01*
X114621964Y-66199500D01*
X114621961Y-66199500D01*
X114478039Y-66199500D01*
X114478035Y-66199500D01*
X114339949Y-66240046D01*
X114339942Y-66240049D01*
X114218873Y-66317855D01*
X114124621Y-66426628D01*
X114082583Y-66518678D01*
X114041210Y-66563756D01*
X113981243Y-66575906D01*
X113925588Y-66550487D01*
X113922526Y-66547555D01*
X113380546Y-66005575D01*
X113352769Y-65951058D01*
X113352558Y-65921482D01*
X113355647Y-65900000D01*
X113353722Y-65886614D01*
X113335165Y-65757543D01*
X113327174Y-65740046D01*
X113275377Y-65626627D01*
X113181128Y-65517857D01*
X113181127Y-65517856D01*
X113181126Y-65517855D01*
X113060057Y-65440049D01*
X113060054Y-65440047D01*
X113060053Y-65440047D01*
X113060050Y-65440046D01*
X112921964Y-65399500D01*
X112921961Y-65399500D01*
X112778039Y-65399500D01*
X112778035Y-65399500D01*
X112639949Y-65440046D01*
X112639942Y-65440049D01*
X112518873Y-65517855D01*
X112424622Y-65626628D01*
X112364834Y-65757543D01*
X112344353Y-65899997D01*
X112344353Y-65900000D01*
X112364834Y-66042456D01*
X112395638Y-66109906D01*
X112424623Y-66173373D01*
X112494826Y-66254392D01*
X112518873Y-66282144D01*
X112627161Y-66351736D01*
X112639947Y-66359953D01*
X112732971Y-66387267D01*
X112778035Y-66400499D01*
X112778036Y-66400499D01*
X112778039Y-66400500D01*
X112778041Y-66400500D01*
X112884521Y-66400500D01*
X112942712Y-66419407D01*
X112954524Y-66429496D01*
X113420503Y-66895474D01*
X113448281Y-66949991D01*
X113449500Y-66965478D01*
X113449500Y-69050521D01*
X113447280Y-69064199D01*
X113448494Y-69064369D01*
X113447226Y-69073452D01*
X113448940Y-69110512D01*
X113449351Y-69119407D01*
X113449447Y-69121469D01*
X113449500Y-69123755D01*
X113449500Y-69143528D01*
X113450152Y-69147018D01*
X113450943Y-69153835D01*
X113452414Y-69185673D01*
X113452415Y-69185680D01*
X113456384Y-69194668D01*
X113463133Y-69216459D01*
X113464939Y-69226119D01*
X113481717Y-69253219D01*
X113484915Y-69259286D01*
X113496592Y-69285730D01*
X113497794Y-69288451D01*
X113504745Y-69295402D01*
X113518907Y-69313282D01*
X113523461Y-69320637D01*
X113524081Y-69321638D01*
X113549511Y-69340842D01*
X113554690Y-69345348D01*
X115025751Y-70816409D01*
X115033851Y-70827648D01*
X115034830Y-70826909D01*
X115040355Y-70834226D01*
X115040356Y-70834228D01*
X115068571Y-70859950D01*
X115075873Y-70866606D01*
X115077525Y-70868184D01*
X115091514Y-70882172D01*
X115091517Y-70882175D01*
X115093768Y-70883717D01*
X115094444Y-70884180D01*
X115099826Y-70888443D01*
X115113051Y-70900499D01*
X115123381Y-70909916D01*
X115132542Y-70913464D01*
X115152730Y-70924105D01*
X115160834Y-70929657D01*
X115191872Y-70936957D01*
X115198410Y-70938982D01*
X115228141Y-70950500D01*
X115237966Y-70950500D01*
X115260630Y-70953129D01*
X115270195Y-70955379D01*
X115294808Y-70951945D01*
X115301767Y-70950975D01*
X115308613Y-70950500D01*
X117303149Y-70950500D01*
X117361340Y-70969407D01*
X117373153Y-70979496D01*
X119070503Y-72676846D01*
X119098280Y-72731363D01*
X119099499Y-72746850D01*
X119099500Y-75584835D01*
X119097280Y-75598513D01*
X119098494Y-75598683D01*
X119097226Y-75607766D01*
X119099447Y-75655783D01*
X119099500Y-75658069D01*
X119099500Y-75677842D01*
X119100152Y-75681332D01*
X119100943Y-75688149D01*
X119102414Y-75719987D01*
X119102415Y-75719994D01*
X119106384Y-75728982D01*
X119113132Y-75750772D01*
X119113845Y-75754583D01*
X119114939Y-75760433D01*
X119131717Y-75787533D01*
X119134915Y-75793600D01*
X119142021Y-75809691D01*
X119147794Y-75822765D01*
X119154745Y-75829716D01*
X119168907Y-75847596D01*
X119169544Y-75848624D01*
X119174081Y-75855952D01*
X119199511Y-75875156D01*
X119204690Y-75879662D01*
X120419453Y-77094424D01*
X120447230Y-77148941D01*
X120447442Y-77178515D01*
X120444353Y-77200002D01*
X120464834Y-77342456D01*
X120491114Y-77399999D01*
X120524623Y-77473373D01*
X120593374Y-77552716D01*
X120618873Y-77582144D01*
X120651309Y-77602989D01*
X120739947Y-77659953D01*
X120739955Y-77659955D01*
X120743519Y-77661583D01*
X120788598Y-77702953D01*
X120800752Y-77762919D01*
X120792451Y-77792764D01*
X120767754Y-77846843D01*
X120747273Y-77989297D01*
X120747273Y-77989302D01*
X120767754Y-78131756D01*
X120801631Y-78205934D01*
X120827543Y-78262673D01*
X120921792Y-78371443D01*
X120921793Y-78371444D01*
X121042862Y-78449250D01*
X121042867Y-78449253D01*
X121133722Y-78475930D01*
X121180955Y-78489799D01*
X121180956Y-78489799D01*
X121180959Y-78489800D01*
X121180961Y-78489800D01*
X121324879Y-78489800D01*
X121324881Y-78489800D01*
X121462973Y-78449253D01*
X121496977Y-78427399D01*
X121556151Y-78411845D01*
X121613168Y-78434044D01*
X121646247Y-78485516D01*
X121649500Y-78510684D01*
X121649500Y-78534520D01*
X121630593Y-78592711D01*
X121620504Y-78604524D01*
X121054524Y-79170504D01*
X121000007Y-79198281D01*
X120984520Y-79199500D01*
X120878035Y-79199500D01*
X120739949Y-79240046D01*
X120739942Y-79240049D01*
X120618873Y-79317855D01*
X120524622Y-79426628D01*
X120464834Y-79557543D01*
X120457492Y-79608610D01*
X120430496Y-79663518D01*
X120376382Y-79692071D01*
X120315819Y-79683363D01*
X120289496Y-79664525D01*
X119958565Y-79333594D01*
X119950479Y-79322344D01*
X119949487Y-79323094D01*
X119943958Y-79315772D01*
X119943957Y-79315772D01*
X119908423Y-79283377D01*
X119906775Y-79281804D01*
X119892797Y-79267826D01*
X119889859Y-79265813D01*
X119884496Y-79261564D01*
X119860933Y-79240084D01*
X119851762Y-79236531D01*
X119831586Y-79225895D01*
X119823484Y-79220345D01*
X119823479Y-79220343D01*
X119792457Y-79213046D01*
X119785902Y-79211016D01*
X119756177Y-79199501D01*
X119756174Y-79199500D01*
X119756173Y-79199500D01*
X119756172Y-79199500D01*
X119746348Y-79199500D01*
X119723683Y-79196870D01*
X119714119Y-79194621D01*
X119714118Y-79194621D01*
X119682547Y-79199025D01*
X119675701Y-79199500D01*
X116997083Y-79199500D01*
X116938892Y-79180593D01*
X116922264Y-79165331D01*
X116881128Y-79117857D01*
X116784228Y-79055583D01*
X116760057Y-79040049D01*
X116760054Y-79040047D01*
X116760053Y-79040047D01*
X116760050Y-79040046D01*
X116621964Y-78999500D01*
X116621961Y-78999500D01*
X116478039Y-78999500D01*
X116478035Y-78999500D01*
X116339949Y-79040046D01*
X116339942Y-79040049D01*
X116218873Y-79117855D01*
X116124622Y-79226628D01*
X116064834Y-79357543D01*
X116044353Y-79499997D01*
X116044353Y-79500002D01*
X116064834Y-79642455D01*
X116064833Y-79642455D01*
X116124623Y-79773373D01*
X116125316Y-79774173D01*
X116125660Y-79774989D01*
X116128453Y-79779334D01*
X116127701Y-79779816D01*
X116149136Y-79830531D01*
X116149500Y-79839008D01*
X116149500Y-84713437D01*
X116156953Y-84736374D01*
X116160579Y-84751474D01*
X116164354Y-84775306D01*
X116175301Y-84796788D01*
X116181247Y-84811142D01*
X116188703Y-84834088D01*
X116188702Y-84834088D01*
X116202884Y-84853608D01*
X116210997Y-84866847D01*
X116221950Y-84888342D01*
X116221951Y-84888343D01*
X116242030Y-84908423D01*
X116242031Y-84908423D01*
X116244513Y-84910905D01*
X116244516Y-84910909D01*
X118163604Y-86829997D01*
X118191380Y-86884512D01*
X118181809Y-86944944D01*
X118163603Y-86970003D01*
X117654496Y-87479110D01*
X117612384Y-87504096D01*
X117489947Y-87540047D01*
X117489942Y-87540049D01*
X117368873Y-87617855D01*
X117274622Y-87726628D01*
X117214834Y-87857543D01*
X117209242Y-87896437D01*
X117182246Y-87951344D01*
X117181254Y-87952351D01*
X115063103Y-90070504D01*
X115008586Y-90098281D01*
X114993099Y-90099500D01*
X104098900Y-90099500D01*
X104040709Y-90080593D01*
X104028896Y-90070504D01*
X102810009Y-88851616D01*
X102782232Y-88797099D01*
X102785275Y-88752875D01*
X102825300Y-88620934D01*
X102825300Y-88620930D01*
X102825301Y-88620929D01*
X102825885Y-88615000D01*
X103294617Y-88615000D01*
X103295192Y-88620834D01*
X103295194Y-88620844D01*
X103355232Y-88818762D01*
X103355234Y-88818767D01*
X103452724Y-89001160D01*
X103452731Y-89001170D01*
X103583940Y-89161050D01*
X103583949Y-89161059D01*
X103743829Y-89292268D01*
X103743839Y-89292275D01*
X103926232Y-89389765D01*
X103926237Y-89389767D01*
X104124158Y-89449806D01*
X104124160Y-89449807D01*
X104130000Y-89450381D01*
X104130000Y-88873335D01*
X104187685Y-88899680D01*
X104294237Y-88915000D01*
X104365763Y-88915000D01*
X104472315Y-88899680D01*
X104530000Y-88873335D01*
X104530000Y-89450381D01*
X104535839Y-89449807D01*
X104535841Y-89449806D01*
X104733762Y-89389767D01*
X104733767Y-89389765D01*
X104916160Y-89292275D01*
X104916170Y-89292268D01*
X105076050Y-89161059D01*
X105076059Y-89161050D01*
X105207268Y-89001170D01*
X105207275Y-89001160D01*
X105304765Y-88818767D01*
X105304767Y-88818762D01*
X105364805Y-88620844D01*
X105364807Y-88620834D01*
X105365383Y-88615000D01*
X104792383Y-88615000D01*
X104830000Y-88486889D01*
X104830000Y-88415003D01*
X105814417Y-88415003D01*
X105834698Y-88620929D01*
X105834699Y-88620934D01*
X105894768Y-88818954D01*
X105992316Y-89001452D01*
X106123302Y-89161059D01*
X106123590Y-89161410D01*
X106123595Y-89161414D01*
X106283547Y-89292683D01*
X106283548Y-89292683D01*
X106283550Y-89292685D01*
X106466046Y-89390232D01*
X106587572Y-89427096D01*
X106664065Y-89450300D01*
X106664070Y-89450301D01*
X106869997Y-89470583D01*
X106870000Y-89470583D01*
X106870003Y-89470583D01*
X107075929Y-89450301D01*
X107075934Y-89450300D01*
X107077559Y-89449807D01*
X107273954Y-89390232D01*
X107456450Y-89292685D01*
X107616410Y-89161410D01*
X107747685Y-89001450D01*
X107845232Y-88818954D01*
X107905300Y-88620934D01*
X107905301Y-88620929D01*
X107925583Y-88415003D01*
X108354417Y-88415003D01*
X108374698Y-88620929D01*
X108374699Y-88620934D01*
X108434768Y-88818954D01*
X108532316Y-89001452D01*
X108663302Y-89161059D01*
X108663590Y-89161410D01*
X108663595Y-89161414D01*
X108823547Y-89292683D01*
X108823548Y-89292683D01*
X108823550Y-89292685D01*
X109006046Y-89390232D01*
X109127572Y-89427096D01*
X109204065Y-89450300D01*
X109204070Y-89450301D01*
X109409997Y-89470583D01*
X109410000Y-89470583D01*
X109410003Y-89470583D01*
X109615929Y-89450301D01*
X109615934Y-89450300D01*
X109617559Y-89449807D01*
X109813954Y-89390232D01*
X109996450Y-89292685D01*
X110156410Y-89161410D01*
X110287685Y-89001450D01*
X110385232Y-88818954D01*
X110445300Y-88620934D01*
X110445301Y-88620929D01*
X110465583Y-88415003D01*
X110894417Y-88415003D01*
X110914698Y-88620929D01*
X110914699Y-88620934D01*
X110974768Y-88818954D01*
X111072316Y-89001452D01*
X111203302Y-89161059D01*
X111203590Y-89161410D01*
X111203595Y-89161414D01*
X111363547Y-89292683D01*
X111363548Y-89292683D01*
X111363550Y-89292685D01*
X111546046Y-89390232D01*
X111667572Y-89427096D01*
X111744065Y-89450300D01*
X111744070Y-89450301D01*
X111949997Y-89470583D01*
X111950000Y-89470583D01*
X111950003Y-89470583D01*
X112155929Y-89450301D01*
X112155934Y-89450300D01*
X112157559Y-89449807D01*
X112353954Y-89390232D01*
X112536450Y-89292685D01*
X112696410Y-89161410D01*
X112827685Y-89001450D01*
X112925232Y-88818954D01*
X112985300Y-88620934D01*
X112985301Y-88620929D01*
X113005583Y-88415003D01*
X113434417Y-88415003D01*
X113454698Y-88620929D01*
X113454699Y-88620934D01*
X113514768Y-88818954D01*
X113612316Y-89001452D01*
X113743302Y-89161059D01*
X113743590Y-89161410D01*
X113743595Y-89161414D01*
X113903547Y-89292683D01*
X113903548Y-89292683D01*
X113903550Y-89292685D01*
X114086046Y-89390232D01*
X114207572Y-89427096D01*
X114284065Y-89450300D01*
X114284070Y-89450301D01*
X114489997Y-89470583D01*
X114490000Y-89470583D01*
X114490003Y-89470583D01*
X114695929Y-89450301D01*
X114695934Y-89450300D01*
X114697559Y-89449807D01*
X114893954Y-89390232D01*
X115076450Y-89292685D01*
X115236410Y-89161410D01*
X115367685Y-89001450D01*
X115465232Y-88818954D01*
X115525300Y-88620934D01*
X115525301Y-88620929D01*
X115545583Y-88415003D01*
X115545583Y-88414996D01*
X115525301Y-88209070D01*
X115525300Y-88209065D01*
X115483402Y-88070946D01*
X115465232Y-88011046D01*
X115367685Y-87828550D01*
X115318825Y-87769014D01*
X115236414Y-87668595D01*
X115236410Y-87668590D01*
X115190706Y-87631082D01*
X115076452Y-87537316D01*
X114893954Y-87439768D01*
X114695934Y-87379699D01*
X114695929Y-87379698D01*
X114490003Y-87359417D01*
X114489997Y-87359417D01*
X114284070Y-87379698D01*
X114284065Y-87379699D01*
X114086045Y-87439768D01*
X113903547Y-87537316D01*
X113743595Y-87668585D01*
X113743585Y-87668595D01*
X113612316Y-87828547D01*
X113514768Y-88011045D01*
X113454699Y-88209065D01*
X113454698Y-88209070D01*
X113434417Y-88414996D01*
X113434417Y-88415003D01*
X113005583Y-88415003D01*
X113005583Y-88414996D01*
X112985301Y-88209070D01*
X112985300Y-88209065D01*
X112943402Y-88070946D01*
X112925232Y-88011046D01*
X112827685Y-87828550D01*
X112778825Y-87769014D01*
X112696414Y-87668595D01*
X112696410Y-87668590D01*
X112650706Y-87631082D01*
X112536452Y-87537316D01*
X112353954Y-87439768D01*
X112155934Y-87379699D01*
X112155929Y-87379698D01*
X111950003Y-87359417D01*
X111949997Y-87359417D01*
X111744070Y-87379698D01*
X111744065Y-87379699D01*
X111546045Y-87439768D01*
X111363547Y-87537316D01*
X111203595Y-87668585D01*
X111203585Y-87668595D01*
X111072316Y-87828547D01*
X110974768Y-88011045D01*
X110914699Y-88209065D01*
X110914698Y-88209070D01*
X110894417Y-88414996D01*
X110894417Y-88415003D01*
X110465583Y-88415003D01*
X110465583Y-88414996D01*
X110445301Y-88209070D01*
X110445300Y-88209065D01*
X110403402Y-88070946D01*
X110385232Y-88011046D01*
X110287685Y-87828550D01*
X110238825Y-87769014D01*
X110156414Y-87668595D01*
X110156410Y-87668590D01*
X110110706Y-87631082D01*
X109996452Y-87537316D01*
X109813954Y-87439768D01*
X109615934Y-87379699D01*
X109615929Y-87379698D01*
X109410003Y-87359417D01*
X109409997Y-87359417D01*
X109204070Y-87379698D01*
X109204065Y-87379699D01*
X109006045Y-87439768D01*
X108823547Y-87537316D01*
X108663595Y-87668585D01*
X108663585Y-87668595D01*
X108532316Y-87828547D01*
X108434768Y-88011045D01*
X108374699Y-88209065D01*
X108374698Y-88209070D01*
X108354417Y-88414996D01*
X108354417Y-88415003D01*
X107925583Y-88415003D01*
X107925583Y-88414996D01*
X107905301Y-88209070D01*
X107905300Y-88209065D01*
X107863402Y-88070946D01*
X107845232Y-88011046D01*
X107747685Y-87828550D01*
X107698825Y-87769014D01*
X107616414Y-87668595D01*
X107616410Y-87668590D01*
X107570706Y-87631082D01*
X107456452Y-87537316D01*
X107273954Y-87439768D01*
X107075934Y-87379699D01*
X107075929Y-87379698D01*
X106870003Y-87359417D01*
X106869997Y-87359417D01*
X106664070Y-87379698D01*
X106664065Y-87379699D01*
X106466045Y-87439768D01*
X106283547Y-87537316D01*
X106123595Y-87668585D01*
X106123585Y-87668595D01*
X105992316Y-87828547D01*
X105894768Y-88011045D01*
X105834699Y-88209065D01*
X105834698Y-88209070D01*
X105814417Y-88414996D01*
X105814417Y-88415003D01*
X104830000Y-88415003D01*
X104830000Y-88343111D01*
X104792383Y-88215000D01*
X105365382Y-88215000D01*
X105364807Y-88209165D01*
X105364805Y-88209155D01*
X105304767Y-88011237D01*
X105304765Y-88011232D01*
X105207275Y-87828839D01*
X105207268Y-87828829D01*
X105076059Y-87668949D01*
X105076050Y-87668940D01*
X104916170Y-87537731D01*
X104916160Y-87537724D01*
X104733767Y-87440234D01*
X104733762Y-87440232D01*
X104535844Y-87380194D01*
X104535834Y-87380192D01*
X104530000Y-87379617D01*
X104530000Y-87956664D01*
X104472315Y-87930320D01*
X104365763Y-87915000D01*
X104294237Y-87915000D01*
X104187685Y-87930320D01*
X104129999Y-87956664D01*
X104130000Y-87379617D01*
X104124165Y-87380192D01*
X104124155Y-87380194D01*
X103926237Y-87440232D01*
X103926232Y-87440234D01*
X103743839Y-87537724D01*
X103743829Y-87537731D01*
X103583949Y-87668940D01*
X103583940Y-87668949D01*
X103452731Y-87828829D01*
X103452724Y-87828839D01*
X103355234Y-88011232D01*
X103355232Y-88011237D01*
X103295194Y-88209155D01*
X103295192Y-88209165D01*
X103294617Y-88215000D01*
X103867617Y-88215000D01*
X103830000Y-88343111D01*
X103830000Y-88486889D01*
X103867617Y-88615000D01*
X103294617Y-88615000D01*
X102825885Y-88615000D01*
X102845583Y-88415003D01*
X102845583Y-88414996D01*
X102825301Y-88209070D01*
X102825300Y-88209065D01*
X102783402Y-88070946D01*
X102765232Y-88011046D01*
X102667685Y-87828550D01*
X102618825Y-87769014D01*
X102536414Y-87668595D01*
X102536410Y-87668590D01*
X102490706Y-87631082D01*
X102376452Y-87537316D01*
X102242831Y-87465893D01*
X102200425Y-87421787D01*
X102190500Y-87378583D01*
X102190500Y-86911416D01*
X102209407Y-86853225D01*
X102242829Y-86824107D01*
X102376450Y-86752685D01*
X102536410Y-86621410D01*
X102667685Y-86461450D01*
X102765232Y-86278954D01*
X102825300Y-86080934D01*
X102825301Y-86080929D01*
X102825885Y-86075000D01*
X103294617Y-86075000D01*
X103295192Y-86080834D01*
X103295194Y-86080844D01*
X103355232Y-86278762D01*
X103355234Y-86278767D01*
X103452724Y-86461160D01*
X103452731Y-86461170D01*
X103583940Y-86621050D01*
X103583949Y-86621059D01*
X103743829Y-86752268D01*
X103743839Y-86752275D01*
X103926232Y-86849765D01*
X103926237Y-86849767D01*
X104124158Y-86909806D01*
X104124160Y-86909807D01*
X104130000Y-86910381D01*
X104130000Y-86333335D01*
X104187685Y-86359680D01*
X104294237Y-86375000D01*
X104365763Y-86375000D01*
X104472315Y-86359680D01*
X104530000Y-86333335D01*
X104530000Y-86910381D01*
X104535839Y-86909807D01*
X104535841Y-86909806D01*
X104733762Y-86849767D01*
X104733767Y-86849765D01*
X104916160Y-86752275D01*
X104916170Y-86752268D01*
X105076050Y-86621059D01*
X105076059Y-86621050D01*
X105207268Y-86461170D01*
X105207275Y-86461160D01*
X105304765Y-86278767D01*
X105304767Y-86278762D01*
X105364805Y-86080844D01*
X105364807Y-86080834D01*
X105365383Y-86075000D01*
X104792383Y-86075000D01*
X104830000Y-85946889D01*
X104830000Y-85875003D01*
X105814417Y-85875003D01*
X105834698Y-86080929D01*
X105834699Y-86080934D01*
X105894768Y-86278954D01*
X105992316Y-86461452D01*
X106123302Y-86621059D01*
X106123590Y-86621410D01*
X106123595Y-86621414D01*
X106283547Y-86752683D01*
X106283548Y-86752683D01*
X106283550Y-86752685D01*
X106466046Y-86850232D01*
X106603997Y-86892078D01*
X106664065Y-86910300D01*
X106664070Y-86910301D01*
X106869997Y-86930583D01*
X106870000Y-86930583D01*
X106870003Y-86930583D01*
X107075929Y-86910301D01*
X107075934Y-86910300D01*
X107077559Y-86909807D01*
X107273954Y-86850232D01*
X107456450Y-86752685D01*
X107616410Y-86621410D01*
X107747685Y-86461450D01*
X107845232Y-86278954D01*
X107905300Y-86080934D01*
X107905301Y-86080929D01*
X107925583Y-85875003D01*
X108354417Y-85875003D01*
X108374698Y-86080929D01*
X108374699Y-86080934D01*
X108434768Y-86278954D01*
X108532316Y-86461452D01*
X108663302Y-86621059D01*
X108663590Y-86621410D01*
X108663595Y-86621414D01*
X108823547Y-86752683D01*
X108823548Y-86752683D01*
X108823550Y-86752685D01*
X109006046Y-86850232D01*
X109143997Y-86892078D01*
X109204065Y-86910300D01*
X109204070Y-86910301D01*
X109409997Y-86930583D01*
X109410000Y-86930583D01*
X109410003Y-86930583D01*
X109615929Y-86910301D01*
X109615934Y-86910300D01*
X109617559Y-86909807D01*
X109813954Y-86850232D01*
X109996450Y-86752685D01*
X110156410Y-86621410D01*
X110287685Y-86461450D01*
X110385232Y-86278954D01*
X110445300Y-86080934D01*
X110445301Y-86080929D01*
X110465583Y-85875003D01*
X110894417Y-85875003D01*
X110914698Y-86080929D01*
X110914699Y-86080934D01*
X110974768Y-86278954D01*
X111072316Y-86461452D01*
X111203302Y-86621059D01*
X111203590Y-86621410D01*
X111203595Y-86621414D01*
X111363547Y-86752683D01*
X111363548Y-86752683D01*
X111363550Y-86752685D01*
X111546046Y-86850232D01*
X111683997Y-86892078D01*
X111744065Y-86910300D01*
X111744070Y-86910301D01*
X111949997Y-86930583D01*
X111950000Y-86930583D01*
X111950003Y-86930583D01*
X112155929Y-86910301D01*
X112155934Y-86910300D01*
X112157559Y-86909807D01*
X112353954Y-86850232D01*
X112536450Y-86752685D01*
X112696410Y-86621410D01*
X112827685Y-86461450D01*
X112925232Y-86278954D01*
X112985300Y-86080934D01*
X112985301Y-86080929D01*
X113005583Y-85875003D01*
X113005583Y-85874996D01*
X112985301Y-85669070D01*
X112985300Y-85669065D01*
X112942092Y-85526627D01*
X112925232Y-85471046D01*
X112827685Y-85288550D01*
X112816558Y-85274992D01*
X112696414Y-85128595D01*
X112696410Y-85128590D01*
X112580603Y-85033550D01*
X112536452Y-84997316D01*
X112353954Y-84899768D01*
X112155934Y-84839699D01*
X112155929Y-84839698D01*
X111950003Y-84819417D01*
X111949997Y-84819417D01*
X111744070Y-84839698D01*
X111744065Y-84839699D01*
X111546045Y-84899768D01*
X111363547Y-84997316D01*
X111203595Y-85128585D01*
X111203585Y-85128595D01*
X111072316Y-85288547D01*
X110974768Y-85471045D01*
X110914699Y-85669065D01*
X110914698Y-85669070D01*
X110894417Y-85874996D01*
X110894417Y-85875003D01*
X110465583Y-85875003D01*
X110465583Y-85874996D01*
X110445301Y-85669070D01*
X110445300Y-85669065D01*
X110402092Y-85526627D01*
X110385232Y-85471046D01*
X110287685Y-85288550D01*
X110276558Y-85274992D01*
X110156414Y-85128595D01*
X110156410Y-85128590D01*
X110040603Y-85033550D01*
X109996452Y-84997316D01*
X109813954Y-84899768D01*
X109615934Y-84839699D01*
X109615929Y-84839698D01*
X109410003Y-84819417D01*
X109409997Y-84819417D01*
X109204070Y-84839698D01*
X109204065Y-84839699D01*
X109006045Y-84899768D01*
X108823547Y-84997316D01*
X108663595Y-85128585D01*
X108663585Y-85128595D01*
X108532316Y-85288547D01*
X108434768Y-85471045D01*
X108374699Y-85669065D01*
X108374698Y-85669070D01*
X108354417Y-85874996D01*
X108354417Y-85875003D01*
X107925583Y-85875003D01*
X107925583Y-85874996D01*
X107905301Y-85669070D01*
X107905300Y-85669065D01*
X107862092Y-85526627D01*
X107845232Y-85471046D01*
X107747685Y-85288550D01*
X107736558Y-85274992D01*
X107616414Y-85128595D01*
X107616410Y-85128590D01*
X107500603Y-85033550D01*
X107456452Y-84997316D01*
X107273954Y-84899768D01*
X107075934Y-84839699D01*
X107075929Y-84839698D01*
X106870003Y-84819417D01*
X106869997Y-84819417D01*
X106664070Y-84839698D01*
X106664065Y-84839699D01*
X106466045Y-84899768D01*
X106283547Y-84997316D01*
X106123595Y-85128585D01*
X106123585Y-85128595D01*
X105992316Y-85288547D01*
X105894768Y-85471045D01*
X105834699Y-85669065D01*
X105834698Y-85669070D01*
X105814417Y-85874996D01*
X105814417Y-85875003D01*
X104830000Y-85875003D01*
X104830000Y-85803111D01*
X104792383Y-85675000D01*
X105365382Y-85675000D01*
X105364807Y-85669165D01*
X105364805Y-85669155D01*
X105304767Y-85471237D01*
X105304765Y-85471232D01*
X105207275Y-85288839D01*
X105207268Y-85288829D01*
X105076059Y-85128949D01*
X105076050Y-85128940D01*
X104916170Y-84997731D01*
X104916160Y-84997724D01*
X104733767Y-84900234D01*
X104733762Y-84900232D01*
X104535844Y-84840194D01*
X104535834Y-84840192D01*
X104530000Y-84839617D01*
X104530000Y-85416664D01*
X104472315Y-85390320D01*
X104365763Y-85375000D01*
X104294237Y-85375000D01*
X104187685Y-85390320D01*
X104129999Y-85416664D01*
X104130000Y-84839617D01*
X104124165Y-84840192D01*
X104124155Y-84840194D01*
X103926237Y-84900232D01*
X103926232Y-84900234D01*
X103743839Y-84997724D01*
X103743829Y-84997731D01*
X103583949Y-85128940D01*
X103583940Y-85128949D01*
X103452731Y-85288829D01*
X103452724Y-85288839D01*
X103355234Y-85471232D01*
X103355232Y-85471237D01*
X103295194Y-85669155D01*
X103295192Y-85669165D01*
X103294617Y-85675000D01*
X103867617Y-85675000D01*
X103830000Y-85803111D01*
X103830000Y-85946889D01*
X103867617Y-86075000D01*
X103294617Y-86075000D01*
X102825885Y-86075000D01*
X102845583Y-85875003D01*
X102845583Y-85874996D01*
X102825301Y-85669070D01*
X102825300Y-85669065D01*
X102782092Y-85526627D01*
X102765232Y-85471046D01*
X102667685Y-85288550D01*
X102656558Y-85274992D01*
X102536414Y-85128595D01*
X102536410Y-85128590D01*
X102420603Y-85033550D01*
X102376452Y-84997316D01*
X102193954Y-84899768D01*
X101995934Y-84839699D01*
X101995929Y-84839698D01*
X101790003Y-84819417D01*
X101789997Y-84819417D01*
X101584070Y-84839698D01*
X101584065Y-84839699D01*
X101386045Y-84899768D01*
X101203547Y-84997316D01*
X101043595Y-85128585D01*
X101043585Y-85128595D01*
X100912316Y-85288547D01*
X100814768Y-85471045D01*
X100754699Y-85669065D01*
X100754698Y-85669070D01*
X100734417Y-85874996D01*
X100734417Y-85875003D01*
X100754698Y-86080929D01*
X100754699Y-86080934D01*
X100814768Y-86278954D01*
X100912316Y-86461452D01*
X101043302Y-86621059D01*
X101043590Y-86621410D01*
X101043595Y-86621414D01*
X101203547Y-86752683D01*
X101203548Y-86752683D01*
X101203550Y-86752685D01*
X101337169Y-86824106D01*
X101379575Y-86868212D01*
X101389500Y-86911416D01*
X101389500Y-87378583D01*
X101370593Y-87436774D01*
X101337169Y-87465893D01*
X101203547Y-87537316D01*
X101043595Y-87668585D01*
X101043585Y-87668595D01*
X100912316Y-87828547D01*
X100877720Y-87893272D01*
X100845226Y-87954065D01*
X100840894Y-87962169D01*
X100796788Y-88004575D01*
X100753584Y-88014500D01*
X100121901Y-88014500D01*
X100063710Y-87995593D01*
X100051897Y-87985504D01*
X99305391Y-87238998D01*
X98560909Y-86494516D01*
X98560905Y-86494513D01*
X98558423Y-86492031D01*
X98558423Y-86492030D01*
X98538343Y-86471951D01*
X98538342Y-86471950D01*
X98516847Y-86460997D01*
X98503608Y-86452884D01*
X98497581Y-86448505D01*
X98484090Y-86438704D01*
X98484088Y-86438703D01*
X98461142Y-86431247D01*
X98446788Y-86425301D01*
X98425306Y-86414354D01*
X98401474Y-86410579D01*
X98386374Y-86406953D01*
X98363437Y-86399500D01*
X98363433Y-86399500D01*
X98331519Y-86399500D01*
X95863433Y-86399500D01*
X95736567Y-86399500D01*
X95736565Y-86399500D01*
X95736562Y-86399501D01*
X95713624Y-86406953D01*
X95698529Y-86410577D01*
X95674701Y-86414352D01*
X95674691Y-86414355D01*
X95653202Y-86425305D01*
X95638852Y-86431249D01*
X95615915Y-86438701D01*
X95615906Y-86438706D01*
X95596385Y-86452887D01*
X95583151Y-86460997D01*
X95561660Y-86471948D01*
X95561658Y-86471950D01*
X95539094Y-86494513D01*
X95539092Y-86494515D01*
X95539090Y-86494515D01*
X95539091Y-86494516D01*
X91763103Y-90270504D01*
X91708586Y-90298281D01*
X91693099Y-90299500D01*
X81421901Y-90299500D01*
X81363710Y-90280593D01*
X81351897Y-90270504D01*
X79946053Y-88864660D01*
X79918276Y-88810143D01*
X79921320Y-88765918D01*
X79927226Y-88746450D01*
X79965300Y-88620934D01*
X79965301Y-88620929D01*
X79965885Y-88615000D01*
X80434617Y-88615000D01*
X80435192Y-88620834D01*
X80435194Y-88620844D01*
X80495232Y-88818762D01*
X80495234Y-88818767D01*
X80592724Y-89001160D01*
X80592731Y-89001170D01*
X80723940Y-89161050D01*
X80723949Y-89161059D01*
X80883829Y-89292268D01*
X80883839Y-89292275D01*
X81066232Y-89389765D01*
X81066237Y-89389767D01*
X81264158Y-89449806D01*
X81264160Y-89449807D01*
X81270000Y-89450381D01*
X81270000Y-88873335D01*
X81327685Y-88899680D01*
X81434237Y-88915000D01*
X81505763Y-88915000D01*
X81612315Y-88899680D01*
X81670000Y-88873335D01*
X81670000Y-89450381D01*
X81675839Y-89449807D01*
X81675841Y-89449806D01*
X81873762Y-89389767D01*
X81873767Y-89389765D01*
X82056160Y-89292275D01*
X82056170Y-89292268D01*
X82216050Y-89161059D01*
X82216059Y-89161050D01*
X82347268Y-89001170D01*
X82347275Y-89001160D01*
X82444765Y-88818767D01*
X82444767Y-88818762D01*
X82504805Y-88620844D01*
X82504807Y-88620834D01*
X82505383Y-88615000D01*
X81932383Y-88615000D01*
X81970000Y-88486889D01*
X81970000Y-88415003D01*
X82954417Y-88415003D01*
X82974698Y-88620929D01*
X82974699Y-88620934D01*
X83034768Y-88818954D01*
X83132316Y-89001452D01*
X83263302Y-89161059D01*
X83263590Y-89161410D01*
X83263595Y-89161414D01*
X83423547Y-89292683D01*
X83423548Y-89292683D01*
X83423550Y-89292685D01*
X83606046Y-89390232D01*
X83727572Y-89427096D01*
X83804065Y-89450300D01*
X83804070Y-89450301D01*
X84009997Y-89470583D01*
X84010000Y-89470583D01*
X84010003Y-89470583D01*
X84215929Y-89450301D01*
X84215934Y-89450300D01*
X84217559Y-89449807D01*
X84413954Y-89390232D01*
X84596450Y-89292685D01*
X84756410Y-89161410D01*
X84887685Y-89001450D01*
X84985232Y-88818954D01*
X85045300Y-88620934D01*
X85045301Y-88620929D01*
X85065583Y-88415003D01*
X85494417Y-88415003D01*
X85514698Y-88620929D01*
X85514699Y-88620934D01*
X85574768Y-88818954D01*
X85672316Y-89001452D01*
X85803302Y-89161059D01*
X85803590Y-89161410D01*
X85803595Y-89161414D01*
X85963547Y-89292683D01*
X85963548Y-89292683D01*
X85963550Y-89292685D01*
X86146046Y-89390232D01*
X86267572Y-89427096D01*
X86344065Y-89450300D01*
X86344070Y-89450301D01*
X86549997Y-89470583D01*
X86550000Y-89470583D01*
X86550003Y-89470583D01*
X86755929Y-89450301D01*
X86755934Y-89450300D01*
X86757559Y-89449807D01*
X86953954Y-89390232D01*
X87136450Y-89292685D01*
X87296410Y-89161410D01*
X87427685Y-89001450D01*
X87525232Y-88818954D01*
X87585300Y-88620934D01*
X87585301Y-88620929D01*
X87605583Y-88415003D01*
X88034417Y-88415003D01*
X88054698Y-88620929D01*
X88054699Y-88620934D01*
X88114768Y-88818954D01*
X88212316Y-89001452D01*
X88343302Y-89161059D01*
X88343590Y-89161410D01*
X88343595Y-89161414D01*
X88503547Y-89292683D01*
X88503548Y-89292683D01*
X88503550Y-89292685D01*
X88686046Y-89390232D01*
X88807572Y-89427096D01*
X88884065Y-89450300D01*
X88884070Y-89450301D01*
X89089997Y-89470583D01*
X89090000Y-89470583D01*
X89090003Y-89470583D01*
X89295929Y-89450301D01*
X89295934Y-89450300D01*
X89297559Y-89449807D01*
X89493954Y-89390232D01*
X89676450Y-89292685D01*
X89836410Y-89161410D01*
X89967685Y-89001450D01*
X90065232Y-88818954D01*
X90125300Y-88620934D01*
X90125301Y-88620929D01*
X90145583Y-88415003D01*
X90574417Y-88415003D01*
X90594698Y-88620929D01*
X90594699Y-88620934D01*
X90654768Y-88818954D01*
X90752316Y-89001452D01*
X90883302Y-89161059D01*
X90883590Y-89161410D01*
X90883595Y-89161414D01*
X91043547Y-89292683D01*
X91043548Y-89292683D01*
X91043550Y-89292685D01*
X91226046Y-89390232D01*
X91347572Y-89427096D01*
X91424065Y-89450300D01*
X91424070Y-89450301D01*
X91629997Y-89470583D01*
X91630000Y-89470583D01*
X91630003Y-89470583D01*
X91835929Y-89450301D01*
X91835934Y-89450300D01*
X91837559Y-89449807D01*
X92033954Y-89390232D01*
X92216450Y-89292685D01*
X92376410Y-89161410D01*
X92507685Y-89001450D01*
X92605232Y-88818954D01*
X92665300Y-88620934D01*
X92665301Y-88620929D01*
X92685583Y-88415003D01*
X92685583Y-88414996D01*
X92665301Y-88209070D01*
X92665300Y-88209065D01*
X92623402Y-88070946D01*
X92605232Y-88011046D01*
X92507685Y-87828550D01*
X92458825Y-87769014D01*
X92376414Y-87668595D01*
X92376410Y-87668590D01*
X92330706Y-87631082D01*
X92216452Y-87537316D01*
X92033954Y-87439768D01*
X91835934Y-87379699D01*
X91835929Y-87379698D01*
X91630003Y-87359417D01*
X91629997Y-87359417D01*
X91424070Y-87379698D01*
X91424065Y-87379699D01*
X91226045Y-87439768D01*
X91043547Y-87537316D01*
X90883595Y-87668585D01*
X90883585Y-87668595D01*
X90752316Y-87828547D01*
X90654768Y-88011045D01*
X90594699Y-88209065D01*
X90594698Y-88209070D01*
X90574417Y-88414996D01*
X90574417Y-88415003D01*
X90145583Y-88415003D01*
X90145583Y-88414996D01*
X90125301Y-88209070D01*
X90125300Y-88209065D01*
X90083402Y-88070946D01*
X90065232Y-88011046D01*
X89967685Y-87828550D01*
X89918825Y-87769014D01*
X89836414Y-87668595D01*
X89836410Y-87668590D01*
X89790706Y-87631082D01*
X89676452Y-87537316D01*
X89493954Y-87439768D01*
X89295934Y-87379699D01*
X89295929Y-87379698D01*
X89090003Y-87359417D01*
X89089997Y-87359417D01*
X88884070Y-87379698D01*
X88884065Y-87379699D01*
X88686045Y-87439768D01*
X88503547Y-87537316D01*
X88343595Y-87668585D01*
X88343585Y-87668595D01*
X88212316Y-87828547D01*
X88114768Y-88011045D01*
X88054699Y-88209065D01*
X88054698Y-88209070D01*
X88034417Y-88414996D01*
X88034417Y-88415003D01*
X87605583Y-88415003D01*
X87605583Y-88414996D01*
X87585301Y-88209070D01*
X87585300Y-88209065D01*
X87543402Y-88070946D01*
X87525232Y-88011046D01*
X87427685Y-87828550D01*
X87378825Y-87769014D01*
X87296414Y-87668595D01*
X87296410Y-87668590D01*
X87250706Y-87631082D01*
X87136452Y-87537316D01*
X86953954Y-87439768D01*
X86755934Y-87379699D01*
X86755929Y-87379698D01*
X86550003Y-87359417D01*
X86549997Y-87359417D01*
X86344070Y-87379698D01*
X86344065Y-87379699D01*
X86146045Y-87439768D01*
X85963547Y-87537316D01*
X85803595Y-87668585D01*
X85803585Y-87668595D01*
X85672316Y-87828547D01*
X85574768Y-88011045D01*
X85514699Y-88209065D01*
X85514698Y-88209070D01*
X85494417Y-88414996D01*
X85494417Y-88415003D01*
X85065583Y-88415003D01*
X85065583Y-88414996D01*
X85045301Y-88209070D01*
X85045300Y-88209065D01*
X85003402Y-88070946D01*
X84985232Y-88011046D01*
X84887685Y-87828550D01*
X84838825Y-87769014D01*
X84756414Y-87668595D01*
X84756410Y-87668590D01*
X84710706Y-87631082D01*
X84596452Y-87537316D01*
X84413954Y-87439768D01*
X84215934Y-87379699D01*
X84215929Y-87379698D01*
X84010003Y-87359417D01*
X84009997Y-87359417D01*
X83804070Y-87379698D01*
X83804065Y-87379699D01*
X83606045Y-87439768D01*
X83423547Y-87537316D01*
X83263595Y-87668585D01*
X83263585Y-87668595D01*
X83132316Y-87828547D01*
X83034768Y-88011045D01*
X82974699Y-88209065D01*
X82974698Y-88209070D01*
X82954417Y-88414996D01*
X82954417Y-88415003D01*
X81970000Y-88415003D01*
X81970000Y-88343111D01*
X81932383Y-88215000D01*
X82505382Y-88215000D01*
X82504807Y-88209165D01*
X82504805Y-88209155D01*
X82444767Y-88011237D01*
X82444765Y-88011232D01*
X82347275Y-87828839D01*
X82347268Y-87828829D01*
X82216059Y-87668949D01*
X82216050Y-87668940D01*
X82056170Y-87537731D01*
X82056160Y-87537724D01*
X81873767Y-87440234D01*
X81873762Y-87440232D01*
X81675844Y-87380194D01*
X81675834Y-87380192D01*
X81670000Y-87379617D01*
X81670000Y-87956664D01*
X81612315Y-87930320D01*
X81505763Y-87915000D01*
X81434237Y-87915000D01*
X81327685Y-87930320D01*
X81270000Y-87956664D01*
X81270000Y-87379617D01*
X81264165Y-87380192D01*
X81264155Y-87380194D01*
X81066237Y-87440232D01*
X81066232Y-87440234D01*
X80883839Y-87537724D01*
X80883829Y-87537731D01*
X80723949Y-87668940D01*
X80723940Y-87668949D01*
X80592731Y-87828829D01*
X80592724Y-87828839D01*
X80495234Y-88011232D01*
X80495232Y-88011237D01*
X80435194Y-88209155D01*
X80435192Y-88209165D01*
X80434617Y-88215000D01*
X81007617Y-88215000D01*
X80970000Y-88343111D01*
X80970000Y-88486889D01*
X81007617Y-88615000D01*
X80434617Y-88615000D01*
X79965885Y-88615000D01*
X79985583Y-88415003D01*
X79985583Y-88414996D01*
X79965301Y-88209070D01*
X79965300Y-88209065D01*
X79923402Y-88070946D01*
X79905232Y-88011046D01*
X79807685Y-87828550D01*
X79758825Y-87769014D01*
X79676414Y-87668595D01*
X79676410Y-87668590D01*
X79630706Y-87631082D01*
X79516452Y-87537316D01*
X79382830Y-87465893D01*
X79340424Y-87421787D01*
X79330499Y-87378583D01*
X79330499Y-86911416D01*
X79349406Y-86853225D01*
X79382829Y-86824107D01*
X79516450Y-86752685D01*
X79676410Y-86621410D01*
X79807685Y-86461450D01*
X79905232Y-86278954D01*
X79965300Y-86080934D01*
X79965301Y-86080929D01*
X79965885Y-86075000D01*
X80434617Y-86075000D01*
X80435192Y-86080834D01*
X80435194Y-86080844D01*
X80495232Y-86278762D01*
X80495234Y-86278767D01*
X80592724Y-86461160D01*
X80592731Y-86461170D01*
X80723940Y-86621050D01*
X80723949Y-86621059D01*
X80883829Y-86752268D01*
X80883839Y-86752275D01*
X81066232Y-86849765D01*
X81066237Y-86849767D01*
X81264158Y-86909806D01*
X81264160Y-86909807D01*
X81270000Y-86910381D01*
X81270000Y-86333335D01*
X81327685Y-86359680D01*
X81434237Y-86375000D01*
X81505763Y-86375000D01*
X81612315Y-86359680D01*
X81670000Y-86333335D01*
X81670000Y-86910381D01*
X81675839Y-86909807D01*
X81675841Y-86909806D01*
X81873762Y-86849767D01*
X81873767Y-86849765D01*
X82056160Y-86752275D01*
X82056170Y-86752268D01*
X82216050Y-86621059D01*
X82216059Y-86621050D01*
X82347268Y-86461170D01*
X82347275Y-86461160D01*
X82444765Y-86278767D01*
X82444767Y-86278762D01*
X82504805Y-86080844D01*
X82504807Y-86080834D01*
X82505383Y-86075000D01*
X81932383Y-86075000D01*
X81970000Y-85946889D01*
X81970000Y-85875003D01*
X82954417Y-85875003D01*
X82974698Y-86080929D01*
X82974699Y-86080934D01*
X83034768Y-86278954D01*
X83132316Y-86461452D01*
X83263302Y-86621059D01*
X83263590Y-86621410D01*
X83263595Y-86621414D01*
X83423547Y-86752683D01*
X83423548Y-86752683D01*
X83423550Y-86752685D01*
X83606046Y-86850232D01*
X83743996Y-86892078D01*
X83804065Y-86910300D01*
X83804070Y-86910301D01*
X84009997Y-86930583D01*
X84010000Y-86930583D01*
X84010003Y-86930583D01*
X84215929Y-86910301D01*
X84215934Y-86910300D01*
X84217559Y-86909807D01*
X84413954Y-86850232D01*
X84596450Y-86752685D01*
X84756410Y-86621410D01*
X84887685Y-86461450D01*
X84985232Y-86278954D01*
X85045300Y-86080934D01*
X85045301Y-86080929D01*
X85065583Y-85875003D01*
X85494417Y-85875003D01*
X85514698Y-86080929D01*
X85514699Y-86080934D01*
X85574768Y-86278954D01*
X85672316Y-86461452D01*
X85803302Y-86621059D01*
X85803590Y-86621410D01*
X85803595Y-86621414D01*
X85963547Y-86752683D01*
X85963548Y-86752683D01*
X85963550Y-86752685D01*
X86146046Y-86850232D01*
X86283996Y-86892078D01*
X86344065Y-86910300D01*
X86344070Y-86910301D01*
X86549997Y-86930583D01*
X86550000Y-86930583D01*
X86550003Y-86930583D01*
X86755929Y-86910301D01*
X86755934Y-86910300D01*
X86757559Y-86909807D01*
X86953954Y-86850232D01*
X87136450Y-86752685D01*
X87296410Y-86621410D01*
X87427685Y-86461450D01*
X87525232Y-86278954D01*
X87585300Y-86080934D01*
X87585301Y-86080929D01*
X87605583Y-85875003D01*
X88034417Y-85875003D01*
X88054698Y-86080929D01*
X88054699Y-86080934D01*
X88114768Y-86278954D01*
X88212316Y-86461452D01*
X88343302Y-86621059D01*
X88343590Y-86621410D01*
X88343595Y-86621414D01*
X88503547Y-86752683D01*
X88503548Y-86752683D01*
X88503550Y-86752685D01*
X88686046Y-86850232D01*
X88823996Y-86892078D01*
X88884065Y-86910300D01*
X88884070Y-86910301D01*
X89089997Y-86930583D01*
X89090000Y-86930583D01*
X89090003Y-86930583D01*
X89295929Y-86910301D01*
X89295934Y-86910300D01*
X89297559Y-86909807D01*
X89493954Y-86850232D01*
X89676450Y-86752685D01*
X89686124Y-86744746D01*
X90579500Y-86744746D01*
X90579501Y-86744758D01*
X90591132Y-86803227D01*
X90591134Y-86803233D01*
X90635445Y-86869548D01*
X90635448Y-86869552D01*
X90701769Y-86913867D01*
X90746231Y-86922711D01*
X90760241Y-86925498D01*
X90760246Y-86925498D01*
X90760252Y-86925500D01*
X90760253Y-86925500D01*
X92499747Y-86925500D01*
X92499748Y-86925500D01*
X92558231Y-86913867D01*
X92624552Y-86869552D01*
X92668867Y-86803231D01*
X92680500Y-86744748D01*
X92680500Y-85005252D01*
X92678921Y-84997316D01*
X92677711Y-84991231D01*
X92668867Y-84946769D01*
X92624552Y-84880448D01*
X92614296Y-84873595D01*
X92558233Y-84836134D01*
X92558231Y-84836133D01*
X92558228Y-84836132D01*
X92558227Y-84836132D01*
X92499758Y-84824501D01*
X92499748Y-84824500D01*
X90760252Y-84824500D01*
X90760251Y-84824500D01*
X90760241Y-84824501D01*
X90701772Y-84836132D01*
X90701766Y-84836134D01*
X90635451Y-84880445D01*
X90635445Y-84880451D01*
X90591134Y-84946766D01*
X90591132Y-84946772D01*
X90579501Y-85005241D01*
X90579500Y-85005253D01*
X90579500Y-86744746D01*
X89686124Y-86744746D01*
X89836410Y-86621410D01*
X89967685Y-86461450D01*
X90065232Y-86278954D01*
X90125300Y-86080934D01*
X90125301Y-86080929D01*
X90145583Y-85875003D01*
X90145583Y-85874996D01*
X90125301Y-85669070D01*
X90125300Y-85669065D01*
X90082092Y-85526627D01*
X90065232Y-85471046D01*
X89967685Y-85288550D01*
X89956558Y-85274992D01*
X89836414Y-85128595D01*
X89836410Y-85128590D01*
X89720603Y-85033550D01*
X89676452Y-84997316D01*
X89493954Y-84899768D01*
X89295934Y-84839699D01*
X89295929Y-84839698D01*
X89090003Y-84819417D01*
X89089997Y-84819417D01*
X88884070Y-84839698D01*
X88884065Y-84839699D01*
X88686045Y-84899768D01*
X88503547Y-84997316D01*
X88343595Y-85128585D01*
X88343585Y-85128595D01*
X88212316Y-85288547D01*
X88114768Y-85471045D01*
X88054699Y-85669065D01*
X88054698Y-85669070D01*
X88034417Y-85874996D01*
X88034417Y-85875003D01*
X87605583Y-85875003D01*
X87605583Y-85874996D01*
X87585301Y-85669070D01*
X87585300Y-85669065D01*
X87542092Y-85526627D01*
X87525232Y-85471046D01*
X87427685Y-85288550D01*
X87416558Y-85274992D01*
X87296414Y-85128595D01*
X87296410Y-85128590D01*
X87180603Y-85033550D01*
X87136452Y-84997316D01*
X86953954Y-84899768D01*
X86755934Y-84839699D01*
X86755929Y-84839698D01*
X86550003Y-84819417D01*
X86549997Y-84819417D01*
X86344070Y-84839698D01*
X86344065Y-84839699D01*
X86146045Y-84899768D01*
X85963547Y-84997316D01*
X85803595Y-85128585D01*
X85803585Y-85128595D01*
X85672316Y-85288547D01*
X85574768Y-85471045D01*
X85514699Y-85669065D01*
X85514698Y-85669070D01*
X85494417Y-85874996D01*
X85494417Y-85875003D01*
X85065583Y-85875003D01*
X85065583Y-85874996D01*
X85045301Y-85669070D01*
X85045300Y-85669065D01*
X85002092Y-85526627D01*
X84985232Y-85471046D01*
X84887685Y-85288550D01*
X84876558Y-85274992D01*
X84756414Y-85128595D01*
X84756410Y-85128590D01*
X84640603Y-85033550D01*
X84596452Y-84997316D01*
X84413954Y-84899768D01*
X84215934Y-84839699D01*
X84215929Y-84839698D01*
X84010003Y-84819417D01*
X84009997Y-84819417D01*
X83804070Y-84839698D01*
X83804065Y-84839699D01*
X83606045Y-84899768D01*
X83423547Y-84997316D01*
X83263595Y-85128585D01*
X83263585Y-85128595D01*
X83132316Y-85288547D01*
X83034768Y-85471045D01*
X82974699Y-85669065D01*
X82974698Y-85669070D01*
X82954417Y-85874996D01*
X82954417Y-85875003D01*
X81970000Y-85875003D01*
X81970000Y-85803111D01*
X81932383Y-85675000D01*
X82505382Y-85675000D01*
X82504807Y-85669165D01*
X82504805Y-85669155D01*
X82444767Y-85471237D01*
X82444765Y-85471232D01*
X82347275Y-85288839D01*
X82347268Y-85288829D01*
X82216059Y-85128949D01*
X82216050Y-85128940D01*
X82056170Y-84997731D01*
X82056160Y-84997724D01*
X81873767Y-84900234D01*
X81873762Y-84900232D01*
X81675844Y-84840194D01*
X81675834Y-84840192D01*
X81670000Y-84839617D01*
X81670000Y-85416664D01*
X81612315Y-85390320D01*
X81505763Y-85375000D01*
X81434237Y-85375000D01*
X81327685Y-85390320D01*
X81270000Y-85416664D01*
X81270000Y-84839617D01*
X81264165Y-84840192D01*
X81264155Y-84840194D01*
X81066237Y-84900232D01*
X81066232Y-84900234D01*
X80883839Y-84997724D01*
X80883829Y-84997731D01*
X80723949Y-85128940D01*
X80723940Y-85128949D01*
X80592731Y-85288829D01*
X80592724Y-85288839D01*
X80495234Y-85471232D01*
X80495232Y-85471237D01*
X80435194Y-85669155D01*
X80435192Y-85669165D01*
X80434617Y-85675000D01*
X81007617Y-85675000D01*
X80970000Y-85803111D01*
X80970000Y-85946889D01*
X81007617Y-86075000D01*
X80434617Y-86075000D01*
X79965885Y-86075000D01*
X79985583Y-85875003D01*
X79985583Y-85874996D01*
X79965301Y-85669070D01*
X79965300Y-85669065D01*
X79922092Y-85526627D01*
X79905232Y-85471046D01*
X79807685Y-85288550D01*
X79796558Y-85274992D01*
X79676414Y-85128595D01*
X79676410Y-85128590D01*
X79560603Y-85033550D01*
X79516452Y-84997316D01*
X79382831Y-84925893D01*
X79340425Y-84881787D01*
X79330500Y-84838583D01*
X79330500Y-83900002D01*
X88094353Y-83900002D01*
X88114834Y-84042456D01*
X88174622Y-84173371D01*
X88174623Y-84173373D01*
X88268872Y-84282143D01*
X88268873Y-84282144D01*
X88389942Y-84359950D01*
X88389947Y-84359953D01*
X88472621Y-84384228D01*
X88528035Y-84400499D01*
X88528036Y-84400499D01*
X88528039Y-84400500D01*
X88528041Y-84400500D01*
X88671959Y-84400500D01*
X88671961Y-84400500D01*
X88810053Y-84359953D01*
X88931128Y-84282143D01*
X89025377Y-84173373D01*
X89085165Y-84042457D01*
X89093770Y-83982606D01*
X89105647Y-83900002D01*
X89105647Y-83899997D01*
X89085165Y-83757543D01*
X89085164Y-83757543D01*
X89025377Y-83626627D01*
X88931128Y-83517857D01*
X88931127Y-83517856D01*
X88931126Y-83517855D01*
X88810057Y-83440049D01*
X88810054Y-83440047D01*
X88810053Y-83440047D01*
X88810050Y-83440046D01*
X88671964Y-83399500D01*
X88671961Y-83399500D01*
X88528039Y-83399500D01*
X88528035Y-83399500D01*
X88389949Y-83440046D01*
X88389942Y-83440049D01*
X88268873Y-83517855D01*
X88174622Y-83626628D01*
X88114834Y-83757543D01*
X88094353Y-83899997D01*
X88094353Y-83900002D01*
X79330500Y-83900002D01*
X79330500Y-83080003D01*
X96169417Y-83080003D01*
X96189698Y-83285929D01*
X96189699Y-83285934D01*
X96249768Y-83483954D01*
X96347316Y-83666452D01*
X96478585Y-83826404D01*
X96478590Y-83826410D01*
X96478595Y-83826414D01*
X96638547Y-83957683D01*
X96638548Y-83957683D01*
X96638550Y-83957685D01*
X96821046Y-84055232D01*
X96958997Y-84097078D01*
X97019065Y-84115300D01*
X97019070Y-84115301D01*
X97224997Y-84135583D01*
X97225000Y-84135583D01*
X97225003Y-84135583D01*
X97430929Y-84115301D01*
X97430934Y-84115300D01*
X97430934Y-84115299D01*
X97628954Y-84055232D01*
X97811450Y-83957685D01*
X97971410Y-83826410D01*
X98102685Y-83666450D01*
X98200232Y-83483954D01*
X98260300Y-83285934D01*
X98260301Y-83285929D01*
X98280583Y-83080003D01*
X98280583Y-83079996D01*
X98260301Y-82874070D01*
X98260300Y-82874065D01*
X98229288Y-82771831D01*
X98200232Y-82676046D01*
X98102685Y-82493550D01*
X97971410Y-82333590D01*
X97953627Y-82318996D01*
X97811452Y-82202316D01*
X97628954Y-82104768D01*
X97430934Y-82044699D01*
X97430929Y-82044698D01*
X97225003Y-82024417D01*
X97224997Y-82024417D01*
X97019070Y-82044698D01*
X97019065Y-82044699D01*
X96821045Y-82104768D01*
X96638547Y-82202316D01*
X96478595Y-82333585D01*
X96478585Y-82333595D01*
X96347316Y-82493547D01*
X96249768Y-82676045D01*
X96189699Y-82874065D01*
X96189698Y-82874070D01*
X96169417Y-83079996D01*
X96169417Y-83080003D01*
X79330500Y-83080003D01*
X79330500Y-81409700D01*
X96175000Y-81409700D01*
X96186603Y-81468036D01*
X96230806Y-81534189D01*
X96230810Y-81534193D01*
X96296963Y-81578396D01*
X96355299Y-81589999D01*
X96355303Y-81590000D01*
X97024999Y-81590000D01*
X97025000Y-81589999D01*
X97025000Y-80998335D01*
X97082685Y-81024680D01*
X97189237Y-81040000D01*
X97260763Y-81040000D01*
X97367315Y-81024680D01*
X97425000Y-80998335D01*
X97425000Y-81589999D01*
X97425001Y-81590000D01*
X98094697Y-81590000D01*
X98094700Y-81589999D01*
X98153036Y-81578396D01*
X98219189Y-81534193D01*
X98219193Y-81534189D01*
X98263396Y-81468036D01*
X98274999Y-81409700D01*
X98275000Y-81409697D01*
X98275000Y-80850002D01*
X99544353Y-80850002D01*
X99564834Y-80992456D01*
X99586547Y-81040000D01*
X99624623Y-81123373D01*
X99627047Y-81126170D01*
X99718873Y-81232144D01*
X99799096Y-81283700D01*
X99839947Y-81309953D01*
X99946403Y-81341211D01*
X99978035Y-81350499D01*
X99978036Y-81350499D01*
X99978039Y-81350500D01*
X99978041Y-81350500D01*
X100084521Y-81350500D01*
X100142712Y-81369407D01*
X100154525Y-81379496D01*
X103141436Y-84366407D01*
X103149537Y-84377647D01*
X103150516Y-84376909D01*
X103156044Y-84384230D01*
X103191569Y-84416616D01*
X103193223Y-84418195D01*
X103207201Y-84432172D01*
X103207203Y-84432174D01*
X103210128Y-84434178D01*
X103215505Y-84438437D01*
X103239064Y-84459914D01*
X103239065Y-84459914D01*
X103239067Y-84459916D01*
X103248230Y-84463466D01*
X103268416Y-84474105D01*
X103276519Y-84479656D01*
X103307553Y-84486955D01*
X103314090Y-84488979D01*
X103343827Y-84500500D01*
X103353652Y-84500500D01*
X103376316Y-84503129D01*
X103385881Y-84505379D01*
X103410494Y-84501945D01*
X103417453Y-84500975D01*
X103424299Y-84500500D01*
X112649521Y-84500500D01*
X112707712Y-84519407D01*
X112719525Y-84529496D01*
X113410504Y-85220475D01*
X113438281Y-85274992D01*
X113439500Y-85290479D01*
X113439500Y-86744746D01*
X113439501Y-86744758D01*
X113451132Y-86803227D01*
X113451134Y-86803233D01*
X113495445Y-86869548D01*
X113495448Y-86869552D01*
X113561769Y-86913867D01*
X113606231Y-86922711D01*
X113620241Y-86925498D01*
X113620246Y-86925498D01*
X113620252Y-86925500D01*
X113620253Y-86925500D01*
X115359747Y-86925500D01*
X115359748Y-86925500D01*
X115418231Y-86913867D01*
X115484552Y-86869552D01*
X115528867Y-86803231D01*
X115540500Y-86744748D01*
X115540500Y-85005252D01*
X115538921Y-84997316D01*
X115537711Y-84991231D01*
X115528867Y-84946769D01*
X115484552Y-84880448D01*
X115474296Y-84873595D01*
X115418233Y-84836134D01*
X115418231Y-84836133D01*
X115418228Y-84836132D01*
X115418227Y-84836132D01*
X115359758Y-84824501D01*
X115359748Y-84824500D01*
X115359747Y-84824500D01*
X113905479Y-84824500D01*
X113847288Y-84805593D01*
X113835475Y-84795504D01*
X113073565Y-84033594D01*
X113065479Y-84022344D01*
X113064487Y-84023094D01*
X113058958Y-84015772D01*
X113023428Y-83983382D01*
X113021775Y-83981804D01*
X113007797Y-83967826D01*
X113004859Y-83965813D01*
X112999496Y-83961564D01*
X112975933Y-83940084D01*
X112966762Y-83936531D01*
X112946586Y-83925895D01*
X112938484Y-83920345D01*
X112938479Y-83920343D01*
X112907457Y-83913046D01*
X112900902Y-83911016D01*
X112871177Y-83899501D01*
X112871174Y-83899500D01*
X112871173Y-83899500D01*
X112871172Y-83899500D01*
X112861348Y-83899500D01*
X112838683Y-83896870D01*
X112829119Y-83894621D01*
X112829118Y-83894621D01*
X112797547Y-83899025D01*
X112790701Y-83899500D01*
X103565480Y-83899500D01*
X103507289Y-83880593D01*
X103495476Y-83870504D01*
X100580546Y-80955575D01*
X100552769Y-80901058D01*
X100552558Y-80871482D01*
X100555647Y-80850000D01*
X100553371Y-80834173D01*
X100535165Y-80707543D01*
X100535164Y-80707543D01*
X100475377Y-80576627D01*
X100381128Y-80467857D01*
X100381127Y-80467856D01*
X100381126Y-80467855D01*
X100260057Y-80390049D01*
X100260054Y-80390047D01*
X100260053Y-80390047D01*
X100260050Y-80390046D01*
X100121964Y-80349500D01*
X100121961Y-80349500D01*
X99978039Y-80349500D01*
X99978035Y-80349500D01*
X99839949Y-80390046D01*
X99839942Y-80390049D01*
X99718873Y-80467855D01*
X99624622Y-80576628D01*
X99564834Y-80707543D01*
X99544353Y-80849997D01*
X99544353Y-80850002D01*
X98275000Y-80850002D01*
X98275000Y-80740001D01*
X98274999Y-80740000D01*
X97687383Y-80740000D01*
X97725000Y-80611889D01*
X97725000Y-80468111D01*
X97687383Y-80340000D01*
X98274999Y-80340000D01*
X98275000Y-80339999D01*
X98275000Y-79670302D01*
X98274999Y-79670299D01*
X98263396Y-79611963D01*
X98219193Y-79545810D01*
X98219189Y-79545806D01*
X98153036Y-79501603D01*
X98094700Y-79490000D01*
X97425000Y-79490000D01*
X97425000Y-80081664D01*
X97367315Y-80055320D01*
X97260763Y-80040000D01*
X97189237Y-80040000D01*
X97082685Y-80055320D01*
X97025000Y-80081664D01*
X97025000Y-79490001D01*
X97024999Y-79490000D01*
X96355299Y-79490000D01*
X96296963Y-79501603D01*
X96230810Y-79545806D01*
X96230806Y-79545810D01*
X96186603Y-79611963D01*
X96175000Y-79670299D01*
X96175000Y-80339998D01*
X96175001Y-80340000D01*
X96762617Y-80340000D01*
X96725000Y-80468111D01*
X96725000Y-80611889D01*
X96762617Y-80740000D01*
X96175001Y-80740000D01*
X96175000Y-80740001D01*
X96175000Y-81409700D01*
X79330500Y-81409700D01*
X79330500Y-77400000D01*
X96145287Y-77400000D01*
X96164097Y-77602989D01*
X96219887Y-77799070D01*
X96310752Y-77981552D01*
X96310761Y-77981567D01*
X96342955Y-78024198D01*
X96719416Y-77647737D01*
X96739003Y-77695024D01*
X96832773Y-77817227D01*
X96954976Y-77910997D01*
X97002259Y-77930582D01*
X96625641Y-78307201D01*
X96757581Y-78388895D01*
X96757586Y-78388898D01*
X96947683Y-78462541D01*
X97148070Y-78500000D01*
X97351930Y-78500000D01*
X97552316Y-78462541D01*
X97742415Y-78388897D01*
X97742421Y-78388894D01*
X97874357Y-78307201D01*
X97497739Y-77930583D01*
X97545024Y-77910997D01*
X97667227Y-77817227D01*
X97760997Y-77695024D01*
X97780583Y-77647739D01*
X98157042Y-78024198D01*
X98189243Y-77981559D01*
X98189249Y-77981549D01*
X98280112Y-77799070D01*
X98335902Y-77602989D01*
X98354712Y-77399999D01*
X98335902Y-77197010D01*
X98280112Y-77000929D01*
X98189247Y-76818447D01*
X98189242Y-76818438D01*
X98157042Y-76775800D01*
X97780582Y-77152259D01*
X97760997Y-77104976D01*
X97667227Y-76982773D01*
X97545024Y-76889003D01*
X97497737Y-76869416D01*
X97874357Y-76492797D01*
X97742418Y-76411104D01*
X97742413Y-76411101D01*
X97552316Y-76337458D01*
X97351930Y-76300000D01*
X97148070Y-76300000D01*
X96947683Y-76337458D01*
X96757586Y-76411101D01*
X96757584Y-76411102D01*
X96625641Y-76492797D01*
X97002260Y-76869416D01*
X96954976Y-76889003D01*
X96832773Y-76982773D01*
X96739003Y-77104976D01*
X96719416Y-77152260D01*
X96342957Y-76775801D01*
X96310755Y-76818442D01*
X96310750Y-76818451D01*
X96219887Y-77000929D01*
X96164097Y-77197010D01*
X96145287Y-77400000D01*
X79330500Y-77400000D01*
X79330500Y-76141900D01*
X79349407Y-76083709D01*
X79359496Y-76071896D01*
X80508021Y-74923371D01*
X81665341Y-73766050D01*
X81719856Y-73738275D01*
X81764077Y-73741318D01*
X81869245Y-73773220D01*
X81909065Y-73785300D01*
X81909070Y-73785301D01*
X82114997Y-73805583D01*
X82115000Y-73805583D01*
X82115003Y-73805583D01*
X82320929Y-73785301D01*
X82320934Y-73785300D01*
X82331341Y-73782143D01*
X82518954Y-73725232D01*
X82701450Y-73627685D01*
X82861410Y-73496410D01*
X82992685Y-73336450D01*
X83090232Y-73153954D01*
X83150300Y-72955934D01*
X83150301Y-72955929D01*
X83170583Y-72750003D01*
X83170583Y-72749996D01*
X83150301Y-72544070D01*
X83150300Y-72544065D01*
X83099829Y-72377685D01*
X83090232Y-72346046D01*
X82992685Y-72163550D01*
X82988953Y-72159003D01*
X82861414Y-72003595D01*
X82861410Y-72003590D01*
X82820422Y-71969952D01*
X82701452Y-71872316D01*
X82518954Y-71774768D01*
X82320934Y-71714699D01*
X82320929Y-71714698D01*
X82115003Y-71694417D01*
X82114997Y-71694417D01*
X81909070Y-71714698D01*
X81909065Y-71714699D01*
X81711045Y-71774768D01*
X81528547Y-71872316D01*
X81368595Y-72003585D01*
X81368585Y-72003595D01*
X81237316Y-72163547D01*
X81139768Y-72346045D01*
X81079699Y-72544065D01*
X81079698Y-72544070D01*
X81059417Y-72749996D01*
X81059417Y-72750003D01*
X81079698Y-72955929D01*
X81079699Y-72955934D01*
X81123679Y-73100917D01*
X81122478Y-73162091D01*
X81098946Y-73199658D01*
X80794504Y-73504101D01*
X80739987Y-73531879D01*
X80679555Y-73522308D01*
X80636290Y-73479043D01*
X80625500Y-73434098D01*
X80625500Y-71880253D01*
X80625498Y-71880241D01*
X80619211Y-71848634D01*
X80613867Y-71821769D01*
X80569552Y-71755448D01*
X80569548Y-71755445D01*
X80503233Y-71711134D01*
X80503231Y-71711133D01*
X80503228Y-71711132D01*
X80503227Y-71711132D01*
X80444758Y-71699501D01*
X80444748Y-71699500D01*
X78705252Y-71699500D01*
X78705251Y-71699500D01*
X78705241Y-71699501D01*
X78646772Y-71711132D01*
X78646766Y-71711134D01*
X78580451Y-71755445D01*
X78580445Y-71755451D01*
X78536134Y-71821766D01*
X78536132Y-71821772D01*
X78524501Y-71880241D01*
X78524500Y-71880253D01*
X78524500Y-73619746D01*
X78524501Y-73619758D01*
X78536132Y-73678227D01*
X78536134Y-73678233D01*
X78579047Y-73742456D01*
X78580448Y-73744552D01*
X78646769Y-73788867D01*
X78691231Y-73797711D01*
X78705241Y-73800498D01*
X78705246Y-73800498D01*
X78705252Y-73800500D01*
X78705253Y-73800500D01*
X80259099Y-73800500D01*
X80317290Y-73819407D01*
X80353254Y-73868907D01*
X80353254Y-73930093D01*
X80329103Y-73969504D01*
X78624515Y-75674092D01*
X78601950Y-75696658D01*
X78601948Y-75696660D01*
X78590997Y-75718151D01*
X78582887Y-75731385D01*
X78568706Y-75750906D01*
X78568701Y-75750915D01*
X78561249Y-75773852D01*
X78555305Y-75788202D01*
X78544355Y-75809691D01*
X78544352Y-75809701D01*
X78540577Y-75833530D01*
X78536953Y-75848624D01*
X78529499Y-75871567D01*
X78529498Y-75944462D01*
X78529500Y-75944488D01*
X78529500Y-76279125D01*
X78510593Y-76337316D01*
X78461093Y-76373280D01*
X78399907Y-76373280D01*
X78360498Y-76349130D01*
X78268656Y-76257288D01*
X78268653Y-76257286D01*
X78268652Y-76257285D01*
X78119336Y-76165187D01*
X78119335Y-76165186D01*
X78119334Y-76165186D01*
X77952797Y-76110001D01*
X77952794Y-76110000D01*
X77850016Y-76099500D01*
X76649983Y-76099500D01*
X76547211Y-76109999D01*
X76547199Y-76110002D01*
X76380663Y-76165187D01*
X76231347Y-76257285D01*
X76107285Y-76381347D01*
X76015187Y-76530663D01*
X75960000Y-76697205D01*
X75949500Y-76799983D01*
X75949500Y-78000016D01*
X75959999Y-78102788D01*
X75960002Y-78102800D01*
X76015187Y-78269336D01*
X76107285Y-78418652D01*
X76107286Y-78418653D01*
X76107288Y-78418656D01*
X76231344Y-78542712D01*
X76231346Y-78542713D01*
X76231347Y-78542714D01*
X76253236Y-78556215D01*
X76380666Y-78634814D01*
X76547203Y-78689999D01*
X76649991Y-78700500D01*
X77850008Y-78700499D01*
X77850016Y-78700499D01*
X77952788Y-78690000D01*
X77952788Y-78689999D01*
X77952797Y-78689999D01*
X78119334Y-78634814D01*
X78268656Y-78542712D01*
X78360498Y-78450869D01*
X78415013Y-78423094D01*
X78475445Y-78432665D01*
X78518710Y-78475930D01*
X78529500Y-78520875D01*
X78529500Y-84838583D01*
X78510593Y-84896774D01*
X78477169Y-84925893D01*
X78343547Y-84997316D01*
X78183595Y-85128585D01*
X78183585Y-85128595D01*
X78052316Y-85288547D01*
X77954768Y-85471045D01*
X77894699Y-85669065D01*
X77894698Y-85669070D01*
X77874417Y-85874996D01*
X77874417Y-85875003D01*
X77894698Y-86080929D01*
X77894699Y-86080934D01*
X77954768Y-86278954D01*
X78052316Y-86461452D01*
X78183302Y-86621059D01*
X78183590Y-86621410D01*
X78183595Y-86621414D01*
X78343547Y-86752683D01*
X78343548Y-86752683D01*
X78343550Y-86752685D01*
X78477169Y-86824106D01*
X78519575Y-86868212D01*
X78529500Y-86911416D01*
X78529500Y-87378583D01*
X78510593Y-87436774D01*
X78477169Y-87465893D01*
X78343547Y-87537316D01*
X78183595Y-87668585D01*
X78183585Y-87668595D01*
X78052316Y-87828547D01*
X77954768Y-88011045D01*
X77894699Y-88209065D01*
X77894698Y-88209070D01*
X77874417Y-88414996D01*
X77874417Y-88415003D01*
X77894698Y-88620929D01*
X77894699Y-88620934D01*
X77954768Y-88818954D01*
X78052316Y-89001452D01*
X78183302Y-89161059D01*
X78183590Y-89161410D01*
X78183595Y-89161414D01*
X78343547Y-89292683D01*
X78343548Y-89292683D01*
X78343550Y-89292685D01*
X78526046Y-89390232D01*
X78647572Y-89427096D01*
X78724065Y-89450300D01*
X78724070Y-89450301D01*
X78929997Y-89470583D01*
X78930000Y-89470583D01*
X78930003Y-89470583D01*
X79135929Y-89450301D01*
X79135934Y-89450300D01*
X79145422Y-89447422D01*
X79280918Y-89406320D01*
X79342091Y-89407521D01*
X79379660Y-89431053D01*
X80954092Y-91005485D01*
X80976656Y-91028048D01*
X80976658Y-91028050D01*
X80998147Y-91038999D01*
X81011392Y-91047115D01*
X81030910Y-91061296D01*
X81053851Y-91068749D01*
X81068201Y-91074694D01*
X81089691Y-91085644D01*
X81089693Y-91085644D01*
X81089696Y-91085646D01*
X81113517Y-91089418D01*
X81128613Y-91093042D01*
X81151567Y-91100500D01*
X81151569Y-91100500D01*
X91963432Y-91100500D01*
X91963433Y-91100500D01*
X91986382Y-91093043D01*
X92001465Y-91089421D01*
X92025304Y-91085646D01*
X92046802Y-91074690D01*
X92061151Y-91068748D01*
X92084090Y-91061296D01*
X92103612Y-91047111D01*
X92116849Y-91039000D01*
X92138342Y-91028050D01*
X92155261Y-91011129D01*
X92155265Y-91011127D01*
X92160907Y-91005484D01*
X92160909Y-91005484D01*
X93666390Y-89500003D01*
X94895093Y-89500003D01*
X94914697Y-89786614D01*
X94914699Y-89786623D01*
X94973147Y-90067893D01*
X95069358Y-90338602D01*
X95201525Y-90593674D01*
X95367193Y-90828372D01*
X95367206Y-90828387D01*
X95377618Y-90839536D01*
X96093619Y-90123534D01*
X96164894Y-90223624D01*
X96316932Y-90368592D01*
X96376176Y-90406665D01*
X95663209Y-91119633D01*
X95663208Y-91119633D01*
X95786132Y-91219638D01*
X95786148Y-91219649D01*
X96031601Y-91368913D01*
X96031608Y-91368917D01*
X96295107Y-91483370D01*
X96571740Y-91560879D01*
X96571749Y-91560881D01*
X96856356Y-91599999D01*
X96856362Y-91600000D01*
X97143638Y-91600000D01*
X97143643Y-91599999D01*
X97428250Y-91560881D01*
X97428259Y-91560879D01*
X97704892Y-91483370D01*
X97968391Y-91368917D01*
X97968398Y-91368913D01*
X98213851Y-91219649D01*
X98213867Y-91219638D01*
X98336789Y-91119633D01*
X97625026Y-90407870D01*
X97762540Y-90299729D01*
X97900110Y-90140965D01*
X97908784Y-90125940D01*
X98622380Y-90839536D01*
X98622381Y-90839536D01*
X98632796Y-90828386D01*
X98632797Y-90828385D01*
X98798474Y-90593674D01*
X98930641Y-90338602D01*
X99026852Y-90067893D01*
X99085300Y-89786623D01*
X99085302Y-89786614D01*
X99104907Y-89500003D01*
X99104907Y-89499996D01*
X99085302Y-89213385D01*
X99085300Y-89213376D01*
X99026852Y-88932106D01*
X98930641Y-88661397D01*
X98798474Y-88406325D01*
X98632806Y-88171627D01*
X98632793Y-88171612D01*
X98622380Y-88160462D01*
X97906378Y-88876463D01*
X97835106Y-88776376D01*
X97683068Y-88631408D01*
X97623822Y-88593332D01*
X98336789Y-87880366D01*
X98213857Y-87780354D01*
X98213851Y-87780350D01*
X97968398Y-87631086D01*
X97968391Y-87631082D01*
X97704892Y-87516629D01*
X97428259Y-87439120D01*
X97428250Y-87439118D01*
X97143643Y-87400000D01*
X96856356Y-87400000D01*
X96571749Y-87439118D01*
X96571740Y-87439120D01*
X96295107Y-87516629D01*
X96031608Y-87631082D01*
X96031601Y-87631086D01*
X95786148Y-87780350D01*
X95786134Y-87780360D01*
X95663208Y-87880365D01*
X96374972Y-88592129D01*
X96237460Y-88700271D01*
X96099890Y-88859035D01*
X96091215Y-88874059D01*
X95377619Y-88160462D01*
X95367199Y-88171619D01*
X95201525Y-88406325D01*
X95069358Y-88661397D01*
X94973147Y-88932106D01*
X94914699Y-89213376D01*
X94914697Y-89213385D01*
X94895093Y-89499996D01*
X94895093Y-89500003D01*
X93666390Y-89500003D01*
X95936897Y-87229496D01*
X95991414Y-87201719D01*
X96006901Y-87200500D01*
X98093099Y-87200500D01*
X98151290Y-87219407D01*
X98163103Y-87229496D01*
X99654092Y-88720485D01*
X99676656Y-88743048D01*
X99676658Y-88743050D01*
X99698147Y-88753999D01*
X99711392Y-88762115D01*
X99730910Y-88776296D01*
X99753851Y-88783749D01*
X99768201Y-88789694D01*
X99789691Y-88800644D01*
X99789693Y-88800644D01*
X99789696Y-88800646D01*
X99813517Y-88804418D01*
X99828613Y-88808042D01*
X99851567Y-88815500D01*
X99883481Y-88815500D01*
X100753584Y-88815500D01*
X100811775Y-88834407D01*
X100840892Y-88867829D01*
X100861515Y-88906410D01*
X100912316Y-89001452D01*
X101043302Y-89161059D01*
X101043590Y-89161410D01*
X101043595Y-89161414D01*
X101203547Y-89292683D01*
X101203548Y-89292683D01*
X101203550Y-89292685D01*
X101386046Y-89390232D01*
X101507572Y-89427096D01*
X101584065Y-89450300D01*
X101584070Y-89450301D01*
X101789997Y-89470583D01*
X101790000Y-89470583D01*
X101790003Y-89470583D01*
X101995929Y-89450301D01*
X101995934Y-89450300D01*
X102005422Y-89447422D01*
X102153962Y-89402363D01*
X102215135Y-89403564D01*
X102252704Y-89427096D01*
X103563950Y-90738342D01*
X103563949Y-90738342D01*
X103653657Y-90828049D01*
X103653658Y-90828050D01*
X103675149Y-90839000D01*
X103688395Y-90847117D01*
X103707910Y-90861296D01*
X103707912Y-90861296D01*
X103707913Y-90861297D01*
X103730852Y-90868750D01*
X103745195Y-90874690D01*
X103766696Y-90885646D01*
X103790524Y-90889419D01*
X103805633Y-90893047D01*
X103814194Y-90895828D01*
X103828567Y-90900499D01*
X103858437Y-90900499D01*
X103858461Y-90900500D01*
X103860481Y-90900500D01*
X115263432Y-90900500D01*
X115263433Y-90900500D01*
X115286382Y-90893043D01*
X115301465Y-90889421D01*
X115325304Y-90885646D01*
X115346802Y-90874690D01*
X115361151Y-90868748D01*
X115384090Y-90861296D01*
X115403612Y-90847111D01*
X115416849Y-90839000D01*
X115438342Y-90828050D01*
X115455261Y-90811129D01*
X115455265Y-90811127D01*
X115460907Y-90805485D01*
X115460909Y-90805484D01*
X117745505Y-88520887D01*
X117787614Y-88495903D01*
X117910053Y-88459953D01*
X117993274Y-88406469D01*
X118052445Y-88390916D01*
X118109461Y-88413114D01*
X118142541Y-88464586D01*
X118139049Y-88525672D01*
X118134695Y-88535301D01*
X118069358Y-88661397D01*
X117973147Y-88932106D01*
X117914699Y-89213376D01*
X117914697Y-89213385D01*
X117895093Y-89499996D01*
X117895093Y-89500003D01*
X117914697Y-89786614D01*
X117914699Y-89786623D01*
X117973147Y-90067893D01*
X118069358Y-90338602D01*
X118201525Y-90593674D01*
X118367193Y-90828372D01*
X118367206Y-90828387D01*
X118377618Y-90839536D01*
X119093620Y-90123534D01*
X119164894Y-90223624D01*
X119316932Y-90368592D01*
X119376176Y-90406665D01*
X118663209Y-91119633D01*
X118663208Y-91119633D01*
X118786132Y-91219638D01*
X118786148Y-91219649D01*
X119031601Y-91368913D01*
X119031608Y-91368917D01*
X119295107Y-91483370D01*
X119571740Y-91560879D01*
X119571749Y-91560881D01*
X119856356Y-91599999D01*
X119856362Y-91600000D01*
X120143638Y-91600000D01*
X120143643Y-91599999D01*
X120428250Y-91560881D01*
X120428259Y-91560879D01*
X120704892Y-91483370D01*
X120968391Y-91368917D01*
X120968398Y-91368913D01*
X121213851Y-91219649D01*
X121213867Y-91219638D01*
X121336789Y-91119633D01*
X120625026Y-90407870D01*
X120762540Y-90299729D01*
X120900110Y-90140965D01*
X120908784Y-90125940D01*
X121622380Y-90839536D01*
X121622381Y-90839536D01*
X121632796Y-90828386D01*
X121632797Y-90828385D01*
X121798474Y-90593674D01*
X121930641Y-90338602D01*
X122026852Y-90067893D01*
X122085300Y-89786623D01*
X122085302Y-89786614D01*
X122104907Y-89500003D01*
X122104907Y-89499996D01*
X122085302Y-89213385D01*
X122085300Y-89213376D01*
X122026852Y-88932106D01*
X121930641Y-88661397D01*
X121798474Y-88406325D01*
X121632806Y-88171627D01*
X121632793Y-88171612D01*
X121622380Y-88160462D01*
X120906378Y-88876463D01*
X120835106Y-88776376D01*
X120683068Y-88631408D01*
X120623822Y-88593333D01*
X121336789Y-87880366D01*
X121213857Y-87780354D01*
X121213851Y-87780350D01*
X120968398Y-87631086D01*
X120968391Y-87631082D01*
X120704892Y-87516629D01*
X120627086Y-87494829D01*
X120576154Y-87460923D01*
X120554879Y-87403556D01*
X120571387Y-87344639D01*
X120619372Y-87306678D01*
X120653796Y-87300500D01*
X122363432Y-87300500D01*
X122363433Y-87300500D01*
X122386382Y-87293043D01*
X122401465Y-87289421D01*
X122425304Y-87285646D01*
X122446802Y-87274690D01*
X122461151Y-87268748D01*
X122484090Y-87261296D01*
X122503612Y-87247111D01*
X122516849Y-87239000D01*
X122538342Y-87228050D01*
X122555261Y-87211129D01*
X122555265Y-87211127D01*
X122560907Y-87205484D01*
X122560909Y-87205484D01*
X123461896Y-86304496D01*
X123516414Y-86276719D01*
X123531901Y-86275500D01*
X123613584Y-86275500D01*
X123671775Y-86294407D01*
X123700892Y-86327829D01*
X123747142Y-86414355D01*
X123772316Y-86461452D01*
X123903302Y-86621059D01*
X123903590Y-86621410D01*
X123903595Y-86621414D01*
X124063547Y-86752683D01*
X124063548Y-86752683D01*
X124063550Y-86752685D01*
X124197169Y-86824106D01*
X124239575Y-86868212D01*
X124249500Y-86911416D01*
X124249500Y-87378583D01*
X124230593Y-87436774D01*
X124197169Y-87465893D01*
X124063547Y-87537316D01*
X123903595Y-87668585D01*
X123903585Y-87668595D01*
X123772316Y-87828547D01*
X123674768Y-88011045D01*
X123614699Y-88209065D01*
X123614698Y-88209070D01*
X123594417Y-88414996D01*
X123594417Y-88415003D01*
X123614698Y-88620929D01*
X123614699Y-88620934D01*
X123674768Y-88818954D01*
X123772316Y-89001452D01*
X123903302Y-89161059D01*
X123903590Y-89161410D01*
X123903595Y-89161414D01*
X124063547Y-89292683D01*
X124063548Y-89292683D01*
X124063550Y-89292685D01*
X124246046Y-89390232D01*
X124367572Y-89427096D01*
X124444065Y-89450300D01*
X124444070Y-89450301D01*
X124649997Y-89470583D01*
X124650000Y-89470583D01*
X124650003Y-89470583D01*
X124855929Y-89450301D01*
X124855934Y-89450300D01*
X124857559Y-89449807D01*
X125053954Y-89390232D01*
X125236450Y-89292685D01*
X125396410Y-89161410D01*
X125527685Y-89001450D01*
X125625232Y-88818954D01*
X125685300Y-88620934D01*
X125685301Y-88620929D01*
X125685885Y-88615000D01*
X126154617Y-88615000D01*
X126155192Y-88620834D01*
X126155194Y-88620844D01*
X126215232Y-88818762D01*
X126215234Y-88818767D01*
X126312724Y-89001160D01*
X126312731Y-89001170D01*
X126443940Y-89161050D01*
X126443949Y-89161059D01*
X126603829Y-89292268D01*
X126603839Y-89292275D01*
X126786232Y-89389765D01*
X126786237Y-89389767D01*
X126984158Y-89449806D01*
X126984160Y-89449807D01*
X126990000Y-89450381D01*
X126989999Y-88873335D01*
X127047685Y-88899680D01*
X127154237Y-88915000D01*
X127225763Y-88915000D01*
X127332315Y-88899680D01*
X127390000Y-88873335D01*
X127390000Y-89450381D01*
X127395839Y-89449807D01*
X127395841Y-89449806D01*
X127593762Y-89389767D01*
X127593767Y-89389765D01*
X127776160Y-89292275D01*
X127776170Y-89292268D01*
X127936050Y-89161059D01*
X127936059Y-89161050D01*
X128067268Y-89001170D01*
X128067275Y-89001160D01*
X128164765Y-88818767D01*
X128164767Y-88818762D01*
X128224805Y-88620844D01*
X128224807Y-88620834D01*
X128225383Y-88615000D01*
X127652383Y-88615000D01*
X127690000Y-88486889D01*
X127690000Y-88415003D01*
X128674417Y-88415003D01*
X128694698Y-88620929D01*
X128694699Y-88620934D01*
X128754768Y-88818954D01*
X128852316Y-89001452D01*
X128983302Y-89161059D01*
X128983590Y-89161410D01*
X128983595Y-89161414D01*
X129143547Y-89292683D01*
X129143548Y-89292683D01*
X129143550Y-89292685D01*
X129326046Y-89390232D01*
X129447572Y-89427096D01*
X129524065Y-89450300D01*
X129524070Y-89450301D01*
X129729997Y-89470583D01*
X129730000Y-89470583D01*
X129730003Y-89470583D01*
X129935929Y-89450301D01*
X129935934Y-89450300D01*
X129937559Y-89449807D01*
X130133954Y-89390232D01*
X130316450Y-89292685D01*
X130476410Y-89161410D01*
X130607685Y-89001450D01*
X130705232Y-88818954D01*
X130765300Y-88620934D01*
X130765301Y-88620929D01*
X130785583Y-88415003D01*
X131214417Y-88415003D01*
X131234698Y-88620929D01*
X131234699Y-88620934D01*
X131294768Y-88818954D01*
X131392316Y-89001452D01*
X131523302Y-89161059D01*
X131523590Y-89161410D01*
X131523595Y-89161414D01*
X131683547Y-89292683D01*
X131683548Y-89292683D01*
X131683550Y-89292685D01*
X131866046Y-89390232D01*
X131987572Y-89427096D01*
X132064065Y-89450300D01*
X132064070Y-89450301D01*
X132269997Y-89470583D01*
X132270000Y-89470583D01*
X132270003Y-89470583D01*
X132475929Y-89450301D01*
X132475934Y-89450300D01*
X132477559Y-89449807D01*
X132673954Y-89390232D01*
X132856450Y-89292685D01*
X133016410Y-89161410D01*
X133147685Y-89001450D01*
X133245232Y-88818954D01*
X133305300Y-88620934D01*
X133305301Y-88620929D01*
X133325583Y-88415003D01*
X133754417Y-88415003D01*
X133774698Y-88620929D01*
X133774699Y-88620934D01*
X133834768Y-88818954D01*
X133932316Y-89001452D01*
X134063302Y-89161059D01*
X134063590Y-89161410D01*
X134063595Y-89161414D01*
X134223547Y-89292683D01*
X134223548Y-89292683D01*
X134223550Y-89292685D01*
X134406046Y-89390232D01*
X134527572Y-89427096D01*
X134604065Y-89450300D01*
X134604070Y-89450301D01*
X134809997Y-89470583D01*
X134810000Y-89470583D01*
X134810003Y-89470583D01*
X135015929Y-89450301D01*
X135015934Y-89450300D01*
X135017559Y-89449807D01*
X135213954Y-89390232D01*
X135396450Y-89292685D01*
X135556410Y-89161410D01*
X135687685Y-89001450D01*
X135785232Y-88818954D01*
X135845300Y-88620934D01*
X135845301Y-88620929D01*
X135865583Y-88415003D01*
X136294417Y-88415003D01*
X136314698Y-88620929D01*
X136314699Y-88620934D01*
X136374768Y-88818954D01*
X136472316Y-89001452D01*
X136603302Y-89161059D01*
X136603590Y-89161410D01*
X136603595Y-89161414D01*
X136763547Y-89292683D01*
X136763548Y-89292683D01*
X136763550Y-89292685D01*
X136946046Y-89390232D01*
X137067572Y-89427096D01*
X137144065Y-89450300D01*
X137144070Y-89450301D01*
X137349997Y-89470583D01*
X137350000Y-89470583D01*
X137350003Y-89470583D01*
X137555929Y-89450301D01*
X137555934Y-89450300D01*
X137557559Y-89449807D01*
X137753954Y-89390232D01*
X137936450Y-89292685D01*
X138096410Y-89161410D01*
X138227685Y-89001450D01*
X138325232Y-88818954D01*
X138385300Y-88620934D01*
X138385301Y-88620929D01*
X138405583Y-88415003D01*
X138405583Y-88414996D01*
X138385301Y-88209070D01*
X138385300Y-88209065D01*
X138343402Y-88070946D01*
X138325232Y-88011046D01*
X138227685Y-87828550D01*
X138178825Y-87769014D01*
X138096414Y-87668595D01*
X138096410Y-87668590D01*
X138050706Y-87631082D01*
X137936452Y-87537316D01*
X137753954Y-87439768D01*
X137555934Y-87379699D01*
X137555929Y-87379698D01*
X137350003Y-87359417D01*
X137349997Y-87359417D01*
X137144070Y-87379698D01*
X137144065Y-87379699D01*
X136946045Y-87439768D01*
X136763547Y-87537316D01*
X136603595Y-87668585D01*
X136603585Y-87668595D01*
X136472316Y-87828547D01*
X136374768Y-88011045D01*
X136314699Y-88209065D01*
X136314698Y-88209070D01*
X136294417Y-88414996D01*
X136294417Y-88415003D01*
X135865583Y-88415003D01*
X135865583Y-88414996D01*
X135845301Y-88209070D01*
X135845300Y-88209065D01*
X135803402Y-88070946D01*
X135785232Y-88011046D01*
X135687685Y-87828550D01*
X135638825Y-87769014D01*
X135556414Y-87668595D01*
X135556410Y-87668590D01*
X135510706Y-87631082D01*
X135396452Y-87537316D01*
X135213954Y-87439768D01*
X135015934Y-87379699D01*
X135015929Y-87379698D01*
X134810003Y-87359417D01*
X134809997Y-87359417D01*
X134604070Y-87379698D01*
X134604065Y-87379699D01*
X134406045Y-87439768D01*
X134223547Y-87537316D01*
X134063595Y-87668585D01*
X134063585Y-87668595D01*
X133932316Y-87828547D01*
X133834768Y-88011045D01*
X133774699Y-88209065D01*
X133774698Y-88209070D01*
X133754417Y-88414996D01*
X133754417Y-88415003D01*
X133325583Y-88415003D01*
X133325583Y-88414996D01*
X133305301Y-88209070D01*
X133305300Y-88209065D01*
X133263402Y-88070946D01*
X133245232Y-88011046D01*
X133147685Y-87828550D01*
X133098825Y-87769014D01*
X133016414Y-87668595D01*
X133016410Y-87668590D01*
X132970706Y-87631082D01*
X132856452Y-87537316D01*
X132673954Y-87439768D01*
X132475934Y-87379699D01*
X132475929Y-87379698D01*
X132270003Y-87359417D01*
X132269997Y-87359417D01*
X132064070Y-87379698D01*
X132064065Y-87379699D01*
X131866045Y-87439768D01*
X131683547Y-87537316D01*
X131523595Y-87668585D01*
X131523585Y-87668595D01*
X131392316Y-87828547D01*
X131294768Y-88011045D01*
X131234699Y-88209065D01*
X131234698Y-88209070D01*
X131214417Y-88414996D01*
X131214417Y-88415003D01*
X130785583Y-88415003D01*
X130785583Y-88414996D01*
X130765301Y-88209070D01*
X130765300Y-88209065D01*
X130723402Y-88070946D01*
X130705232Y-88011046D01*
X130607685Y-87828550D01*
X130558825Y-87769014D01*
X130476414Y-87668595D01*
X130476410Y-87668590D01*
X130430706Y-87631082D01*
X130316452Y-87537316D01*
X130133954Y-87439768D01*
X129935934Y-87379699D01*
X129935929Y-87379698D01*
X129730003Y-87359417D01*
X129729997Y-87359417D01*
X129524070Y-87379698D01*
X129524065Y-87379699D01*
X129326045Y-87439768D01*
X129143547Y-87537316D01*
X128983595Y-87668585D01*
X128983585Y-87668595D01*
X128852316Y-87828547D01*
X128754768Y-88011045D01*
X128694699Y-88209065D01*
X128694698Y-88209070D01*
X128674417Y-88414996D01*
X128674417Y-88415003D01*
X127690000Y-88415003D01*
X127690000Y-88343111D01*
X127652383Y-88215000D01*
X128225382Y-88215000D01*
X128224807Y-88209165D01*
X128224805Y-88209155D01*
X128164767Y-88011237D01*
X128164765Y-88011232D01*
X128067275Y-87828839D01*
X128067268Y-87828829D01*
X127936059Y-87668949D01*
X127936050Y-87668940D01*
X127776170Y-87537731D01*
X127776160Y-87537724D01*
X127593767Y-87440234D01*
X127593762Y-87440232D01*
X127395844Y-87380194D01*
X127395834Y-87380192D01*
X127390000Y-87379617D01*
X127390000Y-87956664D01*
X127332315Y-87930320D01*
X127225763Y-87915000D01*
X127154237Y-87915000D01*
X127047685Y-87930320D01*
X126990000Y-87956664D01*
X126990000Y-87379617D01*
X126984165Y-87380192D01*
X126984155Y-87380194D01*
X126786237Y-87440232D01*
X126786232Y-87440234D01*
X126603839Y-87537724D01*
X126603829Y-87537731D01*
X126443949Y-87668940D01*
X126443940Y-87668949D01*
X126312731Y-87828829D01*
X126312724Y-87828839D01*
X126215234Y-88011232D01*
X126215232Y-88011237D01*
X126155194Y-88209155D01*
X126155192Y-88209165D01*
X126154617Y-88215000D01*
X126727617Y-88215000D01*
X126690000Y-88343111D01*
X126690000Y-88486889D01*
X126727617Y-88615000D01*
X126154617Y-88615000D01*
X125685885Y-88615000D01*
X125705583Y-88415003D01*
X125705583Y-88414996D01*
X125685301Y-88209070D01*
X125685300Y-88209065D01*
X125643402Y-88070946D01*
X125625232Y-88011046D01*
X125527685Y-87828550D01*
X125478825Y-87769014D01*
X125396414Y-87668595D01*
X125396410Y-87668590D01*
X125350706Y-87631082D01*
X125236452Y-87537316D01*
X125102831Y-87465893D01*
X125060425Y-87421787D01*
X125050500Y-87378583D01*
X125050500Y-86911416D01*
X125069407Y-86853225D01*
X125102829Y-86824107D01*
X125236450Y-86752685D01*
X125396410Y-86621410D01*
X125527685Y-86461450D01*
X125625232Y-86278954D01*
X125685300Y-86080934D01*
X125685301Y-86080929D01*
X125685885Y-86075000D01*
X126154617Y-86075000D01*
X126155192Y-86080834D01*
X126155194Y-86080844D01*
X126215232Y-86278762D01*
X126215234Y-86278767D01*
X126312724Y-86461160D01*
X126312731Y-86461170D01*
X126443940Y-86621050D01*
X126443949Y-86621059D01*
X126603829Y-86752268D01*
X126603839Y-86752275D01*
X126786232Y-86849765D01*
X126786237Y-86849767D01*
X126984158Y-86909806D01*
X126984160Y-86909807D01*
X126990000Y-86910381D01*
X126989999Y-86333335D01*
X127047685Y-86359680D01*
X127154237Y-86375000D01*
X127225763Y-86375000D01*
X127332315Y-86359680D01*
X127390000Y-86333335D01*
X127390000Y-86910381D01*
X127395839Y-86909807D01*
X127395841Y-86909806D01*
X127593762Y-86849767D01*
X127593767Y-86849765D01*
X127776160Y-86752275D01*
X127776170Y-86752268D01*
X127936050Y-86621059D01*
X127936059Y-86621050D01*
X128067268Y-86461170D01*
X128067275Y-86461160D01*
X128164765Y-86278767D01*
X128164767Y-86278762D01*
X128224805Y-86080844D01*
X128224807Y-86080834D01*
X128225383Y-86075000D01*
X127652383Y-86075000D01*
X127690000Y-85946889D01*
X127690000Y-85875003D01*
X128674417Y-85875003D01*
X128694698Y-86080929D01*
X128694699Y-86080934D01*
X128754768Y-86278954D01*
X128852316Y-86461452D01*
X128983302Y-86621059D01*
X128983590Y-86621410D01*
X128983595Y-86621414D01*
X129143547Y-86752683D01*
X129143548Y-86752683D01*
X129143550Y-86752685D01*
X129326046Y-86850232D01*
X129463997Y-86892078D01*
X129524065Y-86910300D01*
X129524070Y-86910301D01*
X129729997Y-86930583D01*
X129730000Y-86930583D01*
X129730003Y-86930583D01*
X129935929Y-86910301D01*
X129935934Y-86910300D01*
X129937559Y-86909807D01*
X130133954Y-86850232D01*
X130316450Y-86752685D01*
X130476410Y-86621410D01*
X130607685Y-86461450D01*
X130705232Y-86278954D01*
X130765300Y-86080934D01*
X130765301Y-86080929D01*
X130785583Y-85875003D01*
X131214417Y-85875003D01*
X131234698Y-86080929D01*
X131234699Y-86080934D01*
X131294768Y-86278954D01*
X131392316Y-86461452D01*
X131523302Y-86621059D01*
X131523590Y-86621410D01*
X131523595Y-86621414D01*
X131683547Y-86752683D01*
X131683548Y-86752683D01*
X131683550Y-86752685D01*
X131866046Y-86850232D01*
X132003997Y-86892078D01*
X132064065Y-86910300D01*
X132064070Y-86910301D01*
X132269997Y-86930583D01*
X132270000Y-86930583D01*
X132270003Y-86930583D01*
X132475929Y-86910301D01*
X132475934Y-86910300D01*
X132477559Y-86909807D01*
X132673954Y-86850232D01*
X132856450Y-86752685D01*
X133016410Y-86621410D01*
X133147685Y-86461450D01*
X133245232Y-86278954D01*
X133305300Y-86080934D01*
X133305301Y-86080929D01*
X133325583Y-85875003D01*
X133754417Y-85875003D01*
X133774698Y-86080929D01*
X133774699Y-86080934D01*
X133834768Y-86278954D01*
X133932316Y-86461452D01*
X134063302Y-86621059D01*
X134063590Y-86621410D01*
X134063595Y-86621414D01*
X134223547Y-86752683D01*
X134223548Y-86752683D01*
X134223550Y-86752685D01*
X134406046Y-86850232D01*
X134543997Y-86892078D01*
X134604065Y-86910300D01*
X134604070Y-86910301D01*
X134809997Y-86930583D01*
X134810000Y-86930583D01*
X134810003Y-86930583D01*
X135015929Y-86910301D01*
X135015934Y-86910300D01*
X135017559Y-86909807D01*
X135213954Y-86850232D01*
X135396450Y-86752685D01*
X135406124Y-86744746D01*
X136299500Y-86744746D01*
X136299501Y-86744758D01*
X136311132Y-86803227D01*
X136311134Y-86803233D01*
X136355445Y-86869548D01*
X136355448Y-86869552D01*
X136421769Y-86913867D01*
X136466231Y-86922711D01*
X136480241Y-86925498D01*
X136480246Y-86925498D01*
X136480252Y-86925500D01*
X136480253Y-86925500D01*
X138219747Y-86925500D01*
X138219748Y-86925500D01*
X138278231Y-86913867D01*
X138344552Y-86869552D01*
X138388867Y-86803231D01*
X138400500Y-86744748D01*
X138400500Y-85005252D01*
X138398921Y-84997316D01*
X138397711Y-84991231D01*
X138388867Y-84946769D01*
X138344552Y-84880448D01*
X138334296Y-84873595D01*
X138278233Y-84836134D01*
X138278231Y-84836133D01*
X138278228Y-84836132D01*
X138278227Y-84836132D01*
X138219758Y-84824501D01*
X138219748Y-84824500D01*
X136480252Y-84824500D01*
X136480251Y-84824500D01*
X136480241Y-84824501D01*
X136421772Y-84836132D01*
X136421766Y-84836134D01*
X136355451Y-84880445D01*
X136355445Y-84880451D01*
X136311134Y-84946766D01*
X136311132Y-84946772D01*
X136299501Y-85005241D01*
X136299500Y-85005253D01*
X136299500Y-86744746D01*
X135406124Y-86744746D01*
X135556410Y-86621410D01*
X135687685Y-86461450D01*
X135785232Y-86278954D01*
X135845300Y-86080934D01*
X135845301Y-86080929D01*
X135865583Y-85875003D01*
X135865583Y-85874996D01*
X135845301Y-85669070D01*
X135845300Y-85669065D01*
X135802092Y-85526627D01*
X135785232Y-85471046D01*
X135687685Y-85288550D01*
X135676558Y-85274992D01*
X135556414Y-85128595D01*
X135556410Y-85128590D01*
X135440603Y-85033550D01*
X135396452Y-84997316D01*
X135213954Y-84899768D01*
X135015934Y-84839699D01*
X135015929Y-84839698D01*
X134810003Y-84819417D01*
X134809997Y-84819417D01*
X134604070Y-84839698D01*
X134604065Y-84839699D01*
X134406045Y-84899768D01*
X134223547Y-84997316D01*
X134063595Y-85128585D01*
X134063585Y-85128595D01*
X133932316Y-85288547D01*
X133834768Y-85471045D01*
X133774699Y-85669065D01*
X133774698Y-85669070D01*
X133754417Y-85874996D01*
X133754417Y-85875003D01*
X133325583Y-85875003D01*
X133325583Y-85874996D01*
X133305301Y-85669070D01*
X133305300Y-85669065D01*
X133262092Y-85526627D01*
X133245232Y-85471046D01*
X133147685Y-85288550D01*
X133136558Y-85274992D01*
X133016414Y-85128595D01*
X133016410Y-85128590D01*
X132900603Y-85033550D01*
X132856452Y-84997316D01*
X132673954Y-84899768D01*
X132475934Y-84839699D01*
X132475929Y-84839698D01*
X132270003Y-84819417D01*
X132269997Y-84819417D01*
X132064070Y-84839698D01*
X132064065Y-84839699D01*
X131866045Y-84899768D01*
X131683547Y-84997316D01*
X131523595Y-85128585D01*
X131523585Y-85128595D01*
X131392316Y-85288547D01*
X131294768Y-85471045D01*
X131234699Y-85669065D01*
X131234698Y-85669070D01*
X131214417Y-85874996D01*
X131214417Y-85875003D01*
X130785583Y-85875003D01*
X130785583Y-85874996D01*
X130765301Y-85669070D01*
X130765300Y-85669065D01*
X130722092Y-85526627D01*
X130705232Y-85471046D01*
X130607685Y-85288550D01*
X130596558Y-85274992D01*
X130476414Y-85128595D01*
X130476410Y-85128590D01*
X130360603Y-85033550D01*
X130316452Y-84997316D01*
X130133954Y-84899768D01*
X129935934Y-84839699D01*
X129935929Y-84839698D01*
X129730003Y-84819417D01*
X129729997Y-84819417D01*
X129524070Y-84839698D01*
X129524065Y-84839699D01*
X129326045Y-84899768D01*
X129143547Y-84997316D01*
X128983595Y-85128585D01*
X128983585Y-85128595D01*
X128852316Y-85288547D01*
X128754768Y-85471045D01*
X128694699Y-85669065D01*
X128694698Y-85669070D01*
X128674417Y-85874996D01*
X128674417Y-85875003D01*
X127690000Y-85875003D01*
X127690000Y-85803111D01*
X127652383Y-85675000D01*
X128225382Y-85675000D01*
X128224807Y-85669165D01*
X128224805Y-85669155D01*
X128164767Y-85471237D01*
X128164765Y-85471232D01*
X128067275Y-85288839D01*
X128067268Y-85288829D01*
X127936059Y-85128949D01*
X127936050Y-85128940D01*
X127776170Y-84997731D01*
X127776160Y-84997724D01*
X127593767Y-84900234D01*
X127593762Y-84900232D01*
X127395844Y-84840194D01*
X127395834Y-84840192D01*
X127390000Y-84839617D01*
X127390000Y-85416664D01*
X127332315Y-85390320D01*
X127225763Y-85375000D01*
X127154237Y-85375000D01*
X127047685Y-85390320D01*
X126990000Y-85416664D01*
X126990000Y-84839617D01*
X126984165Y-84840192D01*
X126984155Y-84840194D01*
X126786237Y-84900232D01*
X126786232Y-84900234D01*
X126603839Y-84997724D01*
X126603829Y-84997731D01*
X126443949Y-85128940D01*
X126443940Y-85128949D01*
X126312731Y-85288829D01*
X126312724Y-85288839D01*
X126215234Y-85471232D01*
X126215232Y-85471237D01*
X126155194Y-85669155D01*
X126155192Y-85669165D01*
X126154617Y-85675000D01*
X126727617Y-85675000D01*
X126690000Y-85803111D01*
X126690000Y-85946889D01*
X126727617Y-86075000D01*
X126154617Y-86075000D01*
X125685885Y-86075000D01*
X125705583Y-85875003D01*
X125705583Y-85874996D01*
X125685301Y-85669070D01*
X125685300Y-85669065D01*
X125642092Y-85526627D01*
X125625232Y-85471046D01*
X125527685Y-85288550D01*
X125516558Y-85274992D01*
X125396414Y-85128595D01*
X125396410Y-85128590D01*
X125280603Y-85033550D01*
X125236452Y-84997316D01*
X125053954Y-84899768D01*
X124855934Y-84839699D01*
X124855929Y-84839698D01*
X124650003Y-84819417D01*
X124649997Y-84819417D01*
X124444070Y-84839698D01*
X124444065Y-84839699D01*
X124246045Y-84899768D01*
X124063547Y-84997316D01*
X123903595Y-85128585D01*
X123903585Y-85128595D01*
X123772316Y-85288547D01*
X123744789Y-85340047D01*
X123703199Y-85417857D01*
X123700894Y-85422169D01*
X123656788Y-85464575D01*
X123613584Y-85474500D01*
X123388433Y-85474500D01*
X123261567Y-85474500D01*
X123261565Y-85474500D01*
X123261562Y-85474501D01*
X123238624Y-85481953D01*
X123223529Y-85485577D01*
X123199701Y-85489352D01*
X123199691Y-85489355D01*
X123178202Y-85500305D01*
X123163852Y-85506249D01*
X123140915Y-85513701D01*
X123140906Y-85513706D01*
X123121385Y-85527887D01*
X123108151Y-85535997D01*
X123086660Y-85546948D01*
X123086658Y-85546950D01*
X123064094Y-85569513D01*
X123064092Y-85569515D01*
X123064090Y-85569515D01*
X123064091Y-85569516D01*
X122163103Y-86470504D01*
X122108586Y-86498281D01*
X122093099Y-86499500D01*
X119006901Y-86499500D01*
X118948710Y-86480593D01*
X118936897Y-86470504D01*
X118266395Y-85800002D01*
X120394353Y-85800002D01*
X120414834Y-85942456D01*
X120416859Y-85946889D01*
X120474623Y-86073373D01*
X120559353Y-86171157D01*
X120568873Y-86182144D01*
X120689942Y-86259950D01*
X120689947Y-86259953D01*
X120796403Y-86291211D01*
X120828035Y-86300499D01*
X120828036Y-86300499D01*
X120828039Y-86300500D01*
X120828041Y-86300500D01*
X120971959Y-86300500D01*
X120971961Y-86300500D01*
X121110053Y-86259953D01*
X121178110Y-86216215D01*
X121231632Y-86200500D01*
X121863432Y-86200500D01*
X121863433Y-86200500D01*
X121886382Y-86193043D01*
X121901465Y-86189421D01*
X121925304Y-86185646D01*
X121946802Y-86174690D01*
X121961151Y-86168748D01*
X121984090Y-86161296D01*
X122003612Y-86147111D01*
X122016849Y-86139000D01*
X122038342Y-86128050D01*
X122055261Y-86111129D01*
X122055265Y-86111127D01*
X122060906Y-86105485D01*
X122060909Y-86105484D01*
X125366209Y-82800182D01*
X125420724Y-82772407D01*
X125481156Y-82781978D01*
X125523521Y-82823519D01*
X125567316Y-82905451D01*
X125567316Y-82905452D01*
X125698585Y-83065404D01*
X125698590Y-83065410D01*
X125698595Y-83065414D01*
X125858547Y-83196683D01*
X125858548Y-83196683D01*
X125858550Y-83196685D01*
X126041046Y-83294232D01*
X126178996Y-83336078D01*
X126239065Y-83354300D01*
X126239070Y-83354301D01*
X126444997Y-83374583D01*
X126445000Y-83374583D01*
X126445003Y-83374583D01*
X126650929Y-83354301D01*
X126650934Y-83354300D01*
X126650933Y-83354300D01*
X126848954Y-83294232D01*
X127031450Y-83196685D01*
X127191410Y-83065410D01*
X127322685Y-82905450D01*
X127394106Y-82771830D01*
X127438212Y-82729425D01*
X127481416Y-82719500D01*
X127948584Y-82719500D01*
X128006775Y-82738407D01*
X128035892Y-82771829D01*
X128051049Y-82800184D01*
X128107316Y-82905452D01*
X128238585Y-83065404D01*
X128238590Y-83065410D01*
X128238595Y-83065414D01*
X128398547Y-83196683D01*
X128398548Y-83196683D01*
X128398550Y-83196685D01*
X128581046Y-83294232D01*
X128718997Y-83336078D01*
X128779065Y-83354300D01*
X128779070Y-83354301D01*
X128984997Y-83374583D01*
X128985000Y-83374583D01*
X128985003Y-83374583D01*
X129190929Y-83354301D01*
X129190934Y-83354300D01*
X129190933Y-83354300D01*
X129388954Y-83294232D01*
X129571450Y-83196685D01*
X129731410Y-83065410D01*
X129862685Y-82905450D01*
X129960232Y-82722954D01*
X130020300Y-82524934D01*
X130020301Y-82524929D01*
X130040583Y-82319003D01*
X130040583Y-82318996D01*
X130020301Y-82113070D01*
X130020300Y-82113065D01*
X129983257Y-81990950D01*
X129960232Y-81915046D01*
X129862685Y-81732550D01*
X129731410Y-81572590D01*
X129604010Y-81468036D01*
X129571452Y-81441316D01*
X129388954Y-81343768D01*
X129190934Y-81283699D01*
X129190929Y-81283698D01*
X128985003Y-81263417D01*
X128984997Y-81263417D01*
X128779070Y-81283698D01*
X128779065Y-81283699D01*
X128581045Y-81343768D01*
X128398547Y-81441316D01*
X128238595Y-81572585D01*
X128238585Y-81572595D01*
X128107316Y-81732547D01*
X128035894Y-81866169D01*
X127991788Y-81908575D01*
X127948584Y-81918500D01*
X127481416Y-81918500D01*
X127423225Y-81899593D01*
X127394106Y-81866169D01*
X127322683Y-81732547D01*
X127196175Y-81578396D01*
X127191410Y-81572590D01*
X127064010Y-81468036D01*
X127031452Y-81441316D01*
X126848954Y-81343768D01*
X126650934Y-81283699D01*
X126650929Y-81283698D01*
X126445003Y-81263417D01*
X126444997Y-81263417D01*
X126239070Y-81283698D01*
X126239065Y-81283699D01*
X126041045Y-81343768D01*
X125858547Y-81441316D01*
X125698595Y-81572585D01*
X125698585Y-81572595D01*
X125567316Y-81732547D01*
X125495894Y-81866169D01*
X125451788Y-81908575D01*
X125408584Y-81918500D01*
X125247461Y-81918500D01*
X125247437Y-81918501D01*
X125217563Y-81918501D01*
X125194626Y-81925954D01*
X125179524Y-81929580D01*
X125155693Y-81933354D01*
X125134198Y-81944306D01*
X125119853Y-81950248D01*
X125096910Y-81957703D01*
X125083244Y-81967632D01*
X125077391Y-81971885D01*
X125064148Y-81980000D01*
X125042657Y-81990949D01*
X125042657Y-81990950D01*
X124973332Y-82060271D01*
X124973315Y-82060292D01*
X121663103Y-85370504D01*
X121608586Y-85398281D01*
X121593099Y-85399500D01*
X121231632Y-85399500D01*
X121178110Y-85383784D01*
X121110053Y-85340047D01*
X121110050Y-85340046D01*
X120971964Y-85299500D01*
X120971961Y-85299500D01*
X120828039Y-85299500D01*
X120828035Y-85299500D01*
X120689949Y-85340046D01*
X120689942Y-85340049D01*
X120568873Y-85417855D01*
X120474622Y-85526628D01*
X120414834Y-85657543D01*
X120394353Y-85799997D01*
X120394353Y-85800002D01*
X118266395Y-85800002D01*
X116979496Y-84513103D01*
X116951719Y-84458586D01*
X116950500Y-84443099D01*
X116950500Y-79899500D01*
X116969407Y-79841309D01*
X117018907Y-79805345D01*
X117049500Y-79800500D01*
X119534521Y-79800500D01*
X119592712Y-79819407D01*
X119604525Y-79829496D01*
X120541436Y-80766407D01*
X120549537Y-80777647D01*
X120550516Y-80776909D01*
X120556044Y-80784230D01*
X120591569Y-80816616D01*
X120593223Y-80818195D01*
X120600947Y-80825918D01*
X120607203Y-80832174D01*
X120610128Y-80834178D01*
X120615505Y-80838437D01*
X120639064Y-80859914D01*
X120639065Y-80859914D01*
X120639067Y-80859916D01*
X120648225Y-80863463D01*
X120668412Y-80874103D01*
X120676519Y-80879657D01*
X120707552Y-80886955D01*
X120714095Y-80888982D01*
X120726065Y-80893619D01*
X120736302Y-80897585D01*
X120743827Y-80900500D01*
X120753652Y-80900500D01*
X120776316Y-80903129D01*
X120785881Y-80905379D01*
X120813645Y-80901506D01*
X120817453Y-80900975D01*
X120824299Y-80900500D01*
X121234836Y-80900500D01*
X121248511Y-80902732D01*
X121248683Y-80901506D01*
X121257764Y-80902772D01*
X121257765Y-80902773D01*
X121257765Y-80902772D01*
X121257766Y-80902773D01*
X121266507Y-80902368D01*
X121305793Y-80900552D01*
X121308070Y-80900500D01*
X121327841Y-80900500D01*
X121327844Y-80900500D01*
X121331337Y-80899846D01*
X121338141Y-80899056D01*
X121369992Y-80897585D01*
X121378976Y-80893617D01*
X121400777Y-80886865D01*
X121410433Y-80885061D01*
X121437543Y-80868274D01*
X121443589Y-80865088D01*
X121472765Y-80852206D01*
X121479709Y-80845260D01*
X121497601Y-80831089D01*
X121505952Y-80825919D01*
X121525165Y-80800474D01*
X121529662Y-80795308D01*
X121994814Y-80330156D01*
X122345969Y-79979000D01*
X125409617Y-79979000D01*
X125410192Y-79984834D01*
X125410194Y-79984844D01*
X125470232Y-80182762D01*
X125470234Y-80182767D01*
X125567724Y-80365160D01*
X125567731Y-80365170D01*
X125698940Y-80525050D01*
X125698949Y-80525059D01*
X125858829Y-80656268D01*
X125858839Y-80656275D01*
X126041232Y-80753765D01*
X126041237Y-80753767D01*
X126239158Y-80813806D01*
X126239160Y-80813807D01*
X126244999Y-80814381D01*
X126244999Y-80237335D01*
X126302685Y-80263680D01*
X126409237Y-80279000D01*
X126480763Y-80279000D01*
X126587315Y-80263680D01*
X126644999Y-80237335D01*
X126645000Y-80814381D01*
X126650839Y-80813807D01*
X126650841Y-80813806D01*
X126848762Y-80753767D01*
X126848767Y-80753765D01*
X127031160Y-80656275D01*
X127031170Y-80656268D01*
X127191050Y-80525059D01*
X127191059Y-80525050D01*
X127322268Y-80365170D01*
X127322275Y-80365160D01*
X127419765Y-80182767D01*
X127419767Y-80182762D01*
X127479805Y-79984844D01*
X127479807Y-79984834D01*
X127480383Y-79979000D01*
X127949617Y-79979000D01*
X127950192Y-79984834D01*
X127950194Y-79984844D01*
X128010232Y-80182762D01*
X128010234Y-80182767D01*
X128107724Y-80365160D01*
X128107731Y-80365170D01*
X128238940Y-80525050D01*
X128238949Y-80525059D01*
X128398829Y-80656268D01*
X128398839Y-80656275D01*
X128581232Y-80753765D01*
X128581237Y-80753767D01*
X128779158Y-80813806D01*
X128779160Y-80813807D01*
X128785000Y-80814381D01*
X128785000Y-80237335D01*
X128842685Y-80263680D01*
X128949237Y-80279000D01*
X129020763Y-80279000D01*
X129127315Y-80263680D01*
X129185000Y-80237335D01*
X129185000Y-80814381D01*
X129190839Y-80813807D01*
X129190841Y-80813806D01*
X129388762Y-80753767D01*
X129388767Y-80753765D01*
X129571160Y-80656275D01*
X129571170Y-80656268D01*
X129731050Y-80525059D01*
X129731059Y-80525050D01*
X129862268Y-80365170D01*
X129862275Y-80365160D01*
X129959765Y-80182767D01*
X129959767Y-80182762D01*
X130019805Y-79984844D01*
X130019807Y-79984834D01*
X130020383Y-79979000D01*
X129447383Y-79979000D01*
X129485000Y-79850889D01*
X129485000Y-79707111D01*
X129447383Y-79579000D01*
X130020382Y-79579000D01*
X130019807Y-79573165D01*
X130019805Y-79573155D01*
X129959767Y-79375237D01*
X129959765Y-79375232D01*
X129862275Y-79192839D01*
X129862268Y-79192829D01*
X129731059Y-79032949D01*
X129731050Y-79032940D01*
X129571170Y-78901731D01*
X129571160Y-78901724D01*
X129388767Y-78804234D01*
X129388762Y-78804232D01*
X129190844Y-78744194D01*
X129190834Y-78744192D01*
X129185000Y-78743617D01*
X129185000Y-79320664D01*
X129127315Y-79294320D01*
X129020763Y-79279000D01*
X128949237Y-79279000D01*
X128842685Y-79294320D01*
X128784999Y-79320664D01*
X128785000Y-78743617D01*
X128779165Y-78744192D01*
X128779155Y-78744194D01*
X128581237Y-78804232D01*
X128581232Y-78804234D01*
X128398839Y-78901724D01*
X128398829Y-78901731D01*
X128238949Y-79032940D01*
X128238940Y-79032949D01*
X128107731Y-79192829D01*
X128107724Y-79192839D01*
X128010234Y-79375232D01*
X128010232Y-79375237D01*
X127950194Y-79573155D01*
X127950192Y-79573165D01*
X127949617Y-79579000D01*
X128522617Y-79579000D01*
X128485000Y-79707111D01*
X128485000Y-79850889D01*
X128522617Y-79979000D01*
X127949617Y-79979000D01*
X127480383Y-79979000D01*
X126907383Y-79979000D01*
X126945000Y-79850889D01*
X126945000Y-79707111D01*
X126907383Y-79579000D01*
X127480382Y-79579000D01*
X127479807Y-79573165D01*
X127479805Y-79573155D01*
X127419767Y-79375237D01*
X127419765Y-79375232D01*
X127322275Y-79192839D01*
X127322268Y-79192829D01*
X127191059Y-79032949D01*
X127191050Y-79032940D01*
X127031170Y-78901731D01*
X127031160Y-78901724D01*
X126848767Y-78804234D01*
X126848762Y-78804232D01*
X126650844Y-78744194D01*
X126650834Y-78744192D01*
X126645000Y-78743617D01*
X126645000Y-79320664D01*
X126587315Y-79294320D01*
X126480763Y-79279000D01*
X126409237Y-79279000D01*
X126302685Y-79294320D01*
X126245000Y-79320664D01*
X126245000Y-78743617D01*
X126239165Y-78744192D01*
X126239155Y-78744194D01*
X126041237Y-78804232D01*
X126041232Y-78804234D01*
X125858839Y-78901724D01*
X125858829Y-78901731D01*
X125698949Y-79032940D01*
X125698940Y-79032949D01*
X125567731Y-79192829D01*
X125567724Y-79192839D01*
X125470234Y-79375232D01*
X125470232Y-79375237D01*
X125410194Y-79573155D01*
X125410192Y-79573165D01*
X125409617Y-79579000D01*
X125982617Y-79579000D01*
X125945000Y-79707111D01*
X125945000Y-79850889D01*
X125982617Y-79979000D01*
X125409617Y-79979000D01*
X122345969Y-79979000D01*
X122516405Y-79808564D01*
X122527664Y-79800493D01*
X122526905Y-79799487D01*
X122534221Y-79793961D01*
X122534228Y-79793958D01*
X122566632Y-79758411D01*
X122568186Y-79756783D01*
X122582174Y-79742797D01*
X122584181Y-79739865D01*
X122588440Y-79734490D01*
X122609916Y-79710933D01*
X122613465Y-79701770D01*
X122624106Y-79681582D01*
X122629656Y-79673481D01*
X122636955Y-79642443D01*
X122638977Y-79635914D01*
X122650500Y-79606173D01*
X122650500Y-79596348D01*
X122653129Y-79573683D01*
X122655379Y-79564119D01*
X122650973Y-79532533D01*
X122650499Y-79525714D01*
X122650499Y-77239003D01*
X125389417Y-77239003D01*
X125409698Y-77444929D01*
X125409699Y-77444934D01*
X125469768Y-77642954D01*
X125567316Y-77825452D01*
X125698585Y-77985404D01*
X125698590Y-77985410D01*
X125716363Y-77999996D01*
X125858547Y-78116683D01*
X125858548Y-78116683D01*
X125858550Y-78116685D01*
X126041046Y-78214232D01*
X126178996Y-78256078D01*
X126239065Y-78274300D01*
X126239070Y-78274301D01*
X126444997Y-78294583D01*
X126445000Y-78294583D01*
X126445003Y-78294583D01*
X126650929Y-78274301D01*
X126650934Y-78274300D01*
X126667305Y-78269334D01*
X126848954Y-78214232D01*
X127031450Y-78116685D01*
X127191410Y-77985410D01*
X127322685Y-77825450D01*
X127420232Y-77642954D01*
X127480300Y-77444934D01*
X127480301Y-77444929D01*
X127500583Y-77239003D01*
X127929417Y-77239003D01*
X127949698Y-77444929D01*
X127949699Y-77444934D01*
X128009768Y-77642954D01*
X128107316Y-77825452D01*
X128238585Y-77985404D01*
X128238590Y-77985410D01*
X128256363Y-77999996D01*
X128398547Y-78116683D01*
X128398548Y-78116683D01*
X128398550Y-78116685D01*
X128581046Y-78214232D01*
X128718997Y-78256078D01*
X128779065Y-78274300D01*
X128779070Y-78274301D01*
X128984997Y-78294583D01*
X128985000Y-78294583D01*
X128985003Y-78294583D01*
X129190929Y-78274301D01*
X129190934Y-78274300D01*
X129207305Y-78269334D01*
X129388954Y-78214232D01*
X129571450Y-78116685D01*
X129731410Y-77985410D01*
X129862685Y-77825450D01*
X129960232Y-77642954D01*
X130020300Y-77444934D01*
X130020301Y-77444929D01*
X130040583Y-77239003D01*
X130040583Y-77238996D01*
X130020301Y-77033070D01*
X130020300Y-77033065D01*
X129971858Y-76873373D01*
X129960232Y-76835046D01*
X129862685Y-76652550D01*
X129819560Y-76600002D01*
X129731414Y-76492595D01*
X129731410Y-76492590D01*
X129661519Y-76435232D01*
X129571452Y-76361316D01*
X129388954Y-76263768D01*
X129190934Y-76203699D01*
X129190929Y-76203698D01*
X128985003Y-76183417D01*
X128984997Y-76183417D01*
X128779070Y-76203698D01*
X128779065Y-76203699D01*
X128581045Y-76263768D01*
X128398547Y-76361316D01*
X128238595Y-76492585D01*
X128238585Y-76492595D01*
X128107316Y-76652547D01*
X128009768Y-76835045D01*
X127949699Y-77033065D01*
X127949698Y-77033070D01*
X127929417Y-77238996D01*
X127929417Y-77239003D01*
X127500583Y-77239003D01*
X127500583Y-77238996D01*
X127480301Y-77033070D01*
X127480300Y-77033065D01*
X127431858Y-76873373D01*
X127420232Y-76835046D01*
X127322685Y-76652550D01*
X127279560Y-76600002D01*
X127191414Y-76492595D01*
X127191410Y-76492590D01*
X127121519Y-76435232D01*
X127031452Y-76361316D01*
X126848954Y-76263768D01*
X126650934Y-76203699D01*
X126650929Y-76203698D01*
X126445003Y-76183417D01*
X126444997Y-76183417D01*
X126239070Y-76203698D01*
X126239065Y-76203699D01*
X126041045Y-76263768D01*
X125858547Y-76361316D01*
X125698595Y-76492585D01*
X125698585Y-76492595D01*
X125567316Y-76652547D01*
X125469768Y-76835045D01*
X125409699Y-77033065D01*
X125409698Y-77033070D01*
X125389417Y-77238996D01*
X125389417Y-77239003D01*
X122650499Y-77239003D01*
X122650499Y-75115173D01*
X122652731Y-75101498D01*
X122651504Y-75101327D01*
X122652773Y-75092233D01*
X122651100Y-75056045D01*
X122650552Y-75044207D01*
X122650500Y-75041928D01*
X122650500Y-75022160D01*
X122650500Y-75022156D01*
X122649846Y-75018664D01*
X122649056Y-75011859D01*
X122647585Y-74980008D01*
X122643615Y-74971017D01*
X122636864Y-74949215D01*
X122635061Y-74939568D01*
X122635061Y-74939567D01*
X122618276Y-74912458D01*
X122615084Y-74906401D01*
X122602206Y-74877235D01*
X122602205Y-74877233D01*
X122595256Y-74870284D01*
X122581090Y-74852399D01*
X122575919Y-74844048D01*
X122550483Y-74824839D01*
X122545306Y-74820334D01*
X122423975Y-74699003D01*
X125389417Y-74699003D01*
X125409698Y-74904929D01*
X125409699Y-74904934D01*
X125469768Y-75102954D01*
X125567316Y-75285452D01*
X125613031Y-75341156D01*
X125698590Y-75445410D01*
X125698595Y-75445414D01*
X125858547Y-75576683D01*
X125858548Y-75576683D01*
X125858550Y-75576685D01*
X126041046Y-75674232D01*
X126178996Y-75716078D01*
X126239065Y-75734300D01*
X126239070Y-75734301D01*
X126444997Y-75754583D01*
X126445000Y-75754583D01*
X126445003Y-75754583D01*
X126650929Y-75734301D01*
X126650934Y-75734300D01*
X126650934Y-75734299D01*
X126848954Y-75674232D01*
X127031450Y-75576685D01*
X127191410Y-75445410D01*
X127322685Y-75285450D01*
X127420232Y-75102954D01*
X127480300Y-74904934D01*
X127480301Y-74904929D01*
X127500583Y-74699003D01*
X127929417Y-74699003D01*
X127949698Y-74904929D01*
X127949699Y-74904934D01*
X128009768Y-75102954D01*
X128107316Y-75285452D01*
X128153031Y-75341156D01*
X128238590Y-75445410D01*
X128238595Y-75445414D01*
X128398547Y-75576683D01*
X128398548Y-75576683D01*
X128398550Y-75576685D01*
X128581046Y-75674232D01*
X128718997Y-75716078D01*
X128779065Y-75734300D01*
X128779070Y-75734301D01*
X128984997Y-75754583D01*
X128985000Y-75754583D01*
X128985003Y-75754583D01*
X129190929Y-75734301D01*
X129190934Y-75734300D01*
X129388954Y-75674232D01*
X129571450Y-75576685D01*
X129731410Y-75445410D01*
X129862685Y-75285450D01*
X129960232Y-75102954D01*
X130020300Y-74904934D01*
X130020301Y-74904929D01*
X130040583Y-74699003D01*
X130040583Y-74698996D01*
X130020301Y-74493070D01*
X130020300Y-74493065D01*
X129987523Y-74385013D01*
X129960232Y-74295046D01*
X129862685Y-74112550D01*
X129851975Y-74099500D01*
X129731414Y-73952595D01*
X129731410Y-73952590D01*
X129726442Y-73948513D01*
X129571452Y-73821316D01*
X129388954Y-73723768D01*
X129190934Y-73663699D01*
X129190929Y-73663698D01*
X128985003Y-73643417D01*
X128984997Y-73643417D01*
X128779070Y-73663698D01*
X128779065Y-73663699D01*
X128581045Y-73723768D01*
X128398547Y-73821316D01*
X128238595Y-73952585D01*
X128238585Y-73952595D01*
X128107316Y-74112547D01*
X128009768Y-74295045D01*
X127949699Y-74493065D01*
X127949698Y-74493070D01*
X127929417Y-74698996D01*
X127929417Y-74699003D01*
X127500583Y-74699003D01*
X127500583Y-74698996D01*
X127480301Y-74493070D01*
X127480300Y-74493065D01*
X127447523Y-74385013D01*
X127420232Y-74295046D01*
X127322685Y-74112550D01*
X127311975Y-74099500D01*
X127191414Y-73952595D01*
X127191410Y-73952590D01*
X127186442Y-73948513D01*
X127031452Y-73821316D01*
X126848954Y-73723768D01*
X126650934Y-73663699D01*
X126650929Y-73663698D01*
X126445003Y-73643417D01*
X126444997Y-73643417D01*
X126239070Y-73663698D01*
X126239065Y-73663699D01*
X126041045Y-73723768D01*
X125858547Y-73821316D01*
X125698595Y-73952585D01*
X125698585Y-73952595D01*
X125567316Y-74112547D01*
X125469768Y-74295045D01*
X125409699Y-74493065D01*
X125409698Y-74493070D01*
X125389417Y-74698996D01*
X125389417Y-74699003D01*
X122423975Y-74699003D01*
X121329496Y-73604525D01*
X121301719Y-73550008D01*
X121300500Y-73534521D01*
X121300500Y-72159003D01*
X125389417Y-72159003D01*
X125409698Y-72364929D01*
X125409699Y-72364934D01*
X125469768Y-72562954D01*
X125567316Y-72745452D01*
X125678140Y-72880492D01*
X125698590Y-72905410D01*
X125727838Y-72929413D01*
X125858547Y-73036683D01*
X125858548Y-73036683D01*
X125858550Y-73036685D01*
X126041046Y-73134232D01*
X126160620Y-73170504D01*
X126239065Y-73194300D01*
X126239070Y-73194301D01*
X126444997Y-73214583D01*
X126445000Y-73214583D01*
X126445003Y-73214583D01*
X126650929Y-73194301D01*
X126650934Y-73194300D01*
X126696120Y-73180593D01*
X126848954Y-73134232D01*
X127031450Y-73036685D01*
X127191410Y-72905410D01*
X127322685Y-72745450D01*
X127420232Y-72562954D01*
X127480300Y-72364934D01*
X127480301Y-72364929D01*
X127500583Y-72159003D01*
X127929417Y-72159003D01*
X127949698Y-72364929D01*
X127949699Y-72364934D01*
X128009768Y-72562954D01*
X128107316Y-72745452D01*
X128218140Y-72880492D01*
X128238590Y-72905410D01*
X128267838Y-72929413D01*
X128398547Y-73036683D01*
X128398548Y-73036683D01*
X128398550Y-73036685D01*
X128581046Y-73134232D01*
X128700620Y-73170504D01*
X128779065Y-73194300D01*
X128779070Y-73194301D01*
X128984997Y-73214583D01*
X128985000Y-73214583D01*
X128985003Y-73214583D01*
X129190929Y-73194301D01*
X129190934Y-73194300D01*
X129236120Y-73180593D01*
X129388954Y-73134232D01*
X129571450Y-73036685D01*
X129731410Y-72905410D01*
X129862685Y-72745450D01*
X129960232Y-72562954D01*
X130020300Y-72364934D01*
X130020301Y-72364929D01*
X130040583Y-72159003D01*
X130040583Y-72158996D01*
X130020301Y-71953070D01*
X130020300Y-71953065D01*
X129985895Y-71839648D01*
X129960232Y-71755046D01*
X129862685Y-71572550D01*
X129859695Y-71568907D01*
X129731414Y-71412595D01*
X129731410Y-71412590D01*
X129700554Y-71387267D01*
X129571452Y-71281316D01*
X129388954Y-71183768D01*
X129190934Y-71123699D01*
X129190929Y-71123698D01*
X128985003Y-71103417D01*
X128984997Y-71103417D01*
X128779070Y-71123698D01*
X128779065Y-71123699D01*
X128581045Y-71183768D01*
X128398547Y-71281316D01*
X128238595Y-71412585D01*
X128238585Y-71412595D01*
X128107316Y-71572547D01*
X128009768Y-71755045D01*
X127949699Y-71953065D01*
X127949698Y-71953070D01*
X127929417Y-72158996D01*
X127929417Y-72159003D01*
X127500583Y-72159003D01*
X127500583Y-72158996D01*
X127480301Y-71953070D01*
X127480300Y-71953065D01*
X127445895Y-71839648D01*
X127420232Y-71755046D01*
X127322685Y-71572550D01*
X127319695Y-71568907D01*
X127191414Y-71412595D01*
X127191410Y-71412590D01*
X127160554Y-71387267D01*
X127031452Y-71281316D01*
X126848954Y-71183768D01*
X126650934Y-71123699D01*
X126650929Y-71123698D01*
X126445003Y-71103417D01*
X126444997Y-71103417D01*
X126239070Y-71123698D01*
X126239065Y-71123699D01*
X126041045Y-71183768D01*
X125858547Y-71281316D01*
X125698595Y-71412585D01*
X125698585Y-71412595D01*
X125567316Y-71572547D01*
X125469768Y-71755045D01*
X125409699Y-71953065D01*
X125409698Y-71953070D01*
X125389417Y-72158996D01*
X125389417Y-72159003D01*
X121300500Y-72159003D01*
X121300500Y-71983796D01*
X121302731Y-71970123D01*
X121301505Y-71969952D01*
X121302773Y-71960860D01*
X121300553Y-71912843D01*
X121300500Y-71910556D01*
X121300500Y-71890788D01*
X121300500Y-71890784D01*
X121299846Y-71887292D01*
X121299056Y-71880487D01*
X121297585Y-71848636D01*
X121293615Y-71839645D01*
X121286864Y-71817843D01*
X121285061Y-71808196D01*
X121285061Y-71808195D01*
X121268276Y-71781086D01*
X121265084Y-71775029D01*
X121252206Y-71745863D01*
X121252205Y-71745861D01*
X121245256Y-71738912D01*
X121231090Y-71721027D01*
X121225919Y-71712676D01*
X121200483Y-71693467D01*
X121195306Y-71688962D01*
X119995089Y-70488746D01*
X125394500Y-70488746D01*
X125394501Y-70488758D01*
X125406132Y-70547227D01*
X125406134Y-70547233D01*
X125450445Y-70613548D01*
X125450448Y-70613552D01*
X125516769Y-70657867D01*
X125561231Y-70666711D01*
X125575241Y-70669498D01*
X125575246Y-70669498D01*
X125575252Y-70669500D01*
X125575253Y-70669500D01*
X127314747Y-70669500D01*
X127314748Y-70669500D01*
X127373231Y-70657867D01*
X127439552Y-70613552D01*
X127483867Y-70547231D01*
X127495500Y-70488748D01*
X127495500Y-69619003D01*
X127929417Y-69619003D01*
X127949698Y-69824929D01*
X127949699Y-69824934D01*
X128009768Y-70022954D01*
X128107316Y-70205452D01*
X128209116Y-70329496D01*
X128238590Y-70365410D01*
X128238595Y-70365414D01*
X128398547Y-70496683D01*
X128398548Y-70496683D01*
X128398550Y-70496685D01*
X128581046Y-70594232D01*
X128699793Y-70630253D01*
X128779065Y-70654300D01*
X128779070Y-70654301D01*
X128984997Y-70674583D01*
X128985000Y-70674583D01*
X128985003Y-70674583D01*
X129190929Y-70654301D01*
X129190934Y-70654300D01*
X129208350Y-70649017D01*
X129388954Y-70594232D01*
X129571450Y-70496685D01*
X129731410Y-70365410D01*
X129862685Y-70205450D01*
X129960232Y-70022954D01*
X130020300Y-69824934D01*
X130020301Y-69824929D01*
X130040583Y-69619003D01*
X130040583Y-69618996D01*
X130020301Y-69413070D01*
X130020300Y-69413065D01*
X129987565Y-69305153D01*
X129960232Y-69215046D01*
X129862685Y-69032550D01*
X129858323Y-69027235D01*
X129731414Y-68872595D01*
X129731410Y-68872590D01*
X129709003Y-68854201D01*
X129571452Y-68741316D01*
X129388954Y-68643768D01*
X129190934Y-68583699D01*
X129190929Y-68583698D01*
X128985003Y-68563417D01*
X128984997Y-68563417D01*
X128779070Y-68583698D01*
X128779065Y-68583699D01*
X128581045Y-68643768D01*
X128398547Y-68741316D01*
X128238595Y-68872585D01*
X128238585Y-68872595D01*
X128107316Y-69032547D01*
X128009768Y-69215045D01*
X127949699Y-69413065D01*
X127949698Y-69413070D01*
X127929417Y-69618996D01*
X127929417Y-69619003D01*
X127495500Y-69619003D01*
X127495500Y-68749252D01*
X127493921Y-68741316D01*
X127489760Y-68720396D01*
X127483867Y-68690769D01*
X127439552Y-68624448D01*
X127403712Y-68600500D01*
X127373233Y-68580134D01*
X127373231Y-68580133D01*
X127373228Y-68580132D01*
X127373227Y-68580132D01*
X127314758Y-68568501D01*
X127314748Y-68568500D01*
X125575252Y-68568500D01*
X125575251Y-68568500D01*
X125575241Y-68568501D01*
X125516772Y-68580132D01*
X125516766Y-68580134D01*
X125450451Y-68624445D01*
X125450445Y-68624451D01*
X125406134Y-68690766D01*
X125406132Y-68690772D01*
X125394501Y-68749241D01*
X125394500Y-68749253D01*
X125394500Y-70488746D01*
X119995089Y-70488746D01*
X119929496Y-70423153D01*
X119901719Y-70368636D01*
X119900500Y-70353149D01*
X119900500Y-70112914D01*
X119900499Y-69853889D01*
X119919406Y-69795702D01*
X119926742Y-69787711D01*
X119926491Y-69787494D01*
X119950356Y-69759953D01*
X120025377Y-69673373D01*
X120048112Y-69623590D01*
X120089482Y-69578515D01*
X120149449Y-69566364D01*
X120205103Y-69591780D01*
X120353766Y-69728633D01*
X120553266Y-69858973D01*
X120771498Y-69954699D01*
X121002510Y-70013199D01*
X121180528Y-70027950D01*
X121180536Y-70027950D01*
X121299464Y-70027950D01*
X121299472Y-70027950D01*
X121477490Y-70013199D01*
X121708502Y-69954699D01*
X121926734Y-69858973D01*
X122126234Y-69728633D01*
X122301560Y-69567235D01*
X122447929Y-69379179D01*
X122561349Y-69169597D01*
X122638726Y-68944206D01*
X122677950Y-68709152D01*
X122677950Y-68470848D01*
X122676131Y-68459950D01*
X122650699Y-68307543D01*
X122638726Y-68235794D01*
X122561349Y-68010403D01*
X122558258Y-68004692D01*
X122512612Y-67920345D01*
X122447929Y-67800821D01*
X122301560Y-67612765D01*
X122295887Y-67607543D01*
X122126233Y-67451366D01*
X122062293Y-67409592D01*
X121926734Y-67321027D01*
X121708502Y-67225301D01*
X121686120Y-67219633D01*
X121477488Y-67166800D01*
X121299481Y-67152050D01*
X121299472Y-67152050D01*
X121180528Y-67152050D01*
X121180518Y-67152050D01*
X121002511Y-67166800D01*
X120771497Y-67225301D01*
X120553268Y-67321026D01*
X120353766Y-67451366D01*
X120178442Y-67612762D01*
X120178437Y-67612768D01*
X120032073Y-67800817D01*
X120032071Y-67800820D01*
X119918652Y-68010399D01*
X119841273Y-68235795D01*
X119802050Y-68470847D01*
X119802050Y-68709152D01*
X119816157Y-68793692D01*
X119807085Y-68854201D01*
X119764180Y-68897822D01*
X119703829Y-68907893D01*
X119690617Y-68904977D01*
X119671966Y-68899501D01*
X119671962Y-68899500D01*
X119671961Y-68899500D01*
X119528039Y-68899500D01*
X119520958Y-68899500D01*
X119520958Y-68896762D01*
X119472517Y-68888372D01*
X119429881Y-68844488D01*
X119421182Y-68783924D01*
X119423890Y-68772425D01*
X119439467Y-68720396D01*
X119439467Y-68720393D01*
X119439469Y-68720388D01*
X119448032Y-68573373D01*
X119449607Y-68546343D01*
X119449607Y-68546340D01*
X119419333Y-68374649D01*
X119419332Y-68374646D01*
X119350279Y-68214562D01*
X119246168Y-68074717D01*
X119237993Y-68067857D01*
X119112616Y-67962652D01*
X118956816Y-67884406D01*
X118914404Y-67874354D01*
X118787171Y-67844200D01*
X118656564Y-67844200D01*
X118591699Y-67851781D01*
X118526833Y-67859363D01*
X118526828Y-67859365D01*
X118363008Y-67918991D01*
X118362998Y-67918996D01*
X118217351Y-68014790D01*
X118217345Y-68014795D01*
X118097705Y-68141605D01*
X118097704Y-68141605D01*
X118010533Y-68292592D01*
X117960531Y-68459608D01*
X117960530Y-68459616D01*
X117950392Y-68633656D01*
X117976780Y-68783309D01*
X117968265Y-68843899D01*
X117925761Y-68887912D01*
X117879284Y-68899500D01*
X117828035Y-68899500D01*
X117704231Y-68935852D01*
X117643070Y-68934104D01*
X117594618Y-68896741D01*
X117577380Y-68838034D01*
X117578690Y-68824567D01*
X117578806Y-68823876D01*
X117597950Y-68709152D01*
X117597950Y-68470848D01*
X117596131Y-68459950D01*
X117570699Y-68307543D01*
X117558726Y-68235794D01*
X117481349Y-68010403D01*
X117478258Y-68004692D01*
X117432612Y-67920345D01*
X117367929Y-67800821D01*
X117221560Y-67612765D01*
X117215887Y-67607543D01*
X117046233Y-67451366D01*
X116982293Y-67409592D01*
X116846734Y-67321027D01*
X116628502Y-67225301D01*
X116606120Y-67219633D01*
X116397488Y-67166800D01*
X116219481Y-67152050D01*
X116219472Y-67152050D01*
X116100528Y-67152050D01*
X116100518Y-67152050D01*
X115922511Y-67166800D01*
X115691497Y-67225301D01*
X115473268Y-67321026D01*
X115473266Y-67321027D01*
X115273768Y-67451366D01*
X115273763Y-67451369D01*
X115120779Y-67592199D01*
X115065161Y-67617700D01*
X115005176Y-67605639D01*
X114963737Y-67560623D01*
X114963676Y-67560488D01*
X114925378Y-67476629D01*
X114925377Y-67476628D01*
X114925377Y-67476627D01*
X114831128Y-67367857D01*
X114831127Y-67367856D01*
X114831126Y-67367855D01*
X114763430Y-67324350D01*
X114724699Y-67276984D01*
X114721205Y-67215899D01*
X114754285Y-67164426D01*
X114763421Y-67157788D01*
X114881128Y-67082143D01*
X114975377Y-66973373D01*
X115035165Y-66842457D01*
X115055575Y-66700500D01*
X115055647Y-66700002D01*
X115055647Y-66699997D01*
X115037701Y-66575178D01*
X115048134Y-66514889D01*
X115092012Y-66472246D01*
X115152575Y-66463539D01*
X115202741Y-66488250D01*
X115273766Y-66553633D01*
X115473266Y-66683973D01*
X115691498Y-66779699D01*
X115922510Y-66838199D01*
X116100528Y-66852950D01*
X116100536Y-66852950D01*
X116219464Y-66852950D01*
X116219472Y-66852950D01*
X116397490Y-66838199D01*
X116628502Y-66779699D01*
X116846734Y-66683973D01*
X117046234Y-66553633D01*
X117221560Y-66392235D01*
X117367929Y-66204179D01*
X117481349Y-65994597D01*
X117558726Y-65769206D01*
X117597950Y-65534152D01*
X117597950Y-65295848D01*
X117588395Y-65238589D01*
X117567821Y-65115295D01*
X117576893Y-65054786D01*
X117619798Y-65011165D01*
X117665471Y-65000000D01*
X119734529Y-65000000D01*
X119792720Y-65018907D01*
X119828684Y-65068407D01*
X119832179Y-65115295D01*
X119802050Y-65295847D01*
X119802050Y-65534152D01*
X119841273Y-65769204D01*
X119918652Y-65994600D01*
X120032071Y-66204179D01*
X120032073Y-66204182D01*
X120178437Y-66392231D01*
X120178442Y-66392237D01*
X120320394Y-66522912D01*
X120353766Y-66553633D01*
X120553266Y-66683973D01*
X120771498Y-66779699D01*
X121002510Y-66838199D01*
X121180528Y-66852950D01*
X121180536Y-66852950D01*
X121299464Y-66852950D01*
X121299472Y-66852950D01*
X121477490Y-66838199D01*
X121708502Y-66779699D01*
X121926734Y-66683973D01*
X122126234Y-66553633D01*
X122301560Y-66392235D01*
X122447929Y-66204179D01*
X122450191Y-66200000D01*
X131094353Y-66200000D01*
X131114834Y-66342456D01*
X131174108Y-66472246D01*
X131174623Y-66473373D01*
X131223334Y-66529589D01*
X131268873Y-66582144D01*
X131389942Y-66659950D01*
X131389947Y-66659953D01*
X131490804Y-66689567D01*
X131528035Y-66700499D01*
X131528036Y-66700499D01*
X131528039Y-66700500D01*
X131528041Y-66700500D01*
X131671959Y-66700500D01*
X131671961Y-66700500D01*
X131810053Y-66659953D01*
X131931128Y-66582143D01*
X132025377Y-66473373D01*
X132085165Y-66342457D01*
X132105647Y-66200000D01*
X132105575Y-66199500D01*
X132085165Y-66057543D01*
X132061432Y-66005575D01*
X132025377Y-65926627D01*
X131931128Y-65817857D01*
X131931127Y-65817856D01*
X131931126Y-65817855D01*
X131810057Y-65740049D01*
X131810054Y-65740047D01*
X131810053Y-65740047D01*
X131810050Y-65740046D01*
X131671964Y-65699500D01*
X131671961Y-65699500D01*
X131528039Y-65699500D01*
X131528035Y-65699500D01*
X131389949Y-65740046D01*
X131389942Y-65740049D01*
X131268873Y-65817855D01*
X131174622Y-65926628D01*
X131114834Y-66057543D01*
X131094353Y-66199997D01*
X131094353Y-66200000D01*
X122450191Y-66200000D01*
X122561349Y-65994597D01*
X122638726Y-65769206D01*
X122677950Y-65534152D01*
X122677950Y-65295848D01*
X122668395Y-65238589D01*
X122647821Y-65115295D01*
X122656893Y-65054786D01*
X122699798Y-65011165D01*
X122745471Y-65000000D01*
X132658133Y-65000000D01*
X132716324Y-65018907D01*
X132752288Y-65068407D01*
X132755062Y-65119142D01*
X132714699Y-65313376D01*
X132714697Y-65313385D01*
X132695093Y-65599996D01*
X132695093Y-65600003D01*
X132714697Y-65886614D01*
X132714699Y-65886623D01*
X132773147Y-66167893D01*
X132869358Y-66438602D01*
X133001525Y-66693674D01*
X133167193Y-66928372D01*
X133167206Y-66928387D01*
X133177618Y-66939536D01*
X133893620Y-66223534D01*
X133964894Y-66323624D01*
X134116932Y-66468592D01*
X134176176Y-66506665D01*
X133463209Y-67219633D01*
X133463208Y-67219633D01*
X133586132Y-67319638D01*
X133586148Y-67319649D01*
X133831601Y-67468913D01*
X133831608Y-67468917D01*
X134095107Y-67583370D01*
X134371740Y-67660879D01*
X134371749Y-67660881D01*
X134656356Y-67699999D01*
X134656362Y-67700000D01*
X134943638Y-67700000D01*
X134943643Y-67699999D01*
X135228250Y-67660881D01*
X135228259Y-67660879D01*
X135504892Y-67583370D01*
X135768391Y-67468917D01*
X135768398Y-67468913D01*
X136013851Y-67319649D01*
X136013867Y-67319638D01*
X136136789Y-67219633D01*
X135425026Y-66507870D01*
X135562540Y-66399729D01*
X135700110Y-66240965D01*
X135708784Y-66225941D01*
X136422379Y-66939536D01*
X136422381Y-66939536D01*
X136432796Y-66928386D01*
X136432797Y-66928385D01*
X136523774Y-66799500D01*
X137144353Y-66799500D01*
X137164834Y-66941956D01*
X137179181Y-66973371D01*
X137224623Y-67072873D01*
X137311396Y-67173015D01*
X137318873Y-67181644D01*
X137439942Y-67259450D01*
X137439947Y-67259453D01*
X137528905Y-67285573D01*
X137578035Y-67299999D01*
X137578036Y-67299999D01*
X137578039Y-67300000D01*
X137578041Y-67300000D01*
X137721959Y-67300000D01*
X137721961Y-67300000D01*
X137860053Y-67259453D01*
X137981128Y-67181643D01*
X138075377Y-67072873D01*
X138135165Y-66941957D01*
X138155647Y-66799500D01*
X138147099Y-66740049D01*
X138135165Y-66657043D01*
X138100959Y-66582143D01*
X138075377Y-66526127D01*
X137981128Y-66417357D01*
X137981127Y-66417356D01*
X137981126Y-66417355D01*
X137860057Y-66339549D01*
X137860054Y-66339547D01*
X137860053Y-66339547D01*
X137860050Y-66339546D01*
X137721964Y-66299000D01*
X137721961Y-66299000D01*
X137578039Y-66299000D01*
X137578035Y-66299000D01*
X137439949Y-66339546D01*
X137439942Y-66339549D01*
X137318873Y-66417355D01*
X137224622Y-66526128D01*
X137164834Y-66657043D01*
X137144353Y-66799497D01*
X137144353Y-66799500D01*
X136523774Y-66799500D01*
X136598474Y-66693674D01*
X136730641Y-66438602D01*
X136826852Y-66167893D01*
X136885300Y-65886623D01*
X136885302Y-65886614D01*
X136904907Y-65600003D01*
X136904907Y-65599996D01*
X136885302Y-65313385D01*
X136885300Y-65313376D01*
X136844938Y-65119142D01*
X136851610Y-65058322D01*
X136892758Y-65013039D01*
X136941867Y-65000000D01*
X138890500Y-65000000D01*
X138948691Y-65018907D01*
X138984655Y-65068407D01*
X138989500Y-65099000D01*
X138989500Y-90997840D01*
X138989312Y-91002140D01*
X138980707Y-91100500D01*
X138975222Y-91163194D01*
X138972226Y-91180188D01*
X138932066Y-91330067D01*
X138926163Y-91346284D01*
X138860593Y-91486898D01*
X138851965Y-91501842D01*
X138762971Y-91628939D01*
X138751879Y-91642159D01*
X138642159Y-91751879D01*
X138628939Y-91762971D01*
X138501842Y-91851965D01*
X138486898Y-91860593D01*
X138346284Y-91926163D01*
X138330067Y-91932066D01*
X138180188Y-91972226D01*
X138163194Y-91975222D01*
X138138823Y-91977354D01*
X138002140Y-91989312D01*
X137997840Y-91989500D01*
X73002160Y-91989500D01*
X72997859Y-91989312D01*
X72836805Y-91975222D01*
X72819811Y-91972226D01*
X72669932Y-91932066D01*
X72653718Y-91926164D01*
X72513100Y-91860592D01*
X72498157Y-91851965D01*
X72371060Y-91762971D01*
X72357840Y-91751879D01*
X72248120Y-91642159D01*
X72237028Y-91628939D01*
X72236529Y-91628227D01*
X72195581Y-91569746D01*
X73314500Y-91569746D01*
X73314501Y-91569758D01*
X73326132Y-91628227D01*
X73326134Y-91628233D01*
X73370445Y-91694548D01*
X73370448Y-91694552D01*
X73436769Y-91738867D01*
X73481231Y-91747711D01*
X73495241Y-91750498D01*
X73495246Y-91750498D01*
X73495252Y-91750500D01*
X73495253Y-91750500D01*
X75234747Y-91750500D01*
X75234748Y-91750500D01*
X75293231Y-91738867D01*
X75359552Y-91694552D01*
X75403867Y-91628231D01*
X75415500Y-91569748D01*
X75415500Y-89830252D01*
X75403867Y-89771769D01*
X75359552Y-89705448D01*
X75359548Y-89705445D01*
X75293233Y-89661134D01*
X75293231Y-89661133D01*
X75293228Y-89661132D01*
X75293227Y-89661132D01*
X75234758Y-89649501D01*
X75234748Y-89649500D01*
X73495252Y-89649500D01*
X73495251Y-89649500D01*
X73495241Y-89649501D01*
X73436772Y-89661132D01*
X73436766Y-89661134D01*
X73370451Y-89705445D01*
X73370445Y-89705451D01*
X73326134Y-89771766D01*
X73326132Y-89771772D01*
X73314501Y-89830241D01*
X73314500Y-89830253D01*
X73314500Y-91569746D01*
X72195581Y-91569746D01*
X72148034Y-91501842D01*
X72139408Y-91486902D01*
X72073832Y-91346275D01*
X72067933Y-91330067D01*
X72027771Y-91180178D01*
X72024778Y-91163201D01*
X72010687Y-91002141D01*
X72010500Y-90997840D01*
X72010500Y-88160003D01*
X73309417Y-88160003D01*
X73329698Y-88365929D01*
X73329699Y-88365934D01*
X73389768Y-88563954D01*
X73487316Y-88746452D01*
X73584327Y-88864660D01*
X73618590Y-88906410D01*
X73618595Y-88906414D01*
X73778547Y-89037683D01*
X73778548Y-89037683D01*
X73778550Y-89037685D01*
X73961046Y-89135232D01*
X74047358Y-89161414D01*
X74159065Y-89195300D01*
X74159070Y-89195301D01*
X74364997Y-89215583D01*
X74365000Y-89215583D01*
X74365003Y-89215583D01*
X74570929Y-89195301D01*
X74570934Y-89195300D01*
X74768954Y-89135232D01*
X74951450Y-89037685D01*
X75111410Y-88906410D01*
X75242685Y-88746450D01*
X75340232Y-88563954D01*
X75400300Y-88365934D01*
X75400301Y-88365929D01*
X75420583Y-88160003D01*
X75420583Y-88159996D01*
X75400301Y-87954070D01*
X75400300Y-87954065D01*
X75362310Y-87828829D01*
X75340232Y-87756046D01*
X75242685Y-87573550D01*
X75213289Y-87537731D01*
X75132034Y-87438720D01*
X75111410Y-87413590D01*
X75111404Y-87413585D01*
X74951452Y-87282316D01*
X74768954Y-87184768D01*
X74570934Y-87124699D01*
X74570929Y-87124698D01*
X74365003Y-87104417D01*
X74364997Y-87104417D01*
X74159070Y-87124698D01*
X74159065Y-87124699D01*
X73961045Y-87184768D01*
X73778547Y-87282316D01*
X73618595Y-87413585D01*
X73618585Y-87413595D01*
X73487316Y-87573547D01*
X73389768Y-87756045D01*
X73329699Y-87954065D01*
X73329698Y-87954070D01*
X73309417Y-88159996D01*
X73309417Y-88160003D01*
X72010500Y-88160003D01*
X72010500Y-85620003D01*
X73309417Y-85620003D01*
X73329698Y-85825929D01*
X73329699Y-85825934D01*
X73389768Y-86023954D01*
X73487316Y-86206452D01*
X73564499Y-86300500D01*
X73618590Y-86366410D01*
X73618595Y-86366414D01*
X73778547Y-86497683D01*
X73778548Y-86497683D01*
X73778550Y-86497685D01*
X73961046Y-86595232D01*
X74047358Y-86621414D01*
X74159065Y-86655300D01*
X74159070Y-86655301D01*
X74364997Y-86675583D01*
X74365000Y-86675583D01*
X74365003Y-86675583D01*
X74570929Y-86655301D01*
X74570934Y-86655300D01*
X74570934Y-86655299D01*
X74768954Y-86595232D01*
X74951450Y-86497685D01*
X75111410Y-86366410D01*
X75242685Y-86206450D01*
X75340232Y-86023954D01*
X75400300Y-85825934D01*
X75400301Y-85825929D01*
X75420583Y-85620003D01*
X75420583Y-85619996D01*
X75400301Y-85414070D01*
X75400300Y-85414065D01*
X75377847Y-85340047D01*
X75340232Y-85216046D01*
X75242685Y-85033550D01*
X75219462Y-85005253D01*
X75132034Y-84898720D01*
X75111410Y-84873590D01*
X75070115Y-84839700D01*
X74951452Y-84742316D01*
X74768954Y-84644768D01*
X74570934Y-84584699D01*
X74570929Y-84584698D01*
X74365003Y-84564417D01*
X74364997Y-84564417D01*
X74159070Y-84584698D01*
X74159065Y-84584699D01*
X73961045Y-84644768D01*
X73778547Y-84742316D01*
X73618595Y-84873585D01*
X73618585Y-84873595D01*
X73487316Y-85033547D01*
X73389768Y-85216045D01*
X73329699Y-85414065D01*
X73329698Y-85414070D01*
X73309417Y-85619996D01*
X73309417Y-85620003D01*
X72010500Y-85620003D01*
X72010500Y-83080003D01*
X73309417Y-83080003D01*
X73329698Y-83285929D01*
X73329699Y-83285934D01*
X73389768Y-83483954D01*
X73487316Y-83666452D01*
X73618585Y-83826404D01*
X73618590Y-83826410D01*
X73618595Y-83826414D01*
X73778547Y-83957683D01*
X73778548Y-83957683D01*
X73778550Y-83957685D01*
X73961046Y-84055232D01*
X74098996Y-84097078D01*
X74159065Y-84115300D01*
X74159070Y-84115301D01*
X74364997Y-84135583D01*
X74365000Y-84135583D01*
X74365003Y-84135583D01*
X74570929Y-84115301D01*
X74570934Y-84115300D01*
X74768954Y-84055232D01*
X74951450Y-83957685D01*
X75111410Y-83826410D01*
X75242685Y-83666450D01*
X75340232Y-83483954D01*
X75400300Y-83285934D01*
X75400301Y-83285929D01*
X75420583Y-83080003D01*
X75420583Y-83079996D01*
X75400301Y-82874070D01*
X75400300Y-82874065D01*
X75369288Y-82771831D01*
X75340232Y-82676046D01*
X75242685Y-82493550D01*
X75111410Y-82333590D01*
X75093627Y-82318996D01*
X74951452Y-82202316D01*
X74768954Y-82104768D01*
X74570934Y-82044699D01*
X74570929Y-82044698D01*
X74365003Y-82024417D01*
X74364997Y-82024417D01*
X74159070Y-82044698D01*
X74159065Y-82044699D01*
X73961045Y-82104768D01*
X73778547Y-82202316D01*
X73618595Y-82333585D01*
X73618585Y-82333595D01*
X73487316Y-82493547D01*
X73389768Y-82676045D01*
X73329699Y-82874065D01*
X73329698Y-82874070D01*
X73309417Y-83079996D01*
X73309417Y-83080003D01*
X72010500Y-83080003D01*
X72010500Y-80740000D01*
X73329617Y-80740000D01*
X73330192Y-80745834D01*
X73330194Y-80745844D01*
X73390232Y-80943762D01*
X73390234Y-80943767D01*
X73487724Y-81126160D01*
X73487731Y-81126170D01*
X73618940Y-81286050D01*
X73618949Y-81286059D01*
X73778829Y-81417268D01*
X73778839Y-81417275D01*
X73961232Y-81514765D01*
X73961237Y-81514767D01*
X74159158Y-81574806D01*
X74159160Y-81574807D01*
X74165000Y-81575381D01*
X74165000Y-80998335D01*
X74222685Y-81024680D01*
X74329237Y-81040000D01*
X74400763Y-81040000D01*
X74507315Y-81024680D01*
X74565000Y-80998335D01*
X74565000Y-81575381D01*
X74570839Y-81574807D01*
X74570841Y-81574806D01*
X74768762Y-81514767D01*
X74768767Y-81514765D01*
X74951160Y-81417275D01*
X74951170Y-81417268D01*
X75111050Y-81286059D01*
X75111059Y-81286050D01*
X75242268Y-81126170D01*
X75242275Y-81126160D01*
X75339765Y-80943767D01*
X75339767Y-80943762D01*
X75399805Y-80745844D01*
X75399807Y-80745834D01*
X75400383Y-80740000D01*
X74827383Y-80740000D01*
X74865000Y-80611889D01*
X74865000Y-80468111D01*
X74827383Y-80340000D01*
X75400382Y-80340000D01*
X75399807Y-80334165D01*
X75399805Y-80334155D01*
X75339767Y-80136237D01*
X75339765Y-80136232D01*
X75242275Y-79953839D01*
X75242268Y-79953829D01*
X75111059Y-79793949D01*
X75111050Y-79793940D01*
X74951170Y-79662731D01*
X74951160Y-79662724D01*
X74768767Y-79565234D01*
X74768762Y-79565232D01*
X74570844Y-79505194D01*
X74570834Y-79505192D01*
X74565000Y-79504617D01*
X74565000Y-80081664D01*
X74507315Y-80055320D01*
X74400763Y-80040000D01*
X74329237Y-80040000D01*
X74222685Y-80055320D01*
X74165000Y-80081664D01*
X74165000Y-79504617D01*
X74159165Y-79505192D01*
X74159155Y-79505194D01*
X73961237Y-79565232D01*
X73961232Y-79565234D01*
X73778839Y-79662724D01*
X73778829Y-79662731D01*
X73618949Y-79793940D01*
X73618940Y-79793949D01*
X73487731Y-79953829D01*
X73487724Y-79953839D01*
X73390234Y-80136232D01*
X73390232Y-80136237D01*
X73330194Y-80334155D01*
X73330192Y-80334165D01*
X73329617Y-80340000D01*
X73902617Y-80340000D01*
X73865000Y-80468111D01*
X73865000Y-80611889D01*
X73902617Y-80740000D01*
X73329617Y-80740000D01*
X72010500Y-80740000D01*
X72010500Y-78000003D01*
X73309417Y-78000003D01*
X73329698Y-78205929D01*
X73329699Y-78205934D01*
X73389768Y-78403954D01*
X73487316Y-78586452D01*
X73527004Y-78634812D01*
X73618590Y-78746410D01*
X73618595Y-78746414D01*
X73778547Y-78877683D01*
X73778548Y-78877683D01*
X73778550Y-78877685D01*
X73961046Y-78975232D01*
X74098997Y-79017078D01*
X74159065Y-79035300D01*
X74159070Y-79035301D01*
X74364997Y-79055583D01*
X74365000Y-79055583D01*
X74365003Y-79055583D01*
X74570929Y-79035301D01*
X74570934Y-79035300D01*
X74603336Y-79025471D01*
X74768954Y-78975232D01*
X74951450Y-78877685D01*
X75111410Y-78746410D01*
X75242685Y-78586450D01*
X75340232Y-78403954D01*
X75400300Y-78205934D01*
X75400301Y-78205929D01*
X75420583Y-78000003D01*
X75420583Y-77999996D01*
X75400301Y-77794070D01*
X75400300Y-77794065D01*
X75376597Y-77715927D01*
X75340232Y-77596046D01*
X75242685Y-77413550D01*
X75111410Y-77253590D01*
X75093627Y-77238996D01*
X74951452Y-77122316D01*
X74768954Y-77024768D01*
X74570934Y-76964699D01*
X74570929Y-76964698D01*
X74365003Y-76944417D01*
X74364997Y-76944417D01*
X74159070Y-76964698D01*
X74159065Y-76964699D01*
X73961045Y-77024768D01*
X73778547Y-77122316D01*
X73618595Y-77253585D01*
X73618585Y-77253595D01*
X73487316Y-77413547D01*
X73389768Y-77596045D01*
X73329699Y-77794065D01*
X73329698Y-77794070D01*
X73309417Y-77999996D01*
X73309417Y-78000003D01*
X72010500Y-78000003D01*
X72010500Y-75460003D01*
X73309417Y-75460003D01*
X73329698Y-75665929D01*
X73329699Y-75665934D01*
X73389768Y-75863954D01*
X73487316Y-76046452D01*
X73584759Y-76165187D01*
X73618590Y-76206410D01*
X73618595Y-76206414D01*
X73778547Y-76337683D01*
X73778548Y-76337683D01*
X73778550Y-76337685D01*
X73961046Y-76435232D01*
X74098997Y-76477078D01*
X74159065Y-76495300D01*
X74159070Y-76495301D01*
X74364997Y-76515583D01*
X74365000Y-76515583D01*
X74365003Y-76515583D01*
X74570929Y-76495301D01*
X74570934Y-76495300D01*
X74579884Y-76492585D01*
X74768954Y-76435232D01*
X74951450Y-76337685D01*
X75111410Y-76206410D01*
X75242685Y-76046450D01*
X75340232Y-75863954D01*
X75400300Y-75665934D01*
X75400301Y-75665929D01*
X75420583Y-75460003D01*
X75420583Y-75459996D01*
X75400301Y-75254070D01*
X75400300Y-75254065D01*
X75372159Y-75161296D01*
X75340232Y-75056046D01*
X75242685Y-74873550D01*
X75240185Y-74870504D01*
X75111414Y-74713595D01*
X75111410Y-74713590D01*
X75033925Y-74650000D01*
X74951452Y-74582316D01*
X74768954Y-74484768D01*
X74570934Y-74424699D01*
X74570929Y-74424698D01*
X74365003Y-74404417D01*
X74364997Y-74404417D01*
X74159070Y-74424698D01*
X74159065Y-74424699D01*
X73961045Y-74484768D01*
X73778547Y-74582316D01*
X73618595Y-74713585D01*
X73618585Y-74713595D01*
X73487316Y-74873547D01*
X73389768Y-75056045D01*
X73329699Y-75254065D01*
X73329698Y-75254070D01*
X73309417Y-75459996D01*
X73309417Y-75460003D01*
X72010500Y-75460003D01*
X72010500Y-72499999D01*
X72451520Y-72499999D01*
X72451521Y-72500000D01*
X72924333Y-72500000D01*
X72894760Y-72519760D01*
X72839505Y-72602455D01*
X72820102Y-72700000D01*
X72839505Y-72797545D01*
X72894760Y-72880240D01*
X72924333Y-72900000D01*
X72456791Y-72900000D01*
X72481748Y-72976812D01*
X72569064Y-73114399D01*
X72569070Y-73114406D01*
X72687865Y-73225963D01*
X72830670Y-73304471D01*
X72988516Y-73344999D01*
X72988519Y-73345000D01*
X73199999Y-73345000D01*
X73200000Y-73344999D01*
X73200000Y-72950000D01*
X73600000Y-72950000D01*
X73600000Y-73344999D01*
X73600001Y-73345000D01*
X73770576Y-73345000D01*
X73891675Y-73329702D01*
X73891681Y-73329700D01*
X74043198Y-73269710D01*
X74043209Y-73269704D01*
X74175039Y-73173922D01*
X74175040Y-73173921D01*
X74278920Y-73048354D01*
X74348307Y-72900897D01*
X74348308Y-72900895D01*
X74348480Y-72900000D01*
X73875667Y-72900000D01*
X73905240Y-72880240D01*
X73960495Y-72797545D01*
X73979898Y-72700000D01*
X73960495Y-72602455D01*
X73905240Y-72519760D01*
X73875667Y-72500000D01*
X74343209Y-72500000D01*
X74343208Y-72499999D01*
X74318251Y-72423187D01*
X74230935Y-72285600D01*
X74230929Y-72285593D01*
X74112134Y-72174036D01*
X73969329Y-72095528D01*
X73811483Y-72055000D01*
X73600001Y-72055000D01*
X73600000Y-72055001D01*
X73600000Y-72450000D01*
X73200000Y-72450000D01*
X73200000Y-72055001D01*
X73199999Y-72055000D01*
X73029424Y-72055000D01*
X72908324Y-72070297D01*
X72908318Y-72070299D01*
X72756801Y-72130289D01*
X72756790Y-72130295D01*
X72624960Y-72226077D01*
X72624959Y-72226078D01*
X72521079Y-72351645D01*
X72451692Y-72499102D01*
X72451691Y-72499104D01*
X72451520Y-72499999D01*
X72010500Y-72499999D01*
X72010500Y-71500000D01*
X75426112Y-71500000D01*
X75829557Y-71500000D01*
X75825000Y-71522912D01*
X75825000Y-71877088D01*
X75829557Y-71900000D01*
X75426113Y-71900000D01*
X75439799Y-72012723D01*
X75439802Y-72012732D01*
X75497924Y-72165987D01*
X75497926Y-72165990D01*
X75591042Y-72300894D01*
X75713738Y-72409592D01*
X75858884Y-72485772D01*
X75899999Y-72495906D01*
X75900000Y-72495905D01*
X75900000Y-72045665D01*
X75901736Y-72048264D01*
X75992700Y-72109045D01*
X76100000Y-72130388D01*
X76207300Y-72109045D01*
X76298264Y-72048264D01*
X76300000Y-72045665D01*
X76300000Y-72495906D01*
X76341115Y-72485772D01*
X76486261Y-72409592D01*
X76608957Y-72300894D01*
X76702073Y-72165990D01*
X76702075Y-72165987D01*
X76760197Y-72012732D01*
X76760200Y-72012723D01*
X76773887Y-71900000D01*
X76370443Y-71900000D01*
X76375000Y-71877088D01*
X76375000Y-71522912D01*
X76370443Y-71500000D01*
X76773887Y-71500000D01*
X76760200Y-71387276D01*
X76760197Y-71387267D01*
X76702075Y-71234012D01*
X76702073Y-71234009D01*
X76608957Y-71099105D01*
X76486261Y-70990407D01*
X76341116Y-70914227D01*
X76300000Y-70904092D01*
X76300000Y-71354334D01*
X76298264Y-71351736D01*
X76207300Y-71290955D01*
X76100000Y-71269612D01*
X75992700Y-71290955D01*
X75901736Y-71351736D01*
X75900000Y-71354334D01*
X75900000Y-70904093D01*
X75899999Y-70904092D01*
X75858883Y-70914227D01*
X75713738Y-70990407D01*
X75591042Y-71099105D01*
X75497926Y-71234009D01*
X75497924Y-71234012D01*
X75439802Y-71387267D01*
X75439799Y-71387276D01*
X75426112Y-71500000D01*
X72010500Y-71500000D01*
X72010500Y-70210003D01*
X78519417Y-70210003D01*
X78539698Y-70415929D01*
X78539699Y-70415934D01*
X78599768Y-70613954D01*
X78697316Y-70796452D01*
X78812622Y-70936953D01*
X78828590Y-70956410D01*
X78828595Y-70956414D01*
X78988547Y-71087683D01*
X78988548Y-71087683D01*
X78988550Y-71087685D01*
X79171046Y-71185232D01*
X79306424Y-71226298D01*
X79369065Y-71245300D01*
X79369070Y-71245301D01*
X79574997Y-71265583D01*
X79575000Y-71265583D01*
X79575003Y-71265583D01*
X79780929Y-71245301D01*
X79780934Y-71245300D01*
X79780933Y-71245300D01*
X79978954Y-71185232D01*
X80161450Y-71087685D01*
X80321410Y-70956410D01*
X80452685Y-70796450D01*
X80550232Y-70613954D01*
X80610300Y-70415934D01*
X80610301Y-70415929D01*
X80630583Y-70210003D01*
X80630583Y-70209996D01*
X80610301Y-70004070D01*
X80610300Y-70004065D01*
X80580423Y-69905575D01*
X80550232Y-69806046D01*
X80548530Y-69802862D01*
X80533881Y-69775454D01*
X80523125Y-69715221D01*
X80549827Y-69660170D01*
X80551136Y-69658833D01*
X81680474Y-68529496D01*
X81734992Y-68501719D01*
X81750479Y-68500500D01*
X83019101Y-68500500D01*
X83077292Y-68519407D01*
X83113256Y-68568907D01*
X83113256Y-68630093D01*
X83089104Y-68669502D01*
X82998657Y-68759950D01*
X82564659Y-69193946D01*
X82510143Y-69221723D01*
X82465919Y-69218679D01*
X82320937Y-69174700D01*
X82320929Y-69174698D01*
X82115003Y-69154417D01*
X82114997Y-69154417D01*
X81909070Y-69174698D01*
X81909065Y-69174699D01*
X81711045Y-69234768D01*
X81528547Y-69332316D01*
X81368595Y-69463585D01*
X81368585Y-69463595D01*
X81237316Y-69623547D01*
X81139768Y-69806045D01*
X81079699Y-70004065D01*
X81079698Y-70004070D01*
X81059417Y-70209996D01*
X81059417Y-70210003D01*
X81079698Y-70415929D01*
X81079699Y-70415934D01*
X81139768Y-70613954D01*
X81237316Y-70796452D01*
X81352622Y-70936953D01*
X81368590Y-70956410D01*
X81368595Y-70956414D01*
X81528547Y-71087683D01*
X81528548Y-71087683D01*
X81528550Y-71087685D01*
X81711046Y-71185232D01*
X81846424Y-71226298D01*
X81909065Y-71245300D01*
X81909070Y-71245301D01*
X82114997Y-71265583D01*
X82115000Y-71265583D01*
X82115003Y-71265583D01*
X82320929Y-71245301D01*
X82320934Y-71245300D01*
X82518954Y-71185232D01*
X82701450Y-71087685D01*
X82861410Y-70956410D01*
X82992685Y-70796450D01*
X83090232Y-70613954D01*
X83150300Y-70415934D01*
X83150301Y-70415929D01*
X83170583Y-70210003D01*
X83170583Y-70209996D01*
X83150301Y-70004070D01*
X83150300Y-70004065D01*
X83135325Y-69954699D01*
X83106319Y-69859078D01*
X83107520Y-69797908D01*
X83131050Y-69760341D01*
X83761896Y-69129495D01*
X83816413Y-69101719D01*
X83831900Y-69100500D01*
X84107015Y-69100500D01*
X84165206Y-69119407D01*
X84201170Y-69168907D01*
X84201170Y-69230093D01*
X84165206Y-69279593D01*
X84153689Y-69286806D01*
X84137250Y-69295594D01*
X84068547Y-69332316D01*
X83908595Y-69463585D01*
X83908585Y-69463595D01*
X83777316Y-69623547D01*
X83679768Y-69806045D01*
X83619699Y-70004065D01*
X83619698Y-70004070D01*
X83599417Y-70209996D01*
X83599417Y-70210003D01*
X83619698Y-70415929D01*
X83619699Y-70415934D01*
X83679768Y-70613954D01*
X83777316Y-70796452D01*
X83892622Y-70936953D01*
X83908590Y-70956410D01*
X83908595Y-70956414D01*
X84068547Y-71087683D01*
X84068548Y-71087683D01*
X84068550Y-71087685D01*
X84251046Y-71185232D01*
X84386424Y-71226298D01*
X84449065Y-71245300D01*
X84449070Y-71245301D01*
X84654997Y-71265583D01*
X84655000Y-71265583D01*
X84655003Y-71265583D01*
X84860929Y-71245301D01*
X84860934Y-71245300D01*
X85058954Y-71185232D01*
X85241450Y-71087685D01*
X85401410Y-70956410D01*
X85532685Y-70796450D01*
X85630232Y-70613954D01*
X85690300Y-70415934D01*
X85690301Y-70415929D01*
X85701977Y-70297381D01*
X85726497Y-70241324D01*
X85779283Y-70210385D01*
X85840174Y-70216382D01*
X85885911Y-70257025D01*
X85899500Y-70307085D01*
X85899500Y-72652914D01*
X85880593Y-72711105D01*
X85831093Y-72747069D01*
X85769907Y-72747069D01*
X85720407Y-72711105D01*
X85701977Y-72662618D01*
X85690301Y-72544070D01*
X85690300Y-72544065D01*
X85639829Y-72377685D01*
X85630232Y-72346046D01*
X85532685Y-72163550D01*
X85528953Y-72159003D01*
X85401414Y-72003595D01*
X85401410Y-72003590D01*
X85360422Y-71969952D01*
X85241452Y-71872316D01*
X85058954Y-71774768D01*
X84860934Y-71714699D01*
X84860929Y-71714698D01*
X84655003Y-71694417D01*
X84654997Y-71694417D01*
X84449070Y-71714698D01*
X84449065Y-71714699D01*
X84251045Y-71774768D01*
X84068547Y-71872316D01*
X83908595Y-72003585D01*
X83908585Y-72003595D01*
X83777316Y-72163547D01*
X83679768Y-72346045D01*
X83619699Y-72544065D01*
X83619698Y-72544070D01*
X83599417Y-72749996D01*
X83599417Y-72750003D01*
X83619698Y-72955929D01*
X83619699Y-72955934D01*
X83679768Y-73153954D01*
X83777316Y-73336452D01*
X83862334Y-73440047D01*
X83908590Y-73496410D01*
X83908595Y-73496414D01*
X84068547Y-73627683D01*
X84068548Y-73627683D01*
X84068550Y-73627685D01*
X84251046Y-73725232D01*
X84385613Y-73766052D01*
X84449065Y-73785300D01*
X84449070Y-73785301D01*
X84654997Y-73805583D01*
X84655000Y-73805583D01*
X84655003Y-73805583D01*
X84860929Y-73785301D01*
X84860934Y-73785300D01*
X84871341Y-73782143D01*
X85058954Y-73725232D01*
X85241450Y-73627685D01*
X85401410Y-73496410D01*
X85532685Y-73336450D01*
X85630232Y-73153954D01*
X85690300Y-72955934D01*
X85690301Y-72955929D01*
X85701977Y-72837381D01*
X85726497Y-72781324D01*
X85779283Y-72750385D01*
X85840174Y-72756382D01*
X85885911Y-72797025D01*
X85899500Y-72847085D01*
X85899500Y-72863437D01*
X85906953Y-72886374D01*
X85910579Y-72901474D01*
X85914354Y-72925306D01*
X85925301Y-72946788D01*
X85931247Y-72961142D01*
X85938703Y-72984088D01*
X85938702Y-72984088D01*
X85952884Y-73003608D01*
X85960997Y-73016847D01*
X85971950Y-73038342D01*
X85971951Y-73038343D01*
X85992030Y-73058423D01*
X85992031Y-73058423D01*
X85994513Y-73060905D01*
X85994516Y-73060909D01*
X87971950Y-75038342D01*
X87971949Y-75038342D01*
X88018668Y-75085060D01*
X88061658Y-75128050D01*
X88083152Y-75139001D01*
X88096398Y-75147119D01*
X88115905Y-75161293D01*
X88115906Y-75161293D01*
X88115910Y-75161296D01*
X88138849Y-75168748D01*
X88153201Y-75174694D01*
X88174691Y-75185644D01*
X88174693Y-75185644D01*
X88174696Y-75185646D01*
X88198517Y-75189418D01*
X88213613Y-75193042D01*
X88236567Y-75200500D01*
X88268481Y-75200500D01*
X101793099Y-75200500D01*
X101851290Y-75219407D01*
X101863103Y-75229496D01*
X102571950Y-75938342D01*
X102571949Y-75938342D01*
X102661657Y-76028049D01*
X102661658Y-76028050D01*
X102683149Y-76039000D01*
X102696395Y-76047117D01*
X102715910Y-76061296D01*
X102715912Y-76061296D01*
X102715913Y-76061297D01*
X102738852Y-76068750D01*
X102753195Y-76074690D01*
X102774696Y-76085646D01*
X102798524Y-76089419D01*
X102813633Y-76093047D01*
X102815677Y-76093711D01*
X102836567Y-76100499D01*
X102866437Y-76100499D01*
X102866461Y-76100500D01*
X102868481Y-76100500D01*
X109843099Y-76100500D01*
X109901290Y-76119407D01*
X109913103Y-76129496D01*
X112570504Y-78786897D01*
X112598281Y-78841414D01*
X112599500Y-78856901D01*
X112599500Y-79960992D01*
X112580593Y-80019183D01*
X112575321Y-80025821D01*
X112574623Y-80026626D01*
X112514834Y-80157543D01*
X112494353Y-80299997D01*
X112494353Y-80300002D01*
X112514834Y-80442456D01*
X112552554Y-80525050D01*
X112574623Y-80573373D01*
X112668872Y-80682143D01*
X112668873Y-80682144D01*
X112708395Y-80707543D01*
X112789947Y-80759953D01*
X112872621Y-80784228D01*
X112928035Y-80800499D01*
X112928036Y-80800499D01*
X112928039Y-80800500D01*
X112928041Y-80800500D01*
X113071959Y-80800500D01*
X113071961Y-80800500D01*
X113210053Y-80759953D01*
X113331128Y-80682143D01*
X113425377Y-80573373D01*
X113485165Y-80442457D01*
X113505647Y-80300000D01*
X113505575Y-80299500D01*
X113485165Y-80157543D01*
X113463360Y-80109798D01*
X113425377Y-80026627D01*
X113424679Y-80025821D01*
X113424332Y-80025001D01*
X113421549Y-80020670D01*
X113422298Y-80020188D01*
X113400863Y-79969461D01*
X113400500Y-79960992D01*
X113400500Y-78586569D01*
X113400500Y-78586567D01*
X113393042Y-78563613D01*
X113389418Y-78548514D01*
X113385646Y-78524696D01*
X113385644Y-78524693D01*
X113385644Y-78524691D01*
X113374694Y-78503201D01*
X113368749Y-78488851D01*
X113361296Y-78465910D01*
X113349194Y-78449253D01*
X113347115Y-78446391D01*
X113338998Y-78433145D01*
X113328050Y-78411658D01*
X113320346Y-78403954D01*
X113305486Y-78389093D01*
X113305486Y-78389094D01*
X113305484Y-78389091D01*
X112134763Y-77218370D01*
X112106987Y-77163854D01*
X112116558Y-77103422D01*
X112154919Y-77065060D01*
X112154097Y-77063781D01*
X112251896Y-77000929D01*
X112281128Y-76982143D01*
X112375377Y-76873373D01*
X112435165Y-76742457D01*
X112455647Y-76600000D01*
X112445678Y-76530666D01*
X112435165Y-76457543D01*
X112400367Y-76381347D01*
X112375377Y-76326627D01*
X112281128Y-76217857D01*
X112281127Y-76217856D01*
X112281126Y-76217855D01*
X112160057Y-76140049D01*
X112160054Y-76140047D01*
X112160053Y-76140047D01*
X112160050Y-76140046D01*
X112021964Y-76099500D01*
X112021961Y-76099500D01*
X111915479Y-76099500D01*
X111857288Y-76080593D01*
X111845475Y-76070504D01*
X111044475Y-75269504D01*
X111016698Y-75214987D01*
X111026269Y-75154555D01*
X111069534Y-75111290D01*
X111114479Y-75100500D01*
X114334836Y-75100500D01*
X114348511Y-75102732D01*
X114348683Y-75101506D01*
X114357764Y-75102772D01*
X114357765Y-75102773D01*
X114357765Y-75102772D01*
X114357766Y-75102773D01*
X114366507Y-75102368D01*
X114405793Y-75100552D01*
X114408070Y-75100500D01*
X114427841Y-75100500D01*
X114427844Y-75100500D01*
X114431337Y-75099846D01*
X114438141Y-75099056D01*
X114469992Y-75097585D01*
X114478976Y-75093617D01*
X114500777Y-75086865D01*
X114510433Y-75085061D01*
X114537543Y-75068274D01*
X114543589Y-75065088D01*
X114572765Y-75052206D01*
X114579709Y-75045260D01*
X114597601Y-75031089D01*
X114605952Y-75025919D01*
X114625165Y-75000474D01*
X114629662Y-74995308D01*
X115095475Y-74529496D01*
X115149991Y-74501719D01*
X115165478Y-74500500D01*
X115271959Y-74500500D01*
X115271961Y-74500500D01*
X115410053Y-74459953D01*
X115531128Y-74382143D01*
X115625377Y-74273373D01*
X115685165Y-74142457D01*
X115693770Y-74082606D01*
X115705647Y-74000002D01*
X115705647Y-73999997D01*
X115685165Y-73857543D01*
X115631771Y-73740627D01*
X115624796Y-73679840D01*
X115654882Y-73626563D01*
X115710538Y-73601145D01*
X115721824Y-73600500D01*
X115934521Y-73600500D01*
X115992712Y-73619407D01*
X116004525Y-73629496D01*
X116169453Y-73794424D01*
X116197230Y-73848941D01*
X116197441Y-73878514D01*
X116194354Y-73899997D01*
X116194353Y-73900002D01*
X116214834Y-74042456D01*
X116260504Y-74142457D01*
X116274623Y-74173373D01*
X116361271Y-74273371D01*
X116368873Y-74282144D01*
X116489942Y-74359950D01*
X116489947Y-74359953D01*
X116575295Y-74385013D01*
X116628035Y-74400499D01*
X116628036Y-74400499D01*
X116628039Y-74400500D01*
X116628041Y-74400500D01*
X116771959Y-74400500D01*
X116771961Y-74400500D01*
X116910053Y-74359953D01*
X117031128Y-74282143D01*
X117125377Y-74173373D01*
X117185165Y-74042457D01*
X117194060Y-73980593D01*
X117205647Y-73900002D01*
X117205647Y-73899997D01*
X117185165Y-73757543D01*
X117177440Y-73740627D01*
X117125377Y-73626627D01*
X117031128Y-73517857D01*
X117031127Y-73517856D01*
X117031126Y-73517855D01*
X116910057Y-73440049D01*
X116910054Y-73440047D01*
X116910053Y-73440047D01*
X116910050Y-73440046D01*
X116771964Y-73399500D01*
X116771961Y-73399500D01*
X116665479Y-73399500D01*
X116607288Y-73380593D01*
X116595475Y-73370504D01*
X116358565Y-73133594D01*
X116350479Y-73122344D01*
X116349487Y-73123094D01*
X116343958Y-73115772D01*
X116308428Y-73083382D01*
X116306775Y-73081804D01*
X116292797Y-73067826D01*
X116289859Y-73065813D01*
X116284496Y-73061564D01*
X116260933Y-73040084D01*
X116251762Y-73036531D01*
X116231586Y-73025895D01*
X116223484Y-73020345D01*
X116223479Y-73020343D01*
X116192457Y-73013046D01*
X116185902Y-73011016D01*
X116156177Y-72999501D01*
X116156174Y-72999500D01*
X116156173Y-72999500D01*
X116156172Y-72999500D01*
X116146348Y-72999500D01*
X116123683Y-72996870D01*
X116114119Y-72994621D01*
X116114118Y-72994621D01*
X116082547Y-72999025D01*
X116075701Y-72999500D01*
X113765165Y-72999500D01*
X113751489Y-72997267D01*
X113751318Y-72998494D01*
X113742234Y-72997226D01*
X113701887Y-72999092D01*
X113694207Y-72999447D01*
X113691931Y-72999500D01*
X113672153Y-72999500D01*
X113668658Y-73000153D01*
X113661845Y-73000943D01*
X113630011Y-73002414D01*
X113630007Y-73002415D01*
X113621013Y-73006386D01*
X113599228Y-73013132D01*
X113589571Y-73014937D01*
X113589565Y-73014940D01*
X113562465Y-73031718D01*
X113556396Y-73034917D01*
X113527238Y-73047792D01*
X113527231Y-73047796D01*
X113520286Y-73054742D01*
X113502406Y-73068905D01*
X113494048Y-73074080D01*
X113474839Y-73099515D01*
X113470335Y-73104692D01*
X112504525Y-74070503D01*
X112450008Y-74098281D01*
X112434521Y-74099500D01*
X105665480Y-74099500D01*
X105607289Y-74080593D01*
X105595476Y-74070504D01*
X105573972Y-74049000D01*
X105546195Y-73994483D01*
X105555766Y-73934051D01*
X105599031Y-73890786D01*
X105659463Y-73881215D01*
X105671854Y-73884003D01*
X105728039Y-73900500D01*
X105728041Y-73900500D01*
X105871959Y-73900500D01*
X105871961Y-73900500D01*
X106010053Y-73859953D01*
X106131128Y-73782143D01*
X106225377Y-73673373D01*
X106285165Y-73542457D01*
X106291992Y-73494971D01*
X106305647Y-73400002D01*
X106794353Y-73400002D01*
X106814834Y-73542456D01*
X106870205Y-73663699D01*
X106874623Y-73673373D01*
X106965464Y-73778210D01*
X106968873Y-73782144D01*
X107089942Y-73859950D01*
X107089947Y-73859953D01*
X107162360Y-73881215D01*
X107228035Y-73900499D01*
X107228036Y-73900499D01*
X107228039Y-73900500D01*
X107228041Y-73900500D01*
X107371959Y-73900500D01*
X107371961Y-73900500D01*
X107510053Y-73859953D01*
X107631128Y-73782143D01*
X107725377Y-73673373D01*
X107785165Y-73542457D01*
X107791992Y-73494971D01*
X107805647Y-73400002D01*
X108294353Y-73400002D01*
X108314834Y-73542456D01*
X108370205Y-73663699D01*
X108374623Y-73673373D01*
X108465464Y-73778210D01*
X108468873Y-73782144D01*
X108589942Y-73859950D01*
X108589947Y-73859953D01*
X108662360Y-73881215D01*
X108728035Y-73900499D01*
X108728036Y-73900499D01*
X108728039Y-73900500D01*
X108728041Y-73900500D01*
X108871959Y-73900500D01*
X108871961Y-73900500D01*
X109010053Y-73859953D01*
X109131128Y-73782143D01*
X109225377Y-73673373D01*
X109285165Y-73542457D01*
X109291992Y-73494971D01*
X109305647Y-73400002D01*
X109305647Y-73399997D01*
X109285165Y-73257543D01*
X109267040Y-73217855D01*
X109225377Y-73126627D01*
X109131128Y-73017857D01*
X109131127Y-73017856D01*
X109131126Y-73017855D01*
X109010057Y-72940049D01*
X109010054Y-72940047D01*
X109010053Y-72940047D01*
X109010050Y-72940046D01*
X108871964Y-72899500D01*
X108871961Y-72899500D01*
X108728039Y-72899500D01*
X108728035Y-72899500D01*
X108589949Y-72940046D01*
X108589942Y-72940049D01*
X108468873Y-73017855D01*
X108374622Y-73126628D01*
X108314834Y-73257543D01*
X108294353Y-73399997D01*
X108294353Y-73400002D01*
X107805647Y-73400002D01*
X107805647Y-73399997D01*
X107785165Y-73257543D01*
X107767040Y-73217855D01*
X107725377Y-73126627D01*
X107631128Y-73017857D01*
X107631127Y-73017856D01*
X107631126Y-73017855D01*
X107510057Y-72940049D01*
X107510054Y-72940047D01*
X107510053Y-72940047D01*
X107510050Y-72940046D01*
X107371964Y-72899500D01*
X107371961Y-72899500D01*
X107228039Y-72899500D01*
X107228035Y-72899500D01*
X107089949Y-72940046D01*
X107089942Y-72940049D01*
X106968873Y-73017855D01*
X106874622Y-73126628D01*
X106814834Y-73257543D01*
X106794353Y-73399997D01*
X106794353Y-73400002D01*
X106305647Y-73400002D01*
X106305647Y-73399997D01*
X106285165Y-73257543D01*
X106267040Y-73217855D01*
X106225377Y-73126627D01*
X106131128Y-73017857D01*
X106131127Y-73017856D01*
X106131126Y-73017855D01*
X106010057Y-72940049D01*
X106010054Y-72940047D01*
X106010053Y-72940047D01*
X106010050Y-72940046D01*
X105871964Y-72899500D01*
X105871961Y-72899500D01*
X105728039Y-72899500D01*
X105728035Y-72899500D01*
X105589949Y-72940046D01*
X105589942Y-72940049D01*
X105553023Y-72963776D01*
X105493848Y-72979331D01*
X105436831Y-72957132D01*
X105403752Y-72905659D01*
X105400500Y-72880492D01*
X105400500Y-72719507D01*
X105419407Y-72661316D01*
X105468907Y-72625352D01*
X105530093Y-72625352D01*
X105553023Y-72636223D01*
X105589947Y-72659953D01*
X105682944Y-72687259D01*
X105728035Y-72700499D01*
X105728036Y-72700499D01*
X105728039Y-72700500D01*
X105728041Y-72700500D01*
X105871959Y-72700500D01*
X105871961Y-72700500D01*
X106010053Y-72659953D01*
X106131128Y-72582143D01*
X106225377Y-72473373D01*
X106285165Y-72342457D01*
X106301898Y-72226077D01*
X106305647Y-72200002D01*
X106794353Y-72200002D01*
X106814834Y-72342456D01*
X106853634Y-72427414D01*
X106874623Y-72473373D01*
X106944824Y-72554390D01*
X106968873Y-72582144D01*
X107089942Y-72659950D01*
X107089947Y-72659953D01*
X107182944Y-72687259D01*
X107228035Y-72700499D01*
X107228036Y-72700499D01*
X107228039Y-72700500D01*
X107228041Y-72700500D01*
X107371959Y-72700500D01*
X107371961Y-72700500D01*
X107510053Y-72659953D01*
X107631128Y-72582143D01*
X107725377Y-72473373D01*
X107785165Y-72342457D01*
X107801898Y-72226077D01*
X107805647Y-72200002D01*
X108294353Y-72200002D01*
X108314834Y-72342456D01*
X108353634Y-72427414D01*
X108374623Y-72473373D01*
X108444824Y-72554390D01*
X108468873Y-72582144D01*
X108589942Y-72659950D01*
X108589947Y-72659953D01*
X108682944Y-72687259D01*
X108728035Y-72700499D01*
X108728036Y-72700499D01*
X108728039Y-72700500D01*
X108728041Y-72700500D01*
X108871959Y-72700500D01*
X108871961Y-72700500D01*
X109010053Y-72659953D01*
X109131128Y-72582143D01*
X109225377Y-72473373D01*
X109285165Y-72342457D01*
X109301898Y-72226077D01*
X109305647Y-72200002D01*
X109305647Y-72199997D01*
X109285165Y-72057543D01*
X109254586Y-71990585D01*
X109225377Y-71926627D01*
X109131128Y-71817857D01*
X109131127Y-71817856D01*
X109131126Y-71817855D01*
X109010057Y-71740049D01*
X109010054Y-71740047D01*
X109010053Y-71740047D01*
X109006188Y-71738912D01*
X108871964Y-71699500D01*
X108871961Y-71699500D01*
X108728039Y-71699500D01*
X108728035Y-71699500D01*
X108589949Y-71740046D01*
X108589942Y-71740049D01*
X108468873Y-71817855D01*
X108374622Y-71926628D01*
X108314834Y-72057543D01*
X108294353Y-72199997D01*
X108294353Y-72200002D01*
X107805647Y-72200002D01*
X107805647Y-72199997D01*
X107785165Y-72057543D01*
X107754586Y-71990585D01*
X107725377Y-71926627D01*
X107631128Y-71817857D01*
X107631127Y-71817856D01*
X107631126Y-71817855D01*
X107510057Y-71740049D01*
X107510054Y-71740047D01*
X107510053Y-71740047D01*
X107506188Y-71738912D01*
X107371964Y-71699500D01*
X107371961Y-71699500D01*
X107228039Y-71699500D01*
X107228035Y-71699500D01*
X107089949Y-71740046D01*
X107089942Y-71740049D01*
X106968873Y-71817855D01*
X106874622Y-71926628D01*
X106814834Y-72057543D01*
X106794353Y-72199997D01*
X106794353Y-72200002D01*
X106305647Y-72200002D01*
X106305647Y-72199997D01*
X106285165Y-72057543D01*
X106254586Y-71990585D01*
X106225377Y-71926627D01*
X106131128Y-71817857D01*
X106131127Y-71817856D01*
X106131126Y-71817855D01*
X106010057Y-71740049D01*
X106010054Y-71740047D01*
X106010053Y-71740047D01*
X106006188Y-71738912D01*
X105871964Y-71699500D01*
X105871961Y-71699500D01*
X105728039Y-71699500D01*
X105728035Y-71699500D01*
X105589949Y-71740046D01*
X105589942Y-71740049D01*
X105553023Y-71763776D01*
X105493848Y-71779331D01*
X105436831Y-71757132D01*
X105403752Y-71705659D01*
X105400500Y-71680492D01*
X105400500Y-71519507D01*
X105419407Y-71461316D01*
X105468907Y-71425352D01*
X105530093Y-71425352D01*
X105553023Y-71436223D01*
X105589947Y-71459953D01*
X105696403Y-71491211D01*
X105728035Y-71500499D01*
X105728036Y-71500499D01*
X105728039Y-71500500D01*
X105728041Y-71500500D01*
X105871959Y-71500500D01*
X105871961Y-71500500D01*
X106010053Y-71459953D01*
X106131128Y-71382143D01*
X106225377Y-71273373D01*
X106285165Y-71142457D01*
X106299963Y-71039534D01*
X106305647Y-71000002D01*
X106305647Y-70999997D01*
X106285165Y-70857543D01*
X106274517Y-70834228D01*
X106225377Y-70726627D01*
X106131128Y-70617857D01*
X106131127Y-70617856D01*
X106131126Y-70617855D01*
X106010057Y-70540049D01*
X106010054Y-70540047D01*
X106010053Y-70540047D01*
X106010050Y-70540046D01*
X105871964Y-70499500D01*
X105871961Y-70499500D01*
X105728039Y-70499500D01*
X105728035Y-70499500D01*
X105589949Y-70540046D01*
X105589943Y-70540048D01*
X105540902Y-70571565D01*
X105481726Y-70587118D01*
X105424710Y-70564919D01*
X105396816Y-70528267D01*
X105393612Y-70521012D01*
X105386865Y-70499220D01*
X105386391Y-70496683D01*
X105385061Y-70489567D01*
X105368278Y-70462462D01*
X105365085Y-70456406D01*
X105356090Y-70436031D01*
X105352207Y-70427236D01*
X105345257Y-70420286D01*
X105331088Y-70402396D01*
X105325920Y-70394049D01*
X105325919Y-70394048D01*
X105300483Y-70374839D01*
X105295306Y-70370334D01*
X104830546Y-69905575D01*
X104802769Y-69851058D01*
X104802558Y-69821482D01*
X104805647Y-69800002D01*
X105294353Y-69800002D01*
X105314834Y-69942456D01*
X105342971Y-70004066D01*
X105374623Y-70073373D01*
X105459308Y-70171105D01*
X105468873Y-70182144D01*
X105585391Y-70257025D01*
X105589947Y-70259953D01*
X105689721Y-70289249D01*
X105728035Y-70300499D01*
X105728036Y-70300499D01*
X105728039Y-70300500D01*
X105728041Y-70300500D01*
X105871959Y-70300500D01*
X105871961Y-70300500D01*
X106010053Y-70259953D01*
X106131128Y-70182143D01*
X106225377Y-70073373D01*
X106285165Y-69942457D01*
X106297416Y-69857246D01*
X106305647Y-69800002D01*
X109844353Y-69800002D01*
X109864834Y-69942456D01*
X109892971Y-70004066D01*
X109924623Y-70073373D01*
X110009308Y-70171105D01*
X110018873Y-70182144D01*
X110135391Y-70257025D01*
X110139947Y-70259953D01*
X110239721Y-70289249D01*
X110278035Y-70300499D01*
X110278036Y-70300499D01*
X110278039Y-70300500D01*
X110278041Y-70300500D01*
X110345353Y-70300500D01*
X110403544Y-70319407D01*
X110439508Y-70368907D01*
X110444353Y-70399500D01*
X110444353Y-70400500D01*
X110425446Y-70458691D01*
X110375946Y-70494655D01*
X110345353Y-70499500D01*
X110328035Y-70499500D01*
X110189949Y-70540046D01*
X110189942Y-70540049D01*
X110068873Y-70617855D01*
X109974622Y-70726628D01*
X109914834Y-70857543D01*
X109894353Y-70999997D01*
X109894353Y-71000002D01*
X109914834Y-71142456D01*
X109917589Y-71148488D01*
X109974623Y-71273373D01*
X110044824Y-71354390D01*
X110068873Y-71382144D01*
X110189942Y-71459950D01*
X110189947Y-71459953D01*
X110296403Y-71491211D01*
X110328035Y-71500499D01*
X110328036Y-71500499D01*
X110328039Y-71500500D01*
X110328041Y-71500500D01*
X110431553Y-71500500D01*
X110489744Y-71519407D01*
X110525708Y-71568907D01*
X110528491Y-71601361D01*
X110530285Y-71601361D01*
X110530285Y-71608443D01*
X110550766Y-71750897D01*
X110610554Y-71881812D01*
X110610555Y-71881814D01*
X110687075Y-71970123D01*
X110704805Y-71990585D01*
X110739253Y-72012723D01*
X110825879Y-72068394D01*
X110932335Y-72099652D01*
X110963967Y-72108940D01*
X110963968Y-72108940D01*
X110963971Y-72108941D01*
X110963973Y-72108941D01*
X111107891Y-72108941D01*
X111107893Y-72108941D01*
X111245985Y-72068394D01*
X111367060Y-71990584D01*
X111461309Y-71881814D01*
X111521097Y-71750898D01*
X111531821Y-71676312D01*
X111541579Y-71608443D01*
X111541579Y-71608438D01*
X111521097Y-71465984D01*
X111496715Y-71412595D01*
X111461309Y-71335068D01*
X111367060Y-71226298D01*
X111367059Y-71226297D01*
X111367058Y-71226296D01*
X111245989Y-71148490D01*
X111245986Y-71148488D01*
X111245985Y-71148488D01*
X111245982Y-71148487D01*
X111107896Y-71107941D01*
X111107893Y-71107941D01*
X111004380Y-71107941D01*
X110946189Y-71089034D01*
X110910225Y-71039534D01*
X110907435Y-71007081D01*
X110905647Y-71007081D01*
X110905647Y-70999500D01*
X110906545Y-70996735D01*
X110906385Y-70994874D01*
X110906652Y-70993014D01*
X110907705Y-70993165D01*
X110924554Y-70941309D01*
X110974054Y-70905345D01*
X111004647Y-70900500D01*
X111021959Y-70900500D01*
X111021961Y-70900500D01*
X111160053Y-70859953D01*
X111281128Y-70782143D01*
X111375377Y-70673373D01*
X111435165Y-70542457D01*
X111446857Y-70461134D01*
X111455647Y-70400002D01*
X111455647Y-70399997D01*
X111435165Y-70257543D01*
X111413454Y-70210003D01*
X111375377Y-70126627D01*
X111281128Y-70017857D01*
X111281127Y-70017856D01*
X111281126Y-70017855D01*
X111160057Y-69940049D01*
X111160054Y-69940047D01*
X111160053Y-69940047D01*
X111160050Y-69940046D01*
X111021964Y-69899500D01*
X111021961Y-69899500D01*
X110954647Y-69899500D01*
X110896456Y-69880593D01*
X110860492Y-69831093D01*
X110855647Y-69800500D01*
X110855647Y-69799500D01*
X110874554Y-69741309D01*
X110924054Y-69705345D01*
X110954647Y-69700500D01*
X111021959Y-69700500D01*
X111021961Y-69700500D01*
X111160053Y-69659953D01*
X111281128Y-69582143D01*
X111375377Y-69473373D01*
X111435165Y-69342457D01*
X111446792Y-69261589D01*
X111455647Y-69200002D01*
X111455647Y-69199997D01*
X111435165Y-69057543D01*
X111423751Y-69032550D01*
X111375377Y-68926627D01*
X111281128Y-68817857D01*
X111281127Y-68817856D01*
X111281126Y-68817855D01*
X111160057Y-68740049D01*
X111160054Y-68740047D01*
X111160053Y-68740047D01*
X111160050Y-68740046D01*
X111021964Y-68699500D01*
X111021961Y-68699500D01*
X110960615Y-68699500D01*
X110902424Y-68680593D01*
X110866460Y-68631093D01*
X110861615Y-68600500D01*
X110861615Y-68599500D01*
X110880522Y-68541309D01*
X110930022Y-68505345D01*
X110960615Y-68500500D01*
X111022459Y-68500500D01*
X111022461Y-68500500D01*
X111160553Y-68459953D01*
X111281628Y-68382143D01*
X111375877Y-68273373D01*
X111435665Y-68142457D01*
X111456147Y-68000000D01*
X111456077Y-67999515D01*
X111435665Y-67857543D01*
X111427674Y-67840046D01*
X111375877Y-67726627D01*
X111281628Y-67617857D01*
X111281627Y-67617856D01*
X111281626Y-67617855D01*
X111160557Y-67540049D01*
X111160554Y-67540047D01*
X111160553Y-67540047D01*
X111160550Y-67540046D01*
X111022464Y-67499500D01*
X111022461Y-67499500D01*
X110878539Y-67499500D01*
X110878535Y-67499500D01*
X110740449Y-67540046D01*
X110740442Y-67540049D01*
X110619373Y-67617855D01*
X110525122Y-67726628D01*
X110465334Y-67857543D01*
X110443845Y-68007008D01*
X110442632Y-68006833D01*
X110425946Y-68058191D01*
X110376446Y-68094155D01*
X110345853Y-68099000D01*
X110284003Y-68099000D01*
X110145917Y-68139546D01*
X110145910Y-68139549D01*
X110024841Y-68217355D01*
X109930590Y-68326128D01*
X109870802Y-68457043D01*
X109850321Y-68599497D01*
X109850321Y-68599500D01*
X109870802Y-68741956D01*
X109908530Y-68824567D01*
X109930591Y-68872873D01*
X110024840Y-68981643D01*
X110024841Y-68981644D01*
X110145910Y-69059450D01*
X110145915Y-69059453D01*
X110234883Y-69085576D01*
X110284003Y-69099999D01*
X110284004Y-69099999D01*
X110284007Y-69100000D01*
X110284009Y-69100000D01*
X110345353Y-69100000D01*
X110403544Y-69118907D01*
X110439508Y-69168407D01*
X110444353Y-69199000D01*
X110444353Y-69200500D01*
X110425446Y-69258691D01*
X110375946Y-69294655D01*
X110345353Y-69299500D01*
X110278035Y-69299500D01*
X110139949Y-69340046D01*
X110139942Y-69340049D01*
X110018873Y-69417855D01*
X109924622Y-69526628D01*
X109864834Y-69657543D01*
X109844353Y-69799997D01*
X109844353Y-69800002D01*
X106305647Y-69800002D01*
X106305647Y-69799997D01*
X106285165Y-69657543D01*
X106250731Y-69582144D01*
X106225377Y-69526627D01*
X106131128Y-69417857D01*
X106131127Y-69417856D01*
X106131126Y-69417855D01*
X106010057Y-69340049D01*
X106010054Y-69340047D01*
X106010053Y-69340047D01*
X106010050Y-69340046D01*
X105871964Y-69299500D01*
X105871961Y-69299500D01*
X105728039Y-69299500D01*
X105728035Y-69299500D01*
X105589949Y-69340046D01*
X105589942Y-69340049D01*
X105468873Y-69417855D01*
X105374622Y-69526628D01*
X105314834Y-69657543D01*
X105294353Y-69799997D01*
X105294353Y-69800002D01*
X104805647Y-69800002D01*
X104805647Y-69800000D01*
X104805575Y-69799500D01*
X104785165Y-69657543D01*
X104750731Y-69582144D01*
X104725377Y-69526627D01*
X104631128Y-69417857D01*
X104631127Y-69417856D01*
X104631126Y-69417855D01*
X104510057Y-69340049D01*
X104510054Y-69340047D01*
X104510053Y-69340047D01*
X104510050Y-69340046D01*
X104371964Y-69299500D01*
X104371961Y-69299500D01*
X104228039Y-69299500D01*
X104228035Y-69299500D01*
X104089949Y-69340046D01*
X104089942Y-69340049D01*
X103968873Y-69417855D01*
X103874622Y-69526628D01*
X103814834Y-69657543D01*
X103794353Y-69799997D01*
X103794353Y-69800002D01*
X103814834Y-69942456D01*
X103842971Y-70004066D01*
X103874623Y-70073373D01*
X103959308Y-70171105D01*
X103968873Y-70182144D01*
X104085391Y-70257025D01*
X104089947Y-70259953D01*
X104189721Y-70289249D01*
X104228035Y-70300499D01*
X104228036Y-70300499D01*
X104228039Y-70300500D01*
X104228041Y-70300500D01*
X104334522Y-70300500D01*
X104392713Y-70319407D01*
X104404519Y-70329490D01*
X104405526Y-70330497D01*
X104433303Y-70385013D01*
X104423732Y-70445445D01*
X104380467Y-70488710D01*
X104335522Y-70499500D01*
X104228035Y-70499500D01*
X104089949Y-70540046D01*
X104089942Y-70540049D01*
X103968873Y-70617855D01*
X103874622Y-70726628D01*
X103814834Y-70857543D01*
X103794353Y-70999997D01*
X103794353Y-71000003D01*
X103797441Y-71021482D01*
X103787007Y-71081771D01*
X103769453Y-71105574D01*
X103433590Y-71441437D01*
X103422361Y-71449550D01*
X103423090Y-71450515D01*
X103415771Y-71456041D01*
X103383372Y-71491580D01*
X103381796Y-71493231D01*
X103367830Y-71507198D01*
X103367817Y-71507213D01*
X103365813Y-71510138D01*
X103361561Y-71515504D01*
X103340084Y-71539065D01*
X103340083Y-71539067D01*
X103336529Y-71548240D01*
X103325896Y-71568412D01*
X103320346Y-71576515D01*
X103320342Y-71576524D01*
X103313045Y-71607545D01*
X103311016Y-71614097D01*
X103299499Y-71643826D01*
X103299499Y-71653657D01*
X103296871Y-71676312D01*
X103294621Y-71685880D01*
X103299025Y-71717451D01*
X103299500Y-71724298D01*
X103299500Y-71746972D01*
X103280593Y-71805163D01*
X103231093Y-71841127D01*
X103169907Y-71841127D01*
X103135671Y-71821793D01*
X103131127Y-71817856D01*
X103010057Y-71740049D01*
X103010054Y-71740047D01*
X103010053Y-71740047D01*
X103006188Y-71738912D01*
X102871964Y-71699500D01*
X102871961Y-71699500D01*
X102764478Y-71699500D01*
X102706287Y-71680593D01*
X102670323Y-71631093D01*
X102670323Y-71569907D01*
X102694474Y-71530496D01*
X102695474Y-71529496D01*
X102749991Y-71501719D01*
X102765478Y-71500500D01*
X102871959Y-71500500D01*
X102871961Y-71500500D01*
X103010053Y-71459953D01*
X103131128Y-71382143D01*
X103225377Y-71273373D01*
X103285165Y-71142457D01*
X103299963Y-71039534D01*
X103305647Y-71000002D01*
X103305647Y-70999997D01*
X103285165Y-70857543D01*
X103274517Y-70834228D01*
X103225377Y-70726627D01*
X103131128Y-70617857D01*
X103131127Y-70617856D01*
X103131126Y-70617855D01*
X103010057Y-70540049D01*
X103010054Y-70540047D01*
X103010053Y-70540047D01*
X103010050Y-70540046D01*
X102871964Y-70499500D01*
X102871961Y-70499500D01*
X102728039Y-70499500D01*
X102728035Y-70499500D01*
X102589949Y-70540046D01*
X102589942Y-70540049D01*
X102468873Y-70617855D01*
X102374622Y-70726628D01*
X102314834Y-70857543D01*
X102294353Y-70999997D01*
X102294353Y-71000003D01*
X102297441Y-71021482D01*
X102287007Y-71081771D01*
X102269453Y-71105574D01*
X100204525Y-73170504D01*
X100150008Y-73198281D01*
X100134521Y-73199500D01*
X92865479Y-73199500D01*
X92807288Y-73180593D01*
X92795475Y-73170504D01*
X92458565Y-72833594D01*
X92450479Y-72822344D01*
X92449487Y-72823094D01*
X92443958Y-72815772D01*
X92408428Y-72783382D01*
X92406775Y-72781804D01*
X92392797Y-72767826D01*
X92389859Y-72765813D01*
X92384496Y-72761564D01*
X92360933Y-72740084D01*
X92351762Y-72736531D01*
X92331586Y-72725895D01*
X92323484Y-72720345D01*
X92323479Y-72720343D01*
X92292457Y-72713046D01*
X92285902Y-72711016D01*
X92256177Y-72699501D01*
X92256174Y-72699500D01*
X92256173Y-72699500D01*
X92256172Y-72699500D01*
X92246348Y-72699500D01*
X92223683Y-72696870D01*
X92214119Y-72694621D01*
X92214118Y-72694621D01*
X92182547Y-72699025D01*
X92175701Y-72699500D01*
X91517044Y-72699500D01*
X91458853Y-72680593D01*
X91422889Y-72631093D01*
X91422889Y-72569907D01*
X91458853Y-72520407D01*
X91488306Y-72505763D01*
X91507310Y-72499998D01*
X91588954Y-72475232D01*
X91771450Y-72377685D01*
X91781124Y-72369746D01*
X92674500Y-72369746D01*
X92674501Y-72369758D01*
X92686132Y-72428227D01*
X92686134Y-72428233D01*
X92724581Y-72485772D01*
X92730448Y-72494552D01*
X92796769Y-72538867D01*
X92841231Y-72547711D01*
X92855241Y-72550498D01*
X92855246Y-72550498D01*
X92855252Y-72550500D01*
X92855253Y-72550500D01*
X94594747Y-72550500D01*
X94594748Y-72550500D01*
X94653231Y-72538867D01*
X94719552Y-72494552D01*
X94763867Y-72428231D01*
X94775500Y-72369748D01*
X94775500Y-70630252D01*
X94773921Y-70622316D01*
X94766920Y-70587118D01*
X94763867Y-70571769D01*
X94719552Y-70505448D01*
X94719548Y-70505445D01*
X94653233Y-70461134D01*
X94653231Y-70461133D01*
X94653228Y-70461132D01*
X94653227Y-70461132D01*
X94594758Y-70449501D01*
X94594748Y-70449500D01*
X92855252Y-70449500D01*
X92855251Y-70449500D01*
X92855241Y-70449501D01*
X92796772Y-70461132D01*
X92796766Y-70461134D01*
X92730451Y-70505445D01*
X92730445Y-70505451D01*
X92686134Y-70571766D01*
X92686132Y-70571772D01*
X92674501Y-70630241D01*
X92674500Y-70630253D01*
X92674500Y-72369746D01*
X91781124Y-72369746D01*
X91931410Y-72246410D01*
X92062685Y-72086450D01*
X92160232Y-71903954D01*
X92220300Y-71705934D01*
X92220301Y-71705929D01*
X92240583Y-71500000D01*
X92240583Y-71499996D01*
X92220301Y-71294070D01*
X92220300Y-71294065D01*
X92187286Y-71185232D01*
X92160232Y-71096046D01*
X92062685Y-70913550D01*
X92059700Y-70909913D01*
X91931414Y-70753595D01*
X91931410Y-70753590D01*
X91898557Y-70726628D01*
X91771452Y-70622316D01*
X91588954Y-70524768D01*
X91390934Y-70464699D01*
X91390929Y-70464698D01*
X91185003Y-70444417D01*
X91184997Y-70444417D01*
X90979070Y-70464698D01*
X90979065Y-70464699D01*
X90781045Y-70524768D01*
X90598547Y-70622316D01*
X90438595Y-70753585D01*
X90438585Y-70753595D01*
X90307316Y-70913547D01*
X90209768Y-71096045D01*
X90149699Y-71294065D01*
X90149698Y-71294070D01*
X90129417Y-71499996D01*
X90129417Y-71500000D01*
X90149698Y-71705929D01*
X90149699Y-71705934D01*
X90209768Y-71903954D01*
X90307316Y-72086452D01*
X90400503Y-72200001D01*
X90438590Y-72246410D01*
X90438595Y-72246414D01*
X90598547Y-72377683D01*
X90598548Y-72377683D01*
X90598550Y-72377685D01*
X90781046Y-72475232D01*
X90918997Y-72517078D01*
X90979065Y-72535300D01*
X90979071Y-72535301D01*
X91118790Y-72549062D01*
X91174848Y-72573581D01*
X91205787Y-72626368D01*
X91199790Y-72687259D01*
X91159147Y-72732996D01*
X91149084Y-72738145D01*
X91132539Y-72745452D01*
X91127233Y-72747795D01*
X91120284Y-72754744D01*
X91102409Y-72768903D01*
X91094048Y-72774080D01*
X91074839Y-72799515D01*
X91070335Y-72804692D01*
X90804524Y-73070503D01*
X90750007Y-73098281D01*
X90734520Y-73099500D01*
X90628035Y-73099500D01*
X90489949Y-73140046D01*
X90489942Y-73140049D01*
X90368873Y-73217855D01*
X90274622Y-73326628D01*
X90214834Y-73457543D01*
X90194353Y-73599997D01*
X90194353Y-73600002D01*
X90214834Y-73742456D01*
X90268229Y-73859373D01*
X90275204Y-73920160D01*
X90245118Y-73973437D01*
X90189462Y-73998855D01*
X90178176Y-73999500D01*
X88672586Y-73999500D01*
X88614395Y-73980593D01*
X88602582Y-73970504D01*
X87129496Y-72497418D01*
X87101719Y-72442901D01*
X87100500Y-72427414D01*
X87100500Y-69800002D01*
X102294353Y-69800002D01*
X102314834Y-69942456D01*
X102342971Y-70004066D01*
X102374623Y-70073373D01*
X102459308Y-70171105D01*
X102468873Y-70182144D01*
X102585391Y-70257025D01*
X102589947Y-70259953D01*
X102689721Y-70289249D01*
X102728035Y-70300499D01*
X102728036Y-70300499D01*
X102728039Y-70300500D01*
X102728041Y-70300500D01*
X102871959Y-70300500D01*
X102871961Y-70300500D01*
X103010053Y-70259953D01*
X103131128Y-70182143D01*
X103225377Y-70073373D01*
X103285165Y-69942457D01*
X103297416Y-69857246D01*
X103305647Y-69800002D01*
X103305647Y-69799997D01*
X103285165Y-69657543D01*
X103250731Y-69582144D01*
X103225377Y-69526627D01*
X103131128Y-69417857D01*
X103131127Y-69417856D01*
X103131126Y-69417855D01*
X103010057Y-69340049D01*
X103010054Y-69340047D01*
X103010053Y-69340047D01*
X103010050Y-69340046D01*
X102871964Y-69299500D01*
X102871961Y-69299500D01*
X102728039Y-69299500D01*
X102728035Y-69299500D01*
X102589949Y-69340046D01*
X102589942Y-69340049D01*
X102468873Y-69417855D01*
X102374622Y-69526628D01*
X102314834Y-69657543D01*
X102294353Y-69799997D01*
X102294353Y-69800002D01*
X87100500Y-69800002D01*
X87100500Y-69265171D01*
X87102731Y-69251494D01*
X87101506Y-69251324D01*
X87102774Y-69242233D01*
X87100821Y-69200002D01*
X99644353Y-69200002D01*
X99664834Y-69342456D01*
X99710504Y-69442457D01*
X99724623Y-69473373D01*
X99791154Y-69550154D01*
X99818873Y-69582144D01*
X99904071Y-69636897D01*
X99939947Y-69659953D01*
X100039721Y-69689249D01*
X100078035Y-69700499D01*
X100078036Y-69700499D01*
X100078039Y-69700500D01*
X100078041Y-69700500D01*
X100221959Y-69700500D01*
X100221961Y-69700500D01*
X100360053Y-69659953D01*
X100481128Y-69582143D01*
X100575377Y-69473373D01*
X100635165Y-69342457D01*
X100646792Y-69261589D01*
X100655647Y-69200002D01*
X100655647Y-69199997D01*
X100635165Y-69057543D01*
X100623751Y-69032550D01*
X100575377Y-68926627D01*
X100481128Y-68817857D01*
X100481127Y-68817856D01*
X100481126Y-68817855D01*
X100360057Y-68740049D01*
X100360054Y-68740047D01*
X100360053Y-68740047D01*
X100360050Y-68740046D01*
X100221964Y-68699500D01*
X100221961Y-68699500D01*
X100078039Y-68699500D01*
X100078035Y-68699500D01*
X99939949Y-68740046D01*
X99939942Y-68740049D01*
X99818873Y-68817855D01*
X99724622Y-68926628D01*
X99664834Y-69057543D01*
X99644353Y-69199997D01*
X99644353Y-69200002D01*
X87100821Y-69200002D01*
X87100553Y-69194203D01*
X87100500Y-69191917D01*
X87100500Y-69172161D01*
X87100500Y-69172156D01*
X87099845Y-69168654D01*
X87099057Y-69161865D01*
X87097585Y-69130009D01*
X87093615Y-69121019D01*
X87086865Y-69099220D01*
X87085061Y-69089567D01*
X87068278Y-69062462D01*
X87065085Y-69056406D01*
X87054553Y-69032550D01*
X87052207Y-69027236D01*
X87045257Y-69020286D01*
X87031088Y-69002396D01*
X87025920Y-68994049D01*
X87025919Y-68994048D01*
X87000483Y-68974839D01*
X86995306Y-68970334D01*
X86324973Y-68300002D01*
X100514353Y-68300002D01*
X100534834Y-68442456D01*
X100592398Y-68568501D01*
X100594623Y-68573373D01*
X100687529Y-68680593D01*
X100688873Y-68682144D01*
X100793296Y-68749252D01*
X100809947Y-68759953D01*
X100891586Y-68783924D01*
X100948035Y-68800499D01*
X100948036Y-68800499D01*
X100948039Y-68800500D01*
X100948041Y-68800500D01*
X101091959Y-68800500D01*
X101091961Y-68800500D01*
X101230053Y-68759953D01*
X101351128Y-68682143D01*
X101445377Y-68573373D01*
X101456050Y-68550002D01*
X102244353Y-68550002D01*
X102264834Y-68692456D01*
X102306326Y-68783309D01*
X102324623Y-68823373D01*
X102414093Y-68926628D01*
X102418873Y-68932144D01*
X102528188Y-69002396D01*
X102539947Y-69009953D01*
X102646403Y-69041211D01*
X102678035Y-69050499D01*
X102678036Y-69050499D01*
X102678039Y-69050500D01*
X102678041Y-69050500D01*
X102821959Y-69050500D01*
X102821961Y-69050500D01*
X102960053Y-69009953D01*
X103081128Y-68932143D01*
X103175377Y-68823373D01*
X103235165Y-68692457D01*
X103243988Y-68631093D01*
X103255647Y-68550002D01*
X103255647Y-68549997D01*
X103235165Y-68407543D01*
X103235164Y-68407542D01*
X103175377Y-68276627D01*
X103081128Y-68167857D01*
X103081127Y-68167856D01*
X103081126Y-68167855D01*
X102960057Y-68090049D01*
X102960054Y-68090047D01*
X102960053Y-68090047D01*
X102960050Y-68090046D01*
X102821964Y-68049500D01*
X102821961Y-68049500D01*
X102678039Y-68049500D01*
X102678035Y-68049500D01*
X102539949Y-68090046D01*
X102539942Y-68090049D01*
X102418873Y-68167855D01*
X102324622Y-68276628D01*
X102264834Y-68407543D01*
X102244353Y-68549997D01*
X102244353Y-68550002D01*
X101456050Y-68550002D01*
X101505165Y-68442457D01*
X101514915Y-68374646D01*
X101525647Y-68300002D01*
X101525647Y-68299997D01*
X101505165Y-68157543D01*
X101459792Y-68058191D01*
X101445377Y-68026627D01*
X101351128Y-67917857D01*
X101351127Y-67917856D01*
X101351126Y-67917855D01*
X101230057Y-67840049D01*
X101230054Y-67840047D01*
X101230053Y-67840047D01*
X101230050Y-67840046D01*
X101091964Y-67799500D01*
X101091961Y-67799500D01*
X100948039Y-67799500D01*
X100948035Y-67799500D01*
X100809949Y-67840046D01*
X100809942Y-67840049D01*
X100688873Y-67917855D01*
X100594622Y-68026628D01*
X100534834Y-68157543D01*
X100514353Y-68299997D01*
X100514353Y-68300002D01*
X86324973Y-68300002D01*
X86058565Y-68033594D01*
X86050479Y-68022344D01*
X86049487Y-68023094D01*
X86043958Y-68015772D01*
X86008428Y-67983382D01*
X86006775Y-67981804D01*
X85992797Y-67967826D01*
X85989859Y-67965813D01*
X85984496Y-67961564D01*
X85960933Y-67940084D01*
X85951762Y-67936531D01*
X85931586Y-67925895D01*
X85923484Y-67920345D01*
X85923479Y-67920343D01*
X85892457Y-67913046D01*
X85885902Y-67911016D01*
X85856177Y-67899501D01*
X85856174Y-67899500D01*
X85856173Y-67899500D01*
X85856172Y-67899500D01*
X85846348Y-67899500D01*
X85823683Y-67896870D01*
X85814119Y-67894621D01*
X85814118Y-67894621D01*
X85782547Y-67899025D01*
X85775701Y-67899500D01*
X81650164Y-67899500D01*
X81636488Y-67897267D01*
X81636317Y-67898494D01*
X81627233Y-67897226D01*
X81586886Y-67899092D01*
X81579206Y-67899447D01*
X81576930Y-67899500D01*
X81557153Y-67899500D01*
X81553658Y-67900153D01*
X81546845Y-67900943D01*
X81515010Y-67902414D01*
X81515006Y-67902415D01*
X81506015Y-67906385D01*
X81484227Y-67913132D01*
X81474570Y-67914937D01*
X81474564Y-67914939D01*
X81447466Y-67931717D01*
X81441399Y-67934915D01*
X81412237Y-67947792D01*
X81412233Y-67947795D01*
X81405284Y-67954744D01*
X81387409Y-67968903D01*
X81379048Y-67974080D01*
X81359839Y-67999515D01*
X81355335Y-68004692D01*
X80126215Y-69233812D01*
X80071698Y-69261589D01*
X80011266Y-69252018D01*
X80009583Y-69251139D01*
X79978954Y-69234768D01*
X79978953Y-69234768D01*
X79780934Y-69174699D01*
X79780929Y-69174698D01*
X79575003Y-69154417D01*
X79574997Y-69154417D01*
X79369070Y-69174698D01*
X79369065Y-69174699D01*
X79171045Y-69234768D01*
X78988547Y-69332316D01*
X78828595Y-69463585D01*
X78828585Y-69463595D01*
X78697316Y-69623547D01*
X78599768Y-69806045D01*
X78539699Y-70004065D01*
X78539698Y-70004070D01*
X78519417Y-70209996D01*
X78519417Y-70210003D01*
X72010500Y-70210003D01*
X72010500Y-69300002D01*
X76962769Y-69300002D01*
X76983250Y-69442456D01*
X77028920Y-69542457D01*
X77043039Y-69573373D01*
X77129689Y-69673373D01*
X77137289Y-69682144D01*
X77165852Y-69700500D01*
X77258363Y-69759953D01*
X77345945Y-69785669D01*
X77396451Y-69800499D01*
X77396452Y-69800499D01*
X77396455Y-69800500D01*
X77396457Y-69800500D01*
X77540375Y-69800500D01*
X77540377Y-69800500D01*
X77678469Y-69759953D01*
X77799544Y-69682143D01*
X77893793Y-69573373D01*
X77953581Y-69442457D01*
X77960408Y-69394971D01*
X77974063Y-69300002D01*
X77974063Y-69299997D01*
X77953581Y-69157543D01*
X77945667Y-69140215D01*
X77893793Y-69026627D01*
X77818583Y-68939830D01*
X77794767Y-68883471D01*
X77808626Y-68823876D01*
X77818581Y-68810172D01*
X77893793Y-68723373D01*
X77953581Y-68592457D01*
X77966802Y-68500500D01*
X77974063Y-68450002D01*
X77974063Y-68449997D01*
X77953581Y-68307543D01*
X77911118Y-68214563D01*
X77893793Y-68176627D01*
X77799544Y-68067857D01*
X77799543Y-68067856D01*
X77799542Y-68067855D01*
X77678473Y-67990049D01*
X77678470Y-67990047D01*
X77678469Y-67990047D01*
X77678466Y-67990046D01*
X77540380Y-67949500D01*
X77540377Y-67949500D01*
X77396455Y-67949500D01*
X77396451Y-67949500D01*
X77258365Y-67990046D01*
X77258358Y-67990049D01*
X77137289Y-68067855D01*
X77043038Y-68176628D01*
X76983250Y-68307543D01*
X76962769Y-68449997D01*
X76962769Y-68450002D01*
X76983250Y-68592456D01*
X77043039Y-68723373D01*
X77118247Y-68810170D01*
X77142064Y-68866529D01*
X77128205Y-68926124D01*
X77118247Y-68939830D01*
X77043039Y-69026626D01*
X76983250Y-69157543D01*
X76962769Y-69299997D01*
X76962769Y-69300002D01*
X72010500Y-69300002D01*
X72010500Y-66500000D01*
X75426112Y-66500000D01*
X75829557Y-66500000D01*
X75825000Y-66522912D01*
X75825000Y-66877088D01*
X75829557Y-66900000D01*
X75426113Y-66900000D01*
X75439799Y-67012723D01*
X75439802Y-67012732D01*
X75497924Y-67165987D01*
X75497926Y-67165990D01*
X75591042Y-67300894D01*
X75713738Y-67409592D01*
X75858884Y-67485772D01*
X75899999Y-67495906D01*
X75900000Y-67495905D01*
X75900000Y-67045665D01*
X75901736Y-67048264D01*
X75992700Y-67109045D01*
X76100000Y-67130388D01*
X76207300Y-67109045D01*
X76298264Y-67048264D01*
X76300000Y-67045665D01*
X76300000Y-67495906D01*
X76341115Y-67485772D01*
X76486261Y-67409592D01*
X76608957Y-67300894D01*
X76678597Y-67200002D01*
X99594353Y-67200002D01*
X99614834Y-67342456D01*
X99664573Y-67451367D01*
X99674623Y-67473373D01*
X99723212Y-67529448D01*
X99768873Y-67582144D01*
X99824441Y-67617855D01*
X99889947Y-67659953D01*
X99996403Y-67691211D01*
X100028035Y-67700499D01*
X100028036Y-67700499D01*
X100028039Y-67700500D01*
X100028041Y-67700500D01*
X100171959Y-67700500D01*
X100171961Y-67700500D01*
X100310053Y-67659953D01*
X100431128Y-67582143D01*
X100525377Y-67473373D01*
X100585165Y-67342457D01*
X100593344Y-67285573D01*
X100605647Y-67200002D01*
X100605647Y-67199997D01*
X100585165Y-67057543D01*
X100546725Y-66973373D01*
X100525377Y-66926627D01*
X100431128Y-66817857D01*
X100431127Y-66817856D01*
X100431126Y-66817855D01*
X100310057Y-66740049D01*
X100310054Y-66740047D01*
X100310053Y-66740047D01*
X100310050Y-66740046D01*
X100171964Y-66699500D01*
X100171961Y-66699500D01*
X100028039Y-66699500D01*
X100028035Y-66699500D01*
X99889949Y-66740046D01*
X99889942Y-66740049D01*
X99768873Y-66817855D01*
X99674622Y-66926628D01*
X99614834Y-67057543D01*
X99594353Y-67199997D01*
X99594353Y-67200002D01*
X76678597Y-67200002D01*
X76702073Y-67165990D01*
X76702075Y-67165987D01*
X76760197Y-67012732D01*
X76760200Y-67012723D01*
X76773887Y-66900000D01*
X76370443Y-66900000D01*
X76375000Y-66877088D01*
X76375000Y-66522912D01*
X76370443Y-66500000D01*
X76773887Y-66500000D01*
X76760200Y-66387276D01*
X76760197Y-66387267D01*
X76702075Y-66234012D01*
X76702073Y-66234009D01*
X76608957Y-66099105D01*
X76486261Y-65990407D01*
X76341116Y-65914227D01*
X76300000Y-65904092D01*
X76300000Y-66354334D01*
X76298264Y-66351736D01*
X76207300Y-66290955D01*
X76100000Y-66269612D01*
X75992700Y-66290955D01*
X75901736Y-66351736D01*
X75900000Y-66354334D01*
X75900000Y-65904093D01*
X75899999Y-65904092D01*
X75858883Y-65914227D01*
X75713738Y-65990407D01*
X75591042Y-66099105D01*
X75497926Y-66234009D01*
X75497924Y-66234012D01*
X75439802Y-66387267D01*
X75439799Y-66387276D01*
X75426112Y-66500000D01*
X72010500Y-66500000D01*
X72010500Y-65099000D01*
X72029407Y-65040809D01*
X72078907Y-65004845D01*
X72109500Y-65000000D01*
X72631438Y-65000000D01*
X72689629Y-65018907D01*
G37*
%TD.AperFunction*%
%TD*%
M02*
