M48
METRIC
T1C0.300
T2C0.500
T3C0.550
T4C1.000
T5C1.170
T6C1.500
T7C2.200
%
G90
G05
T1
X72.6Y-85.7
X72.7Y-90.5
X72.8Y-75.5
X76.6Y-91.2
X77.4Y-74.5
X77.468Y-68.45
X77.468Y-69.3
X77.8Y-79.7
X78.5Y-66.1
X79.8Y-91.3
X80.29Y-78.27
X81.0Y-65.5
X81.0Y-67.5
X82.3Y-75.3
X82.7Y-91.4
X83.5Y-65.5
X83.5Y-67.5
X85.9Y-91.5
X86.0Y-78.8
X86.5Y-65.5
X86.5Y-67.5
X87.0Y-75.3
X88.1Y-69.5
X88.6Y-83.9
X88.8Y-72.6
X89.5Y-65.5
X89.5Y-67.5
X89.6Y-91.5
X90.54Y-75.55
X90.7Y-73.6
X91.8Y-81.8
X91.9Y-73.6
X92.5Y-65.5
X92.5Y-67.7
X92.9Y-91.3
X93.8Y-79.6
X94.3Y-83.2
X94.7Y-72.9
X95.2Y-71.9
X95.5Y-65.5
X95.6Y-76.7
X97.7Y-75.7
X98.0Y-65.5
X99.0Y-76.3
X100.05Y-80.85
X100.1Y-67.2
X100.15Y-69.2
X101.02Y-68.3
X101.2Y-66.825
X101.4Y-91.4
X102.75Y-68.55
X102.8Y-69.8
X102.8Y-71.0
X102.8Y-72.2
X103.1Y-80.5
X103.55Y-67.15
X104.0Y-91.5
X104.3Y-68.55
X104.3Y-69.8
X104.3Y-71.0
X104.3Y-72.2
X104.3Y-73.4
X105.7Y-81.2
X105.8Y-69.8
X105.8Y-71.0
X105.8Y-72.2
X105.8Y-73.4
X106.9Y-77.5
X107.3Y-72.2
X107.3Y-73.4
X107.3Y-91.5
X108.05Y-67.15
X108.8Y-72.2
X108.8Y-73.4
X110.25Y-80.3
X110.35Y-69.8
X110.356Y-68.599
X110.4Y-71.0
X110.7Y-65.55
X110.7Y-66.85
X110.9Y-91.5
X110.95Y-69.2
X110.95Y-70.4
X110.95Y-68.0
X111.036Y-71.608
X111.95Y-76.6
X112.75Y-76.7
X112.85Y-65.9
X113.0Y-80.3
X114.3Y-74.0
X114.5Y-67.75
X114.55Y-66.7
X114.8Y-80.8
X115.2Y-74.0
X115.3Y-91.5
X116.55Y-79.5
X116.7Y-73.9
X117.3Y-75.95
X117.7Y-88.0
X117.9Y-69.4
X118.0Y-73.55
X118.8Y-69.9
X119.6Y-69.4
X120.9Y-85.8
X120.95Y-74.65
X120.95Y-77.2
X120.95Y-79.7
X121.253Y-77.989
X123.5Y-65.475
X123.9Y-67.4
X124.0Y-73.2
X124.6Y-91.5
X127.4Y-66.1
X130.1Y-91.5
X131.2Y-82.9
X131.6Y-66.2
X132.2Y-69.5
X132.8Y-74.7
X133.0Y-80.0
X133.6Y-91.5
X134.8Y-72.3
X135.3Y-77.4
X135.6Y-82.3
X136.4Y-91.5
X137.65Y-66.799
X138.4Y-68.8
X138.4Y-71.7
X138.4Y-74.5
X138.4Y-77.1
X138.4Y-79.8
X138.4Y-84.1
X138.5Y-65.7
X138.5Y-89.4
T4
X74.365Y-75.46
X74.365Y-78.0
X74.365Y-80.54
X74.365Y-83.08
X74.365Y-85.62
X74.365Y-88.16
X74.365Y-90.7
X78.93Y-85.875
X78.93Y-88.415
X79.575Y-70.21
X79.575Y-72.75
X81.47Y-85.875
X81.47Y-88.415
X82.115Y-70.21
X82.115Y-72.75
X84.01Y-85.875
X84.01Y-88.415
X84.655Y-70.21
X84.655Y-72.75
X86.55Y-85.875
X86.55Y-88.415
X89.09Y-85.875
X89.09Y-88.415
X91.185Y-71.5
X91.63Y-85.875
X91.63Y-88.415
X93.725Y-71.5
X97.225Y-80.54
X97.225Y-83.08
X101.79Y-85.875
X101.79Y-88.415
X104.33Y-85.875
X104.33Y-88.415
X106.87Y-85.875
X106.87Y-88.415
X109.41Y-85.875
X109.41Y-88.415
X111.95Y-85.875
X111.95Y-88.415
X114.49Y-85.875
X114.49Y-88.415
X124.65Y-85.875
X124.65Y-88.415
X126.445Y-69.619
X126.445Y-72.159
X126.445Y-74.699
X126.445Y-77.239
X126.445Y-79.779
X126.445Y-82.319
X127.19Y-85.875
X127.19Y-88.415
X128.985Y-69.619
X128.985Y-72.159
X128.985Y-74.699
X128.985Y-77.239
X128.985Y-79.779
X128.985Y-82.319
X129.73Y-85.875
X129.73Y-88.415
X132.27Y-85.875
X132.27Y-88.415
X134.81Y-85.875
X134.81Y-88.415
X137.35Y-85.875
X137.35Y-88.415
T5
X97.25Y-77.4
T6
X77.25Y-77.4
T7
X97.0Y-89.5
X120.0Y-89.5
X134.8Y-65.6
T2
G00X73.725Y-65.7
M15
G01X73.075Y-65.7
M16
G05
G00X73.725Y-72.7
M15
G01X73.075Y-72.7
M16
G05
T3
G00X76.1Y-66.55
M15
G01X76.1Y-66.85
M16
G05
G00X76.1Y-71.55
M15
G01X76.1Y-71.85
M16
G05
T0
M30
